<svg xmlns="http://www.w3.org/2000/svg"><defs><path id="g-100" d="M79.10 0L70.14 0L70.14-12.29L69.89-12.29Q65.41-5.50 57.98-1.92Q50.56 1.66 42.62 1.66L42.62 1.66Q34.69 1.66 27.84-1.15Q20.99-3.97 15.94-8.90Q10.88-13.82 7.94-20.54Q4.99-27.26 4.99-35.20L4.99-35.20Q4.99-43.01 8-49.73Q11.01-56.45 16.13-61.38Q21.25-66.30 28.10-69.06Q34.94-71.81 42.62-71.81L42.62-71.81Q50.69-71.81 57.98-68.29Q65.28-64.77 69.89-57.98L69.89-57.98L70.14-57.98L70.14-94.72L79.10-94.72L79.10 0ZM70.66-34.94L70.66-34.94Q70.66-40.83 68.48-46.02Q66.30-51.20 62.59-55.17Q58.88-59.14 53.70-61.44Q48.51-63.74 42.62-63.74L42.62-63.74Q36.35-63.74 31.10-61.57Q25.86-59.39 22.02-55.49Q18.18-51.58 16.06-46.27Q13.95-40.96 13.95-34.82L13.95-34.82Q13.95-28.67 16.13-23.49Q18.30-18.30 22.14-14.46Q25.98-10.62 31.23-8.51Q36.48-6.40 42.62-6.40L42.62-6.40Q48.51-6.40 53.70-8.64Q58.88-10.88 62.59-14.78Q66.30-18.69 68.48-23.87Q70.66-29.06 70.66-34.94Z"/>,<path id="g-101" d="M77.95-34.30L77.95-34.30Q77.95-33.66 77.89-33.02Q77.82-32.38 77.82-31.74L77.82-31.74L14.08-31.74Q14.34-26.50 16.64-21.89Q18.94-17.28 22.72-13.82Q26.50-10.37 31.30-8.38Q36.10-6.40 41.22-6.40L41.22-6.40Q45.18-6.40 49.09-7.55Q52.99-8.70 56.32-10.82Q59.65-12.93 62.27-16Q64.90-19.07 66.30-22.91L66.30-22.91L75.78-22.91Q73.86-17.41 70.40-12.93Q66.94-8.45 62.46-5.18Q57.98-1.92 52.54-0.13Q47.10 1.66 41.34 1.66L41.34 1.66Q33.79 1.66 27.14-1.22Q20.48-4.10 15.55-9.09Q10.62-14.08 7.74-20.74Q4.86-27.39 4.86-34.94L4.86-34.94Q4.86-42.37 7.74-49.09Q10.62-55.81 15.55-60.86Q20.48-65.92 27.07-68.86Q33.66-71.81 41.22-71.81L41.22-71.81Q48.90-71.81 55.62-68.80Q62.34-65.79 67.26-60.67Q72.19-55.55 75.07-48.70Q77.95-41.86 77.95-34.30ZM14.08-39.81L68.74-39.81Q67.84-44.93 65.47-49.34Q63.10-53.76 59.46-56.96Q55.81-60.16 51.20-61.95Q46.59-63.74 41.34-63.74L41.34-63.74Q36.10-63.74 31.49-61.95Q26.88-60.16 23.30-56.96Q19.71-53.76 17.28-49.34Q14.85-44.93 14.08-39.81L14.08-39.81Z"/>,<path id="g-102" d="M40.19-61.95L22.27-61.95L22.27 0L13.31 0L13.31-61.95L2.43-61.95L2.43-70.02L13.31-70.02Q13.44-72.58 13.63-75.26Q13.82-77.95 14.46-80.51L14.46-80.51Q15.74-85.12 18.24-88.19Q20.74-91.26 24.13-93.06Q27.52-94.85 31.62-95.62Q35.71-96.38 40.19-96.38L40.19-96.38L40.19-88.06Q30.46-88.06 26.37-83.90Q22.27-79.74 22.27-70.53L22.27-70.53L22.27-70.02L40.19-70.02L40.19-61.95Z"/>,<path id="g-103" d="M77.57-70.02L77.57-11.01Q77.57-4.10 76.54 2.37Q75.52 8.83 71.17 14.59L71.17 14.59Q66.30 20.99 58.82 24.26Q51.33 27.52 43.39 27.52L43.39 27.52Q36.99 27.52 31.30 25.86Q25.60 24.19 20.93 20.93Q16.26 17.66 12.80 12.86Q9.34 8.06 7.55 1.79L7.55 1.79L17.02 1.79Q20.35 10.24 27.20 14.85Q34.05 19.46 43.26 19.46L43.26 19.46Q49.15 19.46 53.89 17.60Q58.62 15.74 61.89 12.29Q65.15 8.83 66.88 4.03Q68.61-0.77 68.61-6.66L68.61-6.66L68.61-12.80L68.35-12.80Q66.43-9.09 63.49-6.40Q60.54-3.71 56.96-1.92Q53.38-0.13 49.34 0.77Q45.31 1.66 41.34 1.66L41.34 1.66Q33.79 1.66 27.14-1.15Q20.48-3.97 15.49-8.90Q10.50-13.82 7.62-20.42Q4.74-27.01 4.74-34.69L4.74-34.69Q4.74-42.37 7.55-49.09Q10.37-55.81 15.36-60.86Q20.35-65.92 27.01-68.86Q33.66-71.81 41.34-71.81L41.34-71.81Q49.66-71.81 56.77-68.16Q63.87-64.51 68.35-57.47L68.35-57.47L68.61-57.47L68.61-70.02L77.57-70.02ZM69.12-34.94L69.12-34.94Q69.12-40.70 67.01-45.95Q64.90-51.20 61.12-55.10Q57.34-59.01 52.29-61.38Q47.23-63.74 41.34-63.74L41.34-63.74Q35.46-63.74 30.40-61.44Q25.34-59.14 21.63-55.17Q17.92-51.20 15.81-45.95Q13.70-40.70 13.70-34.94L13.70-34.94Q13.70-29.18 15.81-24Q17.92-18.82 21.63-14.91Q25.34-11.01 30.40-8.70Q35.46-6.40 41.34-6.40L41.34-6.40Q47.10-6.40 52.22-8.70Q57.34-11.01 61.06-14.91Q64.77-18.82 66.94-24Q69.12-29.18 69.12-34.94Z"/>,<path id="g-104" d="M69.50 0L60.54 0L60.54-38.53Q60.54-43.52 59.07-48.83Q57.60-54.14 53.89-57.73L53.89-57.73Q50.82-60.67 46.85-62.21Q42.88-63.74 38.66-63.74L38.66-63.74Q34.43-63.74 30.46-62.21Q26.50-60.67 23.42-57.73L23.42-57.73Q19.71-54.27 18.30-49.15Q16.90-44.03 16.90-39.17L16.90-39.17L16.90 0L7.94 0L7.94-94.72L16.90-94.72L16.90-61.06L17.15-61.06Q20.61-66.43 26.50-69.12Q32.38-71.81 38.66-71.81L38.66-71.81Q46.21-71.81 51.97-69.31Q57.73-66.82 61.63-62.40Q65.54-57.98 67.52-51.90Q69.50-45.82 69.50-38.53L69.50-38.53L69.50 0Z"/>,<path id="g-105" d="M17.28-78.59L8.32-78.59L8.32-94.72L17.28-94.72L17.28-78.59ZM17.28 0L8.32 0L8.32-70.02L17.28-70.02L17.28 0Z"/>,<path id="g-106" d="M17.54-78.59L8.58-78.59L8.58-94.72L17.54-94.72L17.54-78.59ZM17.54-70.02L17.54-3.33Q17.54-0.13 17.28 2.94Q17.02 6.02 16.26 8.77Q15.49 11.52 13.95 14.08Q12.42 16.64 9.86 18.94L9.86 18.94Q6.14 22.27 2.69 23.36Q-0.77 24.45-5.63 24.58L-5.63 24.58L-5.63 15.74Q-0.90 15.62 1.92 13.82Q4.74 12.03 6.21 9.22Q7.68 6.40 8.13 2.75Q8.58-0.90 8.58-4.86L8.58-4.86L8.58-70.02L17.54-70.02Z"/>,<path id="g-107" d="M63.74 0L52.22 0L29.18-27.65L17.92-13.31L17.92 0L8.96 0L8.96-94.72L17.92-94.72L17.92-27.26L18.18-27.26L50.82-70.02L62.34-70.02L34.69-34.69L63.74 0Z"/>,<path id="g-108" d="M17.28 0L8.32 0L8.32-94.72L17.28-94.72L17.28 0Z"/>,<path id="g-109" d="M111.62 0L102.66 0L102.66-40.58Q102.66-45.18 101.63-49.41Q100.61-53.63 98.30-56.83Q96-60.03 92.35-61.89Q88.70-63.74 83.58-63.74L83.58-63.74Q78.34-63.74 74.75-61.89Q71.17-60.03 68.86-56.83Q66.56-53.63 65.54-49.41Q64.51-45.18 64.51-40.58L64.51-40.58L64.51 0L55.55 0L55.55-40.58Q55.55-45.18 54.53-49.41Q53.50-53.63 51.20-56.83Q48.90-60.03 45.25-61.89Q41.60-63.74 36.48-63.74L36.48-63.74Q31.23-63.74 27.65-61.89Q24.06-60.03 21.76-56.83Q19.46-53.63 18.43-49.41Q17.41-45.18 17.41-40.58L17.41-40.58L17.41 0L8.45 0L8.45-70.02L17.41-70.02L17.41-61.95Q20.61-66.94 25.66-69.38Q30.72-71.81 36.48-71.81L36.48-71.81Q44.03-71.81 50.18-68.35Q56.32-64.90 60.03-58.37L60.03-58.37Q64.13-64.90 70.02-68.35Q75.90-71.81 83.58-71.81L83.58-71.81Q90.24-71.81 95.49-69.50Q100.74-67.20 104.32-63.17Q107.90-59.14 109.76-53.57Q111.62-48 111.62-41.60L111.62-41.60L111.62 0Z"/>,<path id="g-110" d="M69.89 0L60.93 0L60.93-38.53Q60.93-43.52 59.46-48.83Q57.98-54.14 54.27-57.73L54.27-57.73Q51.20-60.67 47.23-62.21Q43.26-63.74 39.04-63.74L39.04-63.74Q34.82-63.74 30.85-62.21Q26.88-60.67 23.81-57.73L23.81-57.73Q20.10-54.27 18.69-49.15Q17.28-44.03 17.28-39.17L17.28-39.17L17.28 0L8.32 0L8.32-70.02L17.28-70.02L17.28-61.06L17.54-61.06Q20.99-66.43 26.88-69.12Q32.77-71.81 39.04-71.81L39.04-71.81Q46.59-71.81 52.35-69.31Q58.11-66.82 62.02-62.40Q65.92-57.98 67.90-51.90Q69.89-45.82 69.89-38.53L69.89-38.53L69.89 0Z"/>,<path id="g-111" d="M78.59-35.07L78.59-35.07Q78.59-27.52 75.65-20.86Q72.70-14.21 67.71-9.22Q62.72-4.22 56.06-1.28Q49.41 1.66 41.86 1.66L41.86 1.66Q34.43 1.66 27.84-1.22Q21.25-4.10 16.26-9.02Q11.26-13.95 8.32-20.54Q5.38-27.14 5.38-34.56L5.38-34.56Q5.38-42.11 8.19-48.90Q11.01-55.68 15.94-60.74Q20.86-65.79 27.52-68.80Q34.18-71.81 41.86-71.81L41.86-71.81Q49.28-71.81 56-68.86Q62.72-65.92 67.71-60.93Q72.70-55.94 75.65-49.22Q78.59-42.50 78.59-35.07ZM69.63-35.46L69.63-35.46Q69.63-41.22 67.46-46.34Q65.28-51.46 61.57-55.30Q57.86-59.14 52.80-61.44Q47.74-63.74 41.98-63.74L41.98-63.74Q35.97-63.74 30.91-61.38Q25.86-59.01 22.21-55.04Q18.56-51.07 16.45-45.76Q14.34-40.45 14.34-34.69L14.34-34.69Q14.34-28.93 16.45-23.81Q18.56-18.69 22.34-14.85Q26.11-11.01 31.17-8.70Q36.22-6.40 41.98-6.40L41.98-6.40Q48-6.40 53.12-8.70Q58.24-11.01 61.89-14.98Q65.54-18.94 67.58-24.26Q69.63-29.57 69.63-35.46Z"/>,<path id="g-112" d="M82.30-35.20L82.30-35.20Q82.30-27.26 79.36-20.54Q76.42-13.82 71.36-8.90Q66.30-3.97 59.39-1.15Q52.48 1.66 44.67 1.66L44.67 1.66Q36.48 1.66 29.25-1.92Q22.02-5.50 17.41-12.29L17.41-12.29L17.15-12.29L17.15 24.58L8.19 24.58L8.19-70.02L17.15-70.02L17.15-57.73L17.41-57.73Q22.27-64.64 29.31-68.22Q36.35-71.81 44.67-71.81L44.67-71.81Q52.35-71.81 59.20-69.06Q66.05-66.30 71.17-61.38Q76.29-56.45 79.30-49.73Q82.30-43.01 82.30-35.20ZM73.34-34.82L73.34-34.82Q73.34-40.96 71.23-46.27Q69.12-51.58 65.28-55.49Q61.44-59.39 56.19-61.57Q50.94-63.74 44.67-63.74L44.67-63.74Q38.66-63.74 33.54-61.44Q28.42-59.14 24.70-55.17Q20.99-51.20 18.82-46.02Q16.64-40.83 16.64-34.94L16.64-34.94Q16.64-29.06 18.82-23.87Q20.99-18.69 24.70-14.78Q28.42-10.88 33.54-8.64Q38.66-6.40 44.67-6.40L44.67-6.40Q50.82-6.40 56.06-8.51Q61.31-10.62 65.15-14.46Q68.99-18.30 71.17-23.49Q73.34-28.67 73.34-34.82Z"/>,<path id="g-113" d="M78.85 24.58L69.89 24.58L69.89-12.29L69.63-12.29Q65.15-5.38 57.86-1.86Q50.56 1.66 42.37 1.66L42.37 1.66Q34.43 1.66 27.58-1.15Q20.74-3.97 15.68-8.90Q10.62-13.82 7.68-20.54Q4.74-27.26 4.74-35.20L4.74-35.20Q4.74-43.01 7.74-49.73Q10.75-56.45 15.87-61.38Q20.99-66.30 27.84-69.06Q34.69-71.81 42.37-71.81L42.37-71.81Q50.56-71.81 57.86-68.29Q65.15-64.77 69.63-57.73L69.63-57.73L69.89-57.73L69.89-70.02L78.85-70.02L78.85 24.58ZM70.40-34.94L70.40-34.94Q70.40-40.83 68.22-46.02Q66.05-51.20 62.34-55.17Q58.62-59.14 53.44-61.44Q48.26-63.74 42.37-63.74L42.37-63.74Q36.10-63.74 30.85-61.57Q25.60-59.39 21.76-55.49Q17.92-51.58 15.81-46.27Q13.70-40.96 13.70-34.82L13.70-34.82Q13.70-28.67 15.87-23.49Q18.05-18.30 21.89-14.46Q25.73-10.62 30.98-8.51Q36.22-6.40 42.37-6.40L42.37-6.40Q48.26-6.40 53.44-8.64Q58.62-10.88 62.34-14.78Q66.05-18.69 68.22-23.87Q70.40-29.06 70.40-34.94Z"/>,<path id="g-114" d="M37.25-62.34L37.25-62.34Q28.03-61.57 22.66-56Q17.28-50.43 17.28-40.96L17.28-40.96L17.28 0L8.32 0L8.32-70.02L17.28-70.02L17.28-59.90L17.54-59.90Q18.94-63.23 20.93-65.41Q22.91-67.58 25.41-68.93Q27.90-70.27 30.85-70.91Q33.79-71.55 37.25-71.81L37.25-71.81L37.25-62.34Z"/>,<path id="g-115" d="M46.59-19.71L46.59-19.71Q46.59-9.60 40.58-3.97Q34.56 1.66 24.58 1.66L24.58 1.66Q19.84 1.66 15.94 0.06Q12.03-1.54 9.15-4.42Q6.27-7.30 4.67-11.26Q3.07-15.23 3.07-19.97L3.07-19.97L3.07-20.74L12.03-20.74Q12.16-14.72 15.17-10.56Q18.18-6.40 24.58-6.40L24.58-6.40Q30.59-6.40 34.11-9.60Q37.63-12.80 37.63-18.94L37.63-18.94Q37.63-23.55 35.20-26.24Q32.77-28.93 29.18-30.66Q25.60-32.38 21.38-33.79Q17.15-35.20 13.57-37.38Q9.98-39.55 7.55-43.01Q5.12-46.46 5.12-52.35L5.12-52.35Q5.12-56.70 6.66-60.29Q8.19-63.87 10.88-66.43Q13.57-68.99 17.22-70.40Q20.86-71.81 25.09-71.81L25.09-71.81Q29.06-71.81 32.58-70.34Q36.10-68.86 38.66-66.30Q41.22-63.74 42.69-60.22Q44.16-56.70 44.16-52.74L44.16-52.74L35.20-52.74Q34.94-57.22 32.26-60.48Q29.57-63.74 24.70-63.74L24.70-63.74Q20.22-63.74 17.15-60.74Q14.08-57.73 14.08-53.25L14.08-53.25Q14.08-49.28 16.51-47.04Q18.94-44.80 22.53-43.20Q26.11-41.60 30.34-40.19Q34.56-38.78 38.14-36.35Q41.73-33.92 44.16-30.02Q46.59-26.11 46.59-19.71Z"/>,<path id="g-116" d="M42.24-61.95L25.47-61.95L25.47 0L16.51 0L16.51-61.95L1.79-61.95L1.79-70.02L16.51-70.02L16.51-94.72L25.47-94.72L25.47-70.02L42.24-70.02L42.24-61.95Z"/>,<path id="g-117" d="M69.25 0L60.80 0L60.80-10.88L60.54-10.88Q57.47-4.35 51.26-1.34Q45.06 1.66 38.14 1.66L38.14 1.66Q31.23 1.66 24.83-0.83Q18.43-3.33 14.08-8.83L14.08-8.83Q10.37-13.57 9.15-19.52Q7.94-25.47 7.94-31.36L7.94-31.36L7.94-70.02L16.90-70.02L16.90-31.49Q16.90-26.11 17.98-21.50Q19.07-16.90 21.57-13.50Q24.06-10.11 28.10-8.26Q32.13-6.40 38.14-6.40L38.14-6.40Q42.62-6.40 46.14-7.68Q49.66-8.96 52.99-12.03L52.99-12.03Q57.60-16.51 58.94-21.70Q60.29-26.88 60.29-33.02L60.29-33.02L60.29-70.02L69.25-70.02L69.25 0Z"/>,<path id="g-118" d="M69.89-70.02L40.32 0L30.46 0L0.90-70.02L10.50-70.02L35.20-11.14L60.29-70.02L69.89-70.02Z"/>,<path id="g-119" d="M104.96-70.02L78.21 0L68.10 0L53.25-46.59L52.99-46.59L38.40 0L28.29 0L1.66-70.02L11.01-70.02L33.02-11.39L33.28-11.39L49.28-61.57L57.09-61.57L73.22-11.39L73.47-11.39L95.74-70.02L104.96-70.02Z"/>,<path id="g-120" d="M59.90 0L49.28 0L30.72-28.03L12.16 0L1.54 0L25.47-35.58L1.54-70.02L12.29-70.02L30.72-43.01L49.02-70.02L59.90-70.02L35.97-35.58L59.90 0Z"/>,<path id="g-121" d="M66.94-70.02L26.37 24.58L17.02 24.58L29.18-2.30L1.92-70.02L11.39-70.02L33.66-14.21L57.47-70.02L66.94-70.02Z"/>,<path id="g-122" d="M53.12 0L1.28 0L1.28-7.81L40.06-61.95L2.56-61.95L2.56-70.02L50.82-70.02L50.82-61.95L12.42-8.06L53.12-8.06L53.12 0Z"/>,<path id="g-123" d="M42.37 24.19L33.92 24.19Q30.46 24.19 27.90 22.72Q25.34 21.25 23.68 18.88Q22.02 16.51 21.18 13.50Q20.35 10.50 20.35 7.42L20.35 7.42L20.35-15.87Q20.35-18.43 19.65-21.06Q18.94-23.68 17.54-25.86Q16.13-28.03 14.02-29.50Q11.90-30.98 8.96-31.10L8.96-31.10L8.96-39.30Q11.78-39.42 13.89-40.90Q16-42.37 17.47-44.61Q18.94-46.85 19.65-49.47Q20.35-52.10 20.35-54.66L20.35-54.66L20.35-77.95Q20.35-81.02 21.18-84.03Q22.02-87.04 23.68-89.41Q25.34-91.78 27.90-93.25Q30.46-94.72 33.92-94.72L33.92-94.72L42.37-94.72L42.37-87.04L35.97-87.04Q33.92-87.04 32.70-85.89Q31.49-84.74 30.85-83.07Q30.21-81.41 30.02-79.49Q29.82-77.57 29.82-76.03L29.82-76.03L29.82-52.61Q29.82-49.92 29.12-47.23Q28.42-44.54 27.01-42.11Q25.60-39.68 23.55-37.95Q21.50-36.22 18.69-35.46L18.69-35.46L18.69-35.07Q20.99-34.69 23.17-33.15L23.17-33.15Q26.88-30.59 28.35-26.43Q29.82-22.27 29.82-17.92L29.82-17.92L29.82 5.50Q29.82 7.04 30.02 8.96Q30.21 10.88 30.85 12.54Q31.49 14.21 32.70 15.36Q33.92 16.51 35.97 16.51L35.97 16.51L42.37 16.51L42.37 24.19Z"/>,<path id="g-124" d="M47.74 28.42L38.27 28.42L38.27-99.58L47.74-99.58L47.74 28.42Z"/>,<path id="g-125" d="M35.97-31.10L35.97-31.10Q33.02-30.98 30.91-29.50Q28.80-28.03 27.39-25.86Q25.98-23.68 25.28-21.06Q24.58-18.43 24.58-15.87L24.58-15.87L24.58 7.42Q24.58 10.50 23.74 13.50Q22.91 16.51 21.25 18.88Q19.58 21.25 17.02 22.72Q14.46 24.19 11.01 24.19L11.01 24.19L2.56 24.19L2.56 16.51L8.96 16.51Q11.01 16.51 12.22 15.36Q13.44 14.21 14.08 12.54Q14.72 10.88 14.91 8.96Q15.10 7.04 15.10 5.50L15.10 5.50L15.10-17.92Q15.10-22.27 16.58-26.43Q18.05-30.59 21.76-33.15L21.76-33.15Q23.94-34.69 26.24-35.07L26.24-35.07L26.24-35.46Q23.42-36.22 21.38-37.95Q19.33-39.68 17.92-42.11Q16.51-44.54 15.81-47.23Q15.10-49.92 15.10-52.61L15.10-52.61L15.10-76.03Q15.10-77.57 14.91-79.49Q14.72-81.41 14.08-83.07Q13.44-84.74 12.22-85.89Q11.01-87.04 8.96-87.04L8.96-87.04L2.56-87.04L2.56-94.72L11.01-94.72Q14.46-94.72 17.02-93.25Q19.58-91.78 21.25-89.41Q22.91-87.04 23.74-84.03Q24.58-81.02 24.58-77.95L24.58-77.95L24.58-54.66Q24.58-52.10 25.28-49.47Q25.98-46.85 27.46-44.61Q28.93-42.37 31.04-40.90Q33.15-39.42 35.97-39.30L35.97-39.30L35.97-31.10Z"/>,<path id="g-126" d="M68.35-34.43L68.35-34.43Q66.82-32.26 65.22-30.27Q63.62-28.29 61.70-26.75Q59.78-25.22 57.47-24.32Q55.17-23.42 52.35-23.42L52.35-23.42Q48.51-23.42 45.12-24.83Q41.73-26.24 38.46-27.97Q35.20-29.70 31.81-31.17Q28.42-32.64 24.58-32.64L24.58-32.64Q22.40-32.64 20.80-31.74Q19.20-30.85 17.86-29.44Q16.51-28.03 15.55-26.30Q14.59-24.58 13.82-22.91L13.82-22.91L9.22-29.31Q11.78-34.18 15.62-37.25Q19.46-40.32 25.22-40.32L25.22-40.32Q28.93-40.32 32.83-38.85Q36.74-37.38 40.38-35.65Q44.03-33.92 47.17-32.51Q50.30-31.10 52.48-31.10L52.48-31.10Q54.40-31.10 56.06-32.06Q57.73-33.02 59.14-34.50Q60.54-35.97 61.63-37.70Q62.72-39.42 63.74-40.83L63.74-40.83L68.35-34.43Z"/>,<path id="g-13" d=""/>,<path id="g-160" d=""/>,<path id="g-161" d="M23.55-54.02L14.08-54.02L14.08-70.14L23.55-70.14L23.55-54.02ZM23.55 24.58L14.08 24.58L14.08-45.44L23.55-45.44L23.55 24.58Z"/>,<path id="g-162" d="M65.28-59.26L54.91-59.26Q48.90-70.02 36.48-70.02L36.48-70.02Q32.26-70.02 28.42-68.35Q24.58-66.69 21.76-63.81Q18.94-60.93 17.28-57.09Q15.62-53.25 15.62-49.02L15.62-49.02Q15.62-44.80 17.28-40.96Q18.94-37.12 21.76-34.24Q24.58-31.36 28.42-29.70Q32.26-28.03 36.48-28.03L36.48-28.03Q42.11-28.03 46.53-30.21Q50.94-32.38 53.89-37.25L53.89-37.25L64.51-37.25Q61.44-29.95 55.10-25.41Q48.77-20.86 40.96-19.84L40.96-19.84L40.96-7.94L31.49-7.94L31.49-19.97Q25.98-20.74 21.38-23.30Q16.77-25.86 13.38-29.70Q9.98-33.54 8.06-38.46Q6.14-43.39 6.14-49.02L6.14-49.02Q6.14-54.53 8.06-59.52Q9.98-64.51 13.38-68.35Q16.77-72.19 21.38-74.75Q25.98-77.31 31.49-78.08L31.49-78.08L31.49-90.50L40.96-90.50L40.96-78.21Q49.28-77.18 55.81-72.13Q62.34-67.07 65.28-59.26L65.28-59.26Z"/>,<path id="g-163" d="M70.66-27.14L70.66-27.14Q70.66-21.50 68.48-16.38L68.48-16.38Q66.56-11.78 63.42-8.64Q60.29-5.50 56.32-3.58Q52.35-1.66 47.87-0.83Q43.39 0 38.66 0L38.66 0L3.71 0L3.71-8.06L22.66-8.06Q24.83-11.39 25.98-15.17Q27.14-18.94 27.14-22.91L27.14-22.91Q27.14-26.75 25.98-29.70Q24.83-32.64 22.91-35.07Q20.99-37.50 18.69-39.74Q16.38-41.98 14.08-44.67L14.08-44.67L0.51-44.67L0.51-52.74L8.06-52.74Q6.66-55.94 5.95-58.88Q5.25-61.82 5.25-65.28L5.25-65.28Q5.25-71.81 7.49-77.44Q9.73-83.07 13.70-87.30Q17.66-91.52 23.17-93.95Q28.67-96.38 35.33-96.38L35.33-96.38Q41.22-96.38 46.46-94.34Q51.71-92.29 55.74-88.70Q59.78-85.12 62.40-80.13Q65.02-75.14 65.66-69.25L65.66-69.25L56.45-69.25Q55.81-73.22 54.02-76.74Q52.22-80.26 49.47-82.82Q46.72-85.38 43.14-86.85Q39.55-88.32 35.33-88.32L35.33-88.32Q30.46-88.32 26.62-86.46Q22.78-84.61 20.16-81.41Q17.54-78.21 16.13-74.05Q14.72-69.89 14.72-65.28L14.72-65.28Q14.72-61.31 15.49-58.62Q16.26-55.94 18.43-52.74L18.43-52.74L54.91-52.74L54.91-44.67L26.11-44.67L26.11-44.42Q30.85-40.32 33.73-34.88Q36.61-29.44 36.61-23.04L36.61-23.04Q36.61-18.82 35.46-15.36Q34.30-11.90 32.77-8.06L32.77-8.06L38.27-8.06Q43.01-8.06 47.17-9.15Q51.33-10.24 54.46-12.61Q57.60-14.98 59.39-18.75Q61.18-22.53 61.18-27.78L61.18-27.78Q61.18-29.44 60.80-31.04Q60.42-32.64 60.03-34.30L60.03-34.30L69.50-34.30Q70.14-32.51 70.40-30.78Q70.66-29.06 70.66-27.14Z"/>,<path id="g-164" d="M70.14-15.87L64.90-10.62L54.91-20.61Q50.94-17.66 46.40-16Q41.86-14.34 36.86-14.34L36.86-14.34Q32-14.34 27.33-16Q22.66-17.66 18.82-20.61L18.82-20.61L8.70-10.62L3.46-15.87L13.70-25.98Q7.30-33.92 7.30-43.78L7.30-43.78Q7.30-48.64 8.90-53.31Q10.50-57.98 13.70-61.70L13.70-61.70L3.33-71.94L8.58-77.18L18.94-66.82Q26.88-73.22 36.86-73.22L36.86-73.22Q41.73-73.22 46.34-71.55Q50.94-69.89 54.66-66.94L54.66-66.94L64.90-77.18L70.14-71.94L60.03-61.70Q63.10-57.86 64.77-53.31Q66.43-48.77 66.43-43.78L66.43-43.78Q66.43-38.91 64.70-34.30Q62.98-29.70 59.90-25.98L59.90-25.98L70.14-15.87ZM57.22-43.78L57.22-43.78Q57.22-48 55.62-51.65Q54.02-55.30 51.20-58.11Q48.38-60.93 44.74-62.53Q41.09-64.13 36.86-64.13L36.86-64.13Q32.64-64.13 28.93-62.53Q25.22-60.93 22.40-58.11Q19.58-55.30 17.98-51.58Q16.38-47.87 16.38-43.65L16.38-43.65Q16.38-39.55 18.05-35.90Q19.71-32.26 22.53-29.50Q25.34-26.75 29.06-25.15Q32.77-23.55 36.86-23.55L36.86-23.55Q40.96-23.55 44.67-25.15Q48.38-26.75 51.14-29.50Q53.89-32.26 55.55-35.97Q57.22-39.68 57.22-43.78Z"/>,<path id="g-165" d="M70.40-94.72L47.23-55.94L66.69-55.94L66.69-47.87L42.37-47.87L40.19-44.54L40.19-37.12L66.69-37.12L66.69-28.93L40.19-28.93L40.19 0L30.72 0L30.72-29.06L4.22-29.06L4.22-37.12L30.72-37.12L30.72-44.54L28.54-47.87L4.22-47.87L4.22-55.94L23.68-55.94L0.51-94.72L10.75-94.72L35.58-53.12L60.16-94.72L70.40-94.72Z"/>,<path id="g-167" d="M67.71-35.97L67.71-35.97Q67.71-33.41 66.82-30.91Q65.92-28.42 64.51-26.11Q63.10-23.81 61.25-21.89Q59.39-19.97 57.34-18.69L57.34-18.69Q61.06-15.62 62.53-11.90Q64-8.19 64-3.46L64-3.46Q64 1.41 61.95 5.38Q59.90 9.34 56.51 12.16Q53.12 14.98 48.83 16.51Q44.54 18.05 39.94 18.05L39.94 18.05Q34.18 18.05 29.44 16.06Q24.70 14.08 21.38 10.56Q18.05 7.04 16.06 2.24Q14.08-2.56 13.95-8.19L13.95-8.19L23.42-8.19Q23.68-4.48 24.77-1.22Q25.86 2.05 27.90 4.42Q29.95 6.78 32.96 8.13Q35.97 9.47 39.94 9.47L39.94 9.47Q42.75 9.47 45.38 8.58Q48 7.68 50.05 6.02Q52.10 4.35 53.31 1.92Q54.53-0.51 54.53-3.46L54.53-3.46Q54.53-6.40 53.63-8.51Q52.74-10.62 51.20-12.22Q49.66-13.82 47.55-15.04Q45.44-16.26 43.01-17.54L43.01-17.54L23.17-27.78Q17.92-30.46 14.40-34.30Q10.88-38.14 10.88-44.42L10.88-44.42Q10.88-50.69 14.21-54.98Q17.54-59.26 22.27-62.85L22.27-62.85Q19.71-65.41 18.43-68.80Q17.15-72.19 17.15-75.78L17.15-75.78Q17.15-80.51 19.01-84.35Q20.86-88.19 24.06-90.88Q27.26-93.57 31.36-94.98Q35.46-96.38 39.94-96.38L39.94-96.38Q44.29-96.38 48.26-95.23Q52.22-94.08 55.23-91.78Q58.24-89.47 59.97-85.89Q61.70-82.30 61.70-77.57L61.70-77.57L52.22-77.57Q52.22-80.26 51.20-82.18Q50.18-84.10 48.45-85.31Q46.72-86.53 44.54-87.17Q42.37-87.81 39.94-87.81L39.94-87.81Q34.18-87.81 30.40-84.61Q26.62-81.41 26.62-75.39L26.62-75.39Q26.62-71.42 28.54-68.93Q30.46-66.43 33.92-64.64L33.92-64.64Q38.66-62.21 43.33-59.90Q48-57.60 52.74-55.30L52.74-55.30Q55.94-53.76 58.69-51.97Q61.44-50.18 63.42-47.94Q65.41-45.70 66.56-42.82Q67.71-39.94 67.71-35.97ZM58.24-35.84L58.24-35.84Q58.24-39.68 55.94-42.43Q53.63-45.18 50.30-46.85L50.30-46.85L27.90-57.98Q24.45-55.94 22.40-52.42Q20.35-48.90 20.35-44.93L20.35-44.93Q20.35-41.47 22.21-39.04Q24.06-36.61 27.01-35.20L27.01-35.20L51.07-23.17Q54.40-25.09 56.32-28.61Q58.24-32.13 58.24-35.84Z"/>,<path id="g-171" d="M49.41-14.59L41.86-10.37L27.39-36.10L41.86-61.57L49.41-57.60L37.25-36.10L49.41-14.59ZM27.14-14.59L19.58-10.37L5.12-36.10L19.58-61.57L27.14-57.60L15.10-36.10L27.14-14.59Z"/>,<path id="g-172" d="M71.04-13.95L62.34-13.95L62.34-40.96L6.53-40.96L6.53-49.66L71.04-49.66L71.04-13.95Z"/>,<path id="g-173" d="M38.66-31.74L3.84-31.74L3.84-40.32L38.66-40.32L38.66-31.74Z"/>,<path id="g-177" d="M71.04-34.82L43.14-34.82L43.14-12.03L34.43-12.03L34.43-34.82L6.53-34.82L6.53-43.52L34.43-43.52L34.43-66.30L43.14-66.30L43.14-43.52L71.04-43.52L71.04-34.82ZM71.04 3.07L6.53 3.07L6.53-5.63L71.04-5.63L71.04 3.07Z"/>,<path id="g-178" d="M41.09-93.82L41.09-93.82Q41.09-90.75 40.19-88.32Q39.30-85.89 37.89-83.78Q36.48-81.66 34.56-79.74Q32.64-77.82 30.59-75.90L30.59-75.90L14.08-60.80L40.96-60.80L40.96-53.89L2.82-53.89L2.82-60.16L23.04-78.98Q24.58-80.38 26.43-82.05Q28.29-83.71 29.82-85.57Q31.36-87.42 32.38-89.54Q33.41-91.65 33.41-93.95L33.41-93.95Q33.41-96.26 32.51-98.18Q31.62-100.10 30.08-101.57Q28.54-103.04 26.50-103.87Q24.45-104.70 22.27-104.70L22.27-104.70Q19.20-104.70 17.02-103.62Q14.85-102.53 13.50-100.67Q12.16-98.82 11.58-96.32Q11.01-93.82 11.01-91.01L11.01-91.01L3.33-91.01L3.33-91.65Q3.33-100.61 8.45-106.11Q13.57-111.62 22.53-111.62L22.53-111.62Q26.24-111.62 29.63-110.27Q33.02-108.93 35.58-106.56Q38.14-104.19 39.62-100.93Q41.09-97.66 41.09-93.82Z"/>,<path id="g-179" d="M41.47-71.68L41.47-71.68Q41.47-67.71 40-64.26Q38.53-60.80 35.97-58.30Q33.41-55.81 29.95-54.40Q26.50-52.99 22.53-52.99L22.53-52.99Q13.57-52.99 8.45-58.56Q3.33-64.13 3.07-72.96L3.07-72.96L10.75-72.96Q10.75-67.20 13.95-63.55Q17.15-59.90 22.53-59.90L22.53-59.90Q27.78-59.90 30.78-63.17Q33.79-66.43 33.79-71.55L33.79-71.55Q33.79-75.39 31.17-78.27Q28.54-81.15 24.83-82.05L24.83-82.05Q23.04-82.43 21.18-82.50Q19.33-82.56 17.54-82.56L17.54-82.56L17.54-89.47L20.61-89.47Q24.06-89.47 27.07-91.20Q30.08-92.93 30.08-96.90L30.08-96.90Q30.08-100.99 27.58-102.85Q25.09-104.70 22.14-104.70L22.14-104.70Q20.10-104.70 18.69-103.87Q17.28-103.04 16.38-101.63Q15.49-100.22 15.04-98.50Q14.59-96.77 14.59-95.10L14.59-95.10L6.91-95.10Q7.04-102.14 11.07-106.88Q15.10-111.62 22.40-111.62L22.40-111.62Q29.18-111.62 33.47-107.39Q37.76-103.17 37.76-96.64L37.76-96.64Q37.76-93.06 36.42-90.82Q35.07-88.58 32.51-86.40L32.51-86.40Q36.61-83.84 39.04-80.19Q41.47-76.54 41.47-71.68Z"/>,<path id="g-181" d="M69.50 0L61.06 0L61.06-10.88L60.80-10.88Q57.73-4.35 51.52-1.34Q45.31 1.66 38.40 1.66L38.40 1.66Q32.13 1.66 26.62-0.13Q21.12-1.92 17.15-7.17L17.15-7.17L17.15 24.58L8.19 24.58L8.19-70.02L17.15-70.02L17.15-31.49Q17.15-26.11 18.24-21.50Q19.33-16.90 21.82-13.57Q24.32-10.24 28.35-8.32Q32.38-6.40 38.40-6.40L38.40-6.40Q42.88-6.40 46.46-7.68Q50.05-8.96 53.25-12.03L53.25-12.03Q57.86-16.51 59.20-21.63Q60.54-26.75 60.54-33.02L60.54-33.02L60.54-70.02L69.50-70.02L69.50 0Z"/>,<path id="g-182" d="M70.53-87.55L62.34-87.55L62.34 14.08L54.40 14.08L54.40-87.55L39.04-87.55L39.04 14.08L31.10 14.08L31.10-44.54L28.93-44.54Q23.42-44.54 18.62-46.27Q13.82-48 10.30-51.26Q6.78-54.53 4.80-59.14Q2.82-63.74 2.82-69.38L2.82-69.38Q2.82-75.78 5.70-81.54Q8.58-87.30 14.08-90.62L14.08-90.62Q16-91.78 18.50-92.61Q20.99-93.44 23.68-93.89Q26.37-94.34 29.06-94.53Q31.74-94.72 33.92-94.72L33.92-94.72L70.53-94.72L70.53-87.55Z"/>,<path id="g-183" d="M22.53-24.32L13.06-24.32L13.06-40.45L22.53-40.45L22.53-24.32Z"/>,<path id="g-185" d="M19.07-53.89L11.39-53.89L11.39-103.81L1.79-103.81L1.79-110.72L19.07-110.72L19.07-53.89Z"/>,<path id="g-187" d="M49.28-36.10L34.69-10.37L27.26-14.59L39.30-36.10L27.26-57.60L34.69-61.57L49.28-36.10ZM27.01-36.10L12.42-10.37L4.99-14.59L17.02-36.10L4.99-57.60L12.42-61.57L27.01-36.10Z"/>,<path id="g-188" d="M19.07-37.89L11.39-37.89L11.39-87.81L1.79-87.81L1.79-94.72L19.07-94.72L19.07-37.89ZM59.52-94.72L16.90 0L9.22 0L51.84-94.72L59.52-94.72ZM77.18-9.98L71.94-9.98L71.94 0L64.38 0L64.38-9.98L35.58-9.98L35.58-16.26L63.62-56.83L71.94-56.83L71.94-16.90L77.18-16.90L77.18-9.98ZM64.38-16.90L64.38-45.31L64.13-45.31L45.06-16.90L64.38-16.90Z"/>,<path id="g-189" d="M19.07-37.89L11.39-37.89L11.39-87.81L1.79-87.81L1.79-94.72L19.07-94.72L19.07-37.89ZM59.52-94.72L16.90 0L9.22 0L51.84-94.72L59.52-94.72ZM83.58-39.94L83.58-39.94Q83.58-36.86 82.69-34.43Q81.79-32 80.38-29.89Q78.98-27.78 77.06-25.86Q75.14-23.94 73.09-22.02L73.09-22.02L56.58-6.91L83.46-6.91L83.46 0L45.31 0L45.31-6.27L65.54-25.09Q67.07-26.50 68.93-28.16Q70.78-29.82 72.32-31.68Q73.86-33.54 74.88-35.65Q75.90-37.76 75.90-40.06L75.90-40.06Q75.90-42.37 75.01-44.29Q74.11-46.21 72.58-47.68Q71.04-49.15 68.99-49.98Q66.94-50.82 64.77-50.82L64.77-50.82Q61.70-50.82 59.52-49.73Q57.34-48.64 56-46.78Q54.66-44.93 54.08-42.43Q53.50-39.94 53.50-37.12L53.50-37.12L45.82-37.12L45.82-37.76Q45.82-46.72 50.94-52.22Q56.06-57.73 65.02-57.73L65.02-57.73Q68.74-57.73 72.13-56.38Q75.52-55.04 78.08-52.67Q80.64-50.30 82.11-47.04Q83.58-43.78 83.58-39.94Z"/>,<path id="g-190" d="M41.47-55.68L41.47-55.68Q41.47-51.71 40-48.26Q38.53-44.80 35.97-42.30Q33.41-39.81 29.95-38.40Q26.50-36.99 22.53-36.99L22.53-36.99Q13.57-36.99 8.45-42.56Q3.33-48.13 3.07-56.96L3.07-56.96L10.75-56.96Q10.75-51.20 13.95-47.55Q17.15-43.90 22.53-43.90L22.53-43.90Q27.78-43.90 30.78-47.17Q33.79-50.43 33.79-55.55L33.79-55.55Q33.79-59.39 31.17-62.27Q28.54-65.15 24.83-66.05L24.83-66.05Q23.04-66.43 21.18-66.50Q19.33-66.56 17.54-66.56L17.54-66.56L17.54-73.47L20.61-73.47Q24.06-73.47 27.07-75.20Q30.08-76.93 30.08-80.90L30.08-80.90Q30.08-84.99 27.58-86.85Q25.09-88.70 22.14-88.70L22.14-88.70Q20.10-88.70 18.69-87.87Q17.28-87.04 16.38-85.63Q15.49-84.22 15.04-82.50Q14.59-80.77 14.59-79.10L14.59-79.10L6.91-79.10Q7.04-86.14 11.07-90.88Q15.10-95.62 22.40-95.62L22.40-95.62Q29.18-95.62 33.47-91.39Q37.76-87.17 37.76-80.64L37.76-80.64Q37.76-77.06 36.42-74.82Q35.07-72.58 32.51-70.40L32.51-70.40Q36.61-67.84 39.04-64.19Q41.47-60.54 41.47-55.68ZM78.59-94.72L35.97 0L28.29 0L70.91-94.72L78.59-94.72ZM96.26-9.98L91.01-9.98L91.01 0L83.46 0L83.46-9.98L54.66-9.98L54.66-16.26L82.69-56.83L91.01-56.83L91.01-16.90L96.26-16.90L96.26-9.98ZM83.46-16.90L83.46-45.31L83.20-45.31L64.13-16.90L83.46-16.90Z"/>,<path id="g-191" d="M41.98-54.02L32.51-54.02L32.51-70.14L41.98-70.14L41.98-54.02ZM67.46-4.99L67.46-2.56Q67.46 3.58 64.96 8.83Q62.46 14.08 58.37 17.92Q54.27 21.76 48.77 24Q43.26 26.24 37.38 26.24L37.38 26.24Q31.23 26.24 25.98 24.13Q20.74 22.02 16.77 18.18Q12.80 14.34 10.56 9.15Q8.32 3.97 8.32-2.18L8.32-2.18Q8.32-7.17 10.05-10.94Q11.78-14.72 14.40-17.86Q17.02-20.99 20.03-23.74Q23.04-26.50 25.73-29.63Q28.42-32.77 30.34-36.54Q32.26-40.32 32.51-45.44L32.51-45.44L41.98-45.44L41.98-44.93Q41.98-39.17 40.19-34.88Q38.40-30.59 35.71-27.14Q33.02-23.68 29.89-20.80Q26.75-17.92 24.06-15.04Q21.38-12.16 19.58-9.02Q17.79-5.89 17.79-1.92L17.79-1.92Q17.79 2.18 19.46 5.63Q21.12 9.09 23.87 11.71Q26.62 14.34 30.21 15.81Q33.79 17.28 37.76 17.28L37.76 17.28Q43.14 17.28 47.62 14.85Q52.10 12.42 55.04 7.94L55.04 7.94Q57.22 4.61 57.60 1.66Q57.98-1.28 57.98-4.99L57.98-4.99L67.46-4.99Z"/>,<path id="g-215" d="M68.22-9.22L62.08-3.07L38.91-26.37L15.62-3.07L9.47-9.22L32.77-32.51L9.60-55.55L15.74-61.70L38.91-38.66L61.95-61.70L68.10-55.55L45.06-32.51L68.22-9.22Z"/>,<path id="g-247" d="M43.52-50.30L34.05-50.30L34.05-66.43L43.52-66.43L43.52-50.30ZM71.04-28.03L6.53-28.03L6.53-36.74L71.04-36.74L71.04-28.03ZM43.52 1.66L34.05 1.66L34.05-14.46L43.52-14.46L43.52 1.66Z"/>,<path id="g-32" d=""/>,<path id="g-33" d="M23.68-24.70L14.21-24.70L14.21-94.72L23.68-94.72L23.68-24.70ZM23.68 0L14.21 0L14.21-16.13L23.68-16.13L23.68 0Z"/>,<path id="g-34" d="M34.94-94.72L33.41-56.83L26.11-56.83L24.58-94.72L34.94-94.72ZM14.98-94.72L13.44-56.83L6.14-56.83L4.61-94.72L14.98-94.72Z"/>,<path id="g-35" d="M66.69-59.78L54.78-59.78L51.33-34.94L63.10-34.94L63.10-26.37L50.18-26.37L46.46 0L37.63 0L41.34-26.37L25.47-26.37L21.76 0L12.93 0L16.64-26.37L4.22-26.37L4.22-34.94L17.92-34.94L21.25-59.65L7.55-59.65L7.55-68.35L22.53-68.35L26.24-94.72L35.07-94.72L31.36-68.35L47.23-68.35L50.94-94.72L59.78-94.72L56.06-68.35L66.69-68.35L66.69-59.78ZM45.95-59.78L30.21-59.78L26.75-34.94L42.50-34.94L45.95-59.78Z"/>,<path id="g-36" d="M62.08-28.54L62.08-28.54Q62.08-23.81 60.48-19.52Q58.88-15.23 56-11.84Q53.12-8.45 49.09-6.34Q45.06-4.22 40.32-3.71L40.32-3.71L40.32 8.96L30.85 8.96L30.85-3.71Q26.37-4.22 22.40-6.27Q18.43-8.32 15.49-11.52Q12.54-14.72 10.75-18.82Q8.96-22.91 8.96-27.39L8.96-27.39L8.96-29.18L18.43-29.18Q18.43-20.86 23.10-16.19Q27.78-11.52 35.97-11.52L35.97-11.52Q43.78-11.52 48.19-16.19Q52.61-20.86 52.61-28.54L52.61-28.54Q52.61-32.90 51.20-35.90Q49.79-38.91 47.30-40.96Q44.80-43.01 41.54-44.29Q38.27-45.57 34.69-46.46L34.69-46.46Q29.70-47.74 25.54-49.41Q21.38-51.07 18.30-53.76Q15.23-56.45 13.44-60.35Q11.65-64.26 11.65-69.89L11.65-69.89L11.65-70.40Q11.65-74.75 12.99-78.53Q14.34-82.30 16.90-85.31Q19.46-88.32 22.98-90.30Q26.50-92.29 30.85-93.06L30.85-93.06L30.85-103.81L40.32-103.81L40.32-93.44Q50.05-92.03 55.42-85.63Q60.80-79.23 61.18-69.63L61.18-69.63L51.71-69.63Q51.71-76.93 47.36-81.02Q43.01-85.12 35.71-85.12L35.71-85.12Q28.93-85.12 25.02-81.15Q21.12-77.18 21.12-70.40L21.12-70.40Q21.12-66.30 22.46-63.74Q23.81-61.18 26.11-59.46Q28.42-57.73 31.42-56.70Q34.43-55.68 37.76-54.78L37.76-54.78Q42.88-53.38 47.30-51.33Q51.71-49.28 54.98-46.21Q58.24-43.14 60.16-38.78Q62.08-34.43 62.08-28.54Z"/>,<path id="g-37" d="M49.02-73.22L49.02-73.22Q49.02-68.48 47.17-64.32Q45.31-60.16 42.18-57.02Q39.04-53.89 34.82-52.10Q30.59-50.30 25.86-50.30L25.86-50.30Q21.12-50.30 16.90-52.10Q12.67-53.89 9.54-57.02Q6.40-60.16 4.54-64.32Q2.69-68.48 2.69-73.22L2.69-73.22Q2.69-77.95 4.54-82.11Q6.40-86.27 9.54-89.41Q12.67-92.54 16.90-94.34Q21.12-96.13 25.86-96.13L25.86-96.13Q30.59-96.13 34.82-94.34Q39.04-92.54 42.18-89.41Q45.31-86.27 47.17-82.11Q49.02-77.95 49.02-73.22ZM80.64-94.72L26.37 0L17.66 0L71.94-94.72L80.64-94.72ZM96.38-21.25L96.38-21.25Q96.38-16.51 94.53-12.35Q92.67-8.19 89.54-5.06Q86.40-1.92 82.18-0.13Q77.95 1.66 73.22 1.66L73.22 1.66Q68.48 1.66 64.26-0.13Q60.03-1.92 56.90-5.06Q53.76-8.19 51.90-12.35Q50.05-16.51 50.05-21.25L50.05-21.25Q50.05-25.98 51.90-30.14Q53.76-34.30 56.90-37.44Q60.03-40.58 64.26-42.37Q68.48-44.16 73.22-44.16L73.22-44.16Q77.95-44.16 82.18-42.37Q86.40-40.58 89.54-37.44Q92.67-34.30 94.53-30.14Q96.38-25.98 96.38-21.25ZM41.34-73.22L41.34-73.22Q41.34-76.42 40.13-79.30Q38.91-82.18 36.86-84.35Q34.82-86.53 31.94-87.74Q29.06-88.96 25.86-88.96L25.86-88.96Q22.53-88.96 19.71-87.74Q16.90-86.53 14.85-84.35Q12.80-82.18 11.58-79.30Q10.37-76.42 10.37-73.22L10.37-73.22Q10.37-69.89 11.58-67.07Q12.80-64.26 14.85-62.08Q16.90-59.90 19.71-58.69Q22.53-57.47 25.86-57.47L25.86-57.47Q29.06-57.47 31.94-58.69Q34.82-59.90 36.86-62.08Q38.91-64.26 40.13-67.07Q41.34-69.89 41.34-73.22ZM88.70-21.25L88.70-21.25Q88.70-24.45 87.49-27.33Q86.27-30.21 84.22-32.38Q82.18-34.56 79.30-35.78Q76.42-36.99 73.22-36.99L73.22-36.99Q69.89-36.99 67.07-35.78Q64.26-34.56 62.21-32.38Q60.16-30.21 58.94-27.33Q57.73-24.45 57.73-21.25L57.73-21.25Q57.73-17.92 58.94-15.10Q60.16-12.29 62.21-10.11Q64.26-7.94 67.07-6.72Q69.89-5.50 73.22-5.50L73.22-5.50Q76.42-5.50 79.30-6.72Q82.18-7.94 84.22-10.11Q86.27-12.29 87.49-15.10Q88.70-17.92 88.70-21.25Z"/>,<path id="g-38" d="M94.21-4.99L87.42 1.54L65.79-19.58Q63.49-15.10 60.74-11.26Q57.98-7.42 54.46-4.61Q50.94-1.79 46.66-0.13Q42.37 1.54 36.99 1.54L36.99 1.54Q30.98 1.54 25.60-0.70Q20.22-2.94 16.13-6.85Q12.03-10.75 9.60-16Q7.17-21.25 7.17-27.39L7.17-27.39Q7.17-32.77 8.90-37.06Q10.62-41.34 13.57-44.80Q16.51-48.26 20.54-50.88Q24.58-53.50 29.06-55.55L29.06-55.55Q24.70-59.78 21.57-64.38Q18.43-68.99 18.43-75.39L18.43-75.39Q18.43-80 20.35-83.84Q22.27-87.68 25.41-90.50Q28.54-93.31 32.64-94.85Q36.74-96.38 41.22-96.38L41.22-96.38Q45.70-96.38 49.79-94.66Q53.89-92.93 57.02-89.92Q60.16-86.91 62.02-82.88Q63.87-78.85 63.87-74.24L63.87-74.24Q63.87-70.27 62.34-66.88Q60.80-63.49 58.18-60.74Q55.55-57.98 52.22-55.94Q48.90-53.89 45.44-52.74L45.44-52.74L63.36-35.07L77.18-61.70L87.81-61.70L70.27-28.29L94.21-4.99ZM54.40-75.14L54.40-75.14Q54.40-77.95 53.31-80.19Q52.22-82.43 50.37-84.03Q48.51-85.63 46.14-86.53Q43.78-87.42 41.09-87.42L41.09-87.42Q38.53-87.42 36.16-86.53Q33.79-85.63 32-84.10Q30.21-82.56 29.06-80.38Q27.90-78.21 27.90-75.52L27.90-75.52Q27.90-73.09 28.93-70.78Q29.95-68.48 31.55-66.50Q33.15-64.51 35.01-62.72Q36.86-60.93 38.66-59.39L38.66-59.39Q41.47-60.42 44.29-61.70Q47.10-62.98 49.34-64.83Q51.58-66.69 52.99-69.18Q54.40-71.68 54.40-75.14ZM58.62-26.37L35.84-48.77Q32.26-47.49 28.80-45.44Q25.34-43.39 22.66-40.64Q19.97-37.89 18.30-34.43Q16.64-30.98 16.64-26.88L16.64-26.88Q16.64-22.91 18.24-19.39Q19.84-15.87 22.53-13.18Q25.22-10.50 28.74-8.96Q32.26-7.42 36.22-7.42L36.22-7.42Q40.58-7.42 43.97-9.09Q47.36-10.75 50.05-13.44Q52.74-16.13 54.78-19.52Q56.83-22.91 58.62-26.37L58.62-26.37Z"/>,<path id="g-39" d="M17.92-94.72L16.38-56.83L9.09-56.83L7.55-94.72L17.92-94.72Z"/>,<path id="g-40" d="M45.44 26.24L45.44 26.24Q40.96 24.83 36.99 22.27Q33.02 19.71 29.44 16.64L29.44 16.64Q23.94 11.78 19.58 5.82Q15.23-0.13 12.22-6.85Q9.22-13.57 7.62-20.80Q6.02-28.03 6.02-35.33L6.02-35.33Q6.02-42.62 7.62-49.86Q9.22-57.09 12.22-63.81Q15.23-70.53 19.58-76.48Q23.94-82.43 29.44-87.30L29.44-87.30Q33.02-90.37 36.99-92.93Q40.96-95.49 45.44-96.90L45.44-96.90L45.44-87.30Q38.91-83.33 33.41-77.63Q27.90-71.94 23.94-65.09Q19.97-58.24 17.73-50.62Q15.49-43.01 15.49-35.33L15.49-35.33Q15.49-27.39 17.66-19.78Q19.84-12.16 23.81-5.38Q27.78 1.41 33.28 7.17Q38.78 12.93 45.44 17.02L45.44 17.02L45.44 26.24Z"/>,<path id="g-41" d="M41.22-35.33L41.22-35.33Q41.22-28.03 39.62-20.80Q38.02-13.57 35.01-6.85Q32-0.13 27.65 5.82Q23.30 11.78 17.79 16.64L17.79 16.64Q14.21 19.71 10.24 22.27Q6.27 24.83 1.79 26.24L1.79 26.24L1.79 17.02Q8.45 12.93 13.95 7.17Q19.46 1.41 23.42-5.38Q27.39-12.16 29.57-19.78Q31.74-27.39 31.74-35.33L31.74-35.33Q31.74-43.01 29.50-50.62Q27.26-58.24 23.30-65.09Q19.33-71.94 13.82-77.63Q8.32-83.33 1.79-87.30L1.79-87.30L1.79-96.90Q6.27-95.49 10.24-92.93Q14.21-90.37 17.79-87.30L17.79-87.30Q23.30-82.43 27.65-76.48Q32-70.53 35.01-63.81Q38.02-57.09 39.62-49.86Q41.22-42.62 41.22-35.33Z"/>,<path id="g-42" d="M46.98-77.57L32.90-73.22L41.60-61.44L35.58-57.09L27.01-69.12L18.56-57.22L12.54-61.57L21.38-73.34L7.42-77.70L9.73-84.86L23.68-80L23.55-94.72L30.98-94.72L30.72-79.87L44.67-84.61L46.98-77.57Z"/>,<path id="g-43" d="M71.04-28.03L43.14-28.03L43.14 0L34.43 0L34.43-28.03L6.53-28.03L6.53-36.74L34.43-36.74L34.43-64.77L43.14-64.77L43.14-36.74L71.04-36.74L71.04-28.03Z"/>,<path id="g-44" d="M22.53-16.13L11.26 8.58L1.79 8.58L13.06-16.13L22.53-16.13Z"/>,<path id="g-45" d="M38.66-31.74L3.84-31.74L3.84-40.32L38.66-40.32L38.66-31.74Z"/>,<path id="g-46" d="M22.53 0L13.06 0L13.06-16.13L22.53-16.13L22.53 0Z"/>,<path id="g-47" d="M51.58-94.72L15.36 12.80L5.63 12.80L41.47-94.72L51.58-94.72Z"/>,<path id="g-48" d="M67.20-62.21L67.20-34.56Q67.20-29.18 66.18-23.49Q65.15-17.79 62.46-13.06L62.46-13.06Q58.11-5.76 51.01-2.05Q43.90 1.66 35.46 1.66L35.46 1.66Q27.01 1.66 19.90-2.05Q12.80-5.76 8.45-13.06L8.45-13.06Q5.76-17.79 4.74-23.49Q3.71-29.18 3.71-34.56L3.71-34.56L3.71-62.21Q3.71-66.69 4.48-71.17Q5.25-75.65 7.30-79.62L7.30-79.62Q9.34-83.58 12.35-86.72Q15.36-89.86 19.01-91.97Q22.66-94.08 26.82-95.23Q30.98-96.38 35.46-96.38L35.46-96.38Q44.29-96.38 51.90-91.97Q59.52-87.55 63.62-79.62L63.62-79.62Q65.66-75.65 66.43-71.17Q67.20-66.69 67.20-62.21L67.20-62.21ZM57.73-35.97L57.73-60.03Q57.73-62.08 57.47-64.51Q57.22-66.94 56.77-69.38Q56.32-71.81 55.55-74.05Q54.78-76.29 53.63-78.08L53.63-78.08Q50.82-82.56 45.76-85.18Q40.70-87.81 35.46-87.81L35.46-87.81Q30.21-87.81 25.15-85.18Q20.10-82.56 17.28-78.08L17.28-78.08Q16.13-76.29 15.36-74.05Q14.59-71.81 14.14-69.38Q13.70-66.94 13.44-64.51Q13.18-62.08 13.18-60.03L13.18-60.03L13.18-35.97Q13.18-33.79 13.31-31.23Q13.44-28.67 13.82-26.11Q14.21-23.55 14.91-21.18Q15.62-18.82 16.77-17.02L16.77-17.02Q19.84-11.90 24.70-9.41Q29.57-6.91 35.46-6.91L35.46-6.91Q41.34-6.91 46.21-9.41Q51.07-11.90 54.14-17.02L54.14-17.02Q55.30-18.82 56-21.18Q56.70-23.55 57.09-26.11Q57.47-28.67 57.60-31.23Q57.73-33.79 57.73-35.97L57.73-35.97Z"/>,<path id="g-49" d="M43.01 0L33.54 0L33.54-86.14L17.28-86.14L17.28-94.72L43.01-94.72L43.01 0Z"/>,<path id="g-50" d="M65.79-67.58L65.79-67.58Q65.79-62.72 64.32-58.62Q62.85-54.53 60.42-50.88Q57.98-47.23 54.85-43.97Q51.71-40.70 48.38-37.63L48.38-37.63L17.92-8.58L65.28-8.58L65.28 0L5.12 0L5.12-8.58L38.40-40.58Q41.22-43.26 44.35-46.27Q47.49-49.28 50.18-52.61Q52.86-55.94 54.59-59.71Q56.32-63.49 56.32-67.71L56.32-67.71Q56.32-71.94 54.66-75.58Q52.99-79.23 50.18-81.92Q47.36-84.61 43.65-86.21Q39.94-87.81 35.84-87.81L35.84-87.81Q30.72-87.81 26.88-85.89Q23.04-83.97 20.48-80.77Q17.92-77.57 16.64-73.22Q15.36-68.86 15.36-64.13L15.36-64.13L5.89-64.13L5.89-64.38Q5.89-74.50 10.24-82.43Q14.59-90.37 24.32-94.08L24.32-94.08Q30.08-96.38 36.35-96.38L36.35-96.38Q45.57-96.38 52.74-91.58Q59.90-86.78 63.49-78.34L63.49-78.34Q64.51-75.78 65.15-73.09Q65.79-70.40 65.79-67.58Z"/>,<path id="g-51" d="M64.77-29.18L64.77-29.18Q64.77-22.78 62.53-17.15Q60.29-11.52 56.32-7.36Q52.35-3.20 46.91-0.77Q41.47 1.66 34.94 1.66L34.94 1.66Q29.06 1.66 23.68-0.51L23.68-0.51Q13.95-4.22 9.34-11.97Q4.74-19.71 4.35-29.70L4.35-29.70L13.82-29.70Q14.08-26.11 14.72-23.10Q15.36-20.10 17.15-17.02L17.15-17.02Q20.10-12.16 24.70-9.54Q29.31-6.91 34.94-6.91L34.94-6.91Q39.68-6.91 43.46-8.58Q47.23-10.24 49.86-13.18Q52.48-16.13 53.89-20.10Q55.30-24.06 55.30-28.67L55.30-28.67Q55.30-32.26 54.08-35.52Q52.86-38.78 50.69-41.47Q48.51-44.16 45.57-46.08Q42.62-48 39.17-48.90L39.17-48.90Q36.48-49.54 33.66-49.60Q30.85-49.66 28.16-49.79L28.16-49.79L28.16-58.11Q28.93-58.11 29.76-58.05Q30.59-57.98 31.36-57.98L31.36-57.98Q34.82-57.98 38.02-58.88Q41.22-59.78 43.65-61.63Q46.08-63.49 47.55-66.24Q49.02-68.99 49.02-72.83L49.02-72.83Q49.02-76.03 47.94-78.78Q46.85-81.54 44.93-83.52Q43.01-85.50 40.26-86.66Q37.50-87.81 34.30-87.81L34.30-87.81Q30.85-87.81 28.16-86.40Q25.47-84.99 23.68-82.62Q21.89-80.26 20.99-77.25Q20.10-74.24 20.10-71.04L20.10-71.04L10.62-71.04Q10.75-76.29 12.48-80.90Q14.21-85.50 17.28-88.96Q20.35-92.42 24.70-94.40Q29.06-96.38 34.56-96.38L34.56-96.38Q39.68-96.38 44.10-94.53Q48.51-92.67 51.71-89.41Q54.91-86.14 56.70-81.66Q58.50-77.18 58.50-72.06L58.50-72.06Q58.50-65.92 55.87-61.89Q53.25-57.86 48.77-54.27L48.77-54.27Q55.94-50.56 60.35-43.97Q64.77-37.38 64.77-29.18Z"/>,<path id="g-52" d="M67.58-17.28L59.01-17.28L59.01 0L49.54 0L49.54-17.28L1.79-17.28L1.79-25.86L47.74-94.72L59.01-94.72L59.01-25.86L67.58-25.86L67.58-17.28ZM49.54-25.86L49.54-81.66L49.28-81.66L12.67-25.86L49.54-25.86Z"/>,<path id="g-53" d="M67.84-31.36L67.84-31.36Q67.84-24.58 65.34-18.62Q62.85-12.67 58.56-8.13Q54.27-3.58 48.38-0.96Q42.50 1.66 35.71 1.66L35.71 1.66Q30.21 1.66 24.70-0.38L24.70-0.38Q14.72-3.97 9.73-11.84Q4.74-19.71 3.33-29.82L3.33-29.82L12.80-29.82Q13.31-25.22 15.10-21.06Q16.90-16.90 19.84-13.76Q22.78-10.62 26.82-8.77Q30.85-6.91 35.71-6.91L35.71-6.91Q40.70-6.91 44.86-8.96Q49.02-11.01 52.03-14.40Q55.04-17.79 56.70-22.21Q58.37-26.62 58.37-31.36L58.37-31.36Q58.37-36.10 56.77-40.58Q55.17-45.06 52.22-48.51Q49.28-51.97 45.12-54.02Q40.96-56.06 35.84-56.06L35.84-56.06Q29.70-56.06 24.70-52.99Q19.71-49.92 16.13-45.31L16.13-45.31L8.70-48L17.28-94.72L59.90-94.72L59.90-86.14L24.83-86.14L20.10-60.03Q23.94-62.21 27.84-63.36Q31.74-64.51 36.22-64.51L36.22-64.51Q43.14-64.51 48.90-61.82Q54.66-59.14 58.88-54.66Q63.10-50.18 65.47-44.10Q67.84-38.02 67.84-31.36Z"/>,<path id="g-54" d="M67.84-31.49L67.84-31.49Q67.84-24.58 65.41-18.56Q62.98-12.54 58.62-8Q54.27-3.46 48.38-0.90Q42.50 1.66 35.46 1.66L35.46 1.66Q28.16 1.66 22.21-0.96Q16.26-3.58 12.03-8.06Q7.81-12.54 5.44-18.69Q3.07-24.83 3.07-32L3.07-32Q3.07-36.10 4.03-39.74Q4.99-43.39 6.59-46.72Q8.19-50.05 10.24-53.25Q12.29-56.45 14.46-59.78L14.46-59.78L38.02-94.59L48.77-94.59L26.88-62.46L27.14-62.34Q31.49-64.38 35.97-64.38L35.97-64.38Q42.88-64.38 48.70-61.82Q54.53-59.26 58.82-54.78Q63.10-50.30 65.47-44.29Q67.84-38.27 67.84-31.49ZM58.37-31.36L58.37-31.36Q58.37-36.22 56.70-40.64Q55.04-45.06 52.03-48.45Q49.02-51.84 44.80-53.82Q40.58-55.81 35.46-55.81L35.46-55.81Q30.34-55.81 26.11-53.76Q21.89-51.71 18.88-48.32Q15.87-44.93 14.21-40.45Q12.54-35.97 12.54-31.10L12.54-31.10Q12.54-26.24 14.27-21.89Q16-17.54 19.01-14.21Q22.02-10.88 26.24-8.90Q30.46-6.91 35.46-6.91L35.46-6.91Q40.58-6.91 44.80-8.90Q49.02-10.88 52.03-14.21Q55.04-17.54 56.70-21.95Q58.37-26.37 58.37-31.36Z"/>,<path id="g-55" d="M62.85-86.14L24.06 0L14.08 0L53.12-86.14L8.06-86.14L8.06-94.72L62.85-94.72L62.85-86.14Z"/>,<path id="g-56" d="M65.66-27.52L65.66-27.52Q65.66-21.38 63.23-16.06Q60.80-10.75 56.64-6.78Q52.48-2.82 47.04-0.58Q41.60 1.66 35.58 1.66L35.58 1.66Q29.57 1.66 24.06-0.58Q18.56-2.82 14.40-6.72Q10.24-10.62 7.74-16Q5.25-21.38 5.25-27.52L5.25-27.52Q5.25-31.49 6.40-35.39Q7.55-39.30 9.66-42.69Q11.78-46.08 14.78-48.70Q17.79-51.33 21.50-52.86L21.50-52.86Q16.64-56.06 13.50-60.93Q10.37-65.79 10.37-71.81L10.37-71.81Q10.37-77.06 12.35-81.60Q14.34-86.14 17.73-89.41Q21.12-92.67 25.66-94.53Q30.21-96.38 35.46-96.38L35.46-96.38Q40.70-96.38 45.31-94.46Q49.92-92.54 53.31-89.15Q56.70-85.76 58.62-81.22Q60.54-76.67 60.54-71.42L60.54-71.42Q60.54-65.79 57.34-60.67Q54.14-55.55 49.28-52.86L49.28-52.86Q56.83-49.28 61.25-42.62Q65.66-35.97 65.66-27.52ZM51.07-72.19L51.07-72.19Q51.07-75.39 49.86-78.21Q48.64-81.02 46.59-83.14Q44.54-85.25 41.73-86.53Q38.91-87.81 35.71-87.81L35.71-87.81Q32.38-87.81 29.50-86.59Q26.62-85.38 24.45-83.26Q22.27-81.15 21.06-78.34Q19.84-75.52 19.84-72.19L19.84-72.19Q19.84-68.99 21.12-66.24Q22.40-63.49 24.58-61.38Q26.75-59.26 29.63-58.05Q32.51-56.83 35.58-56.83L35.58-56.83Q38.78-56.83 41.60-58.05Q44.42-59.26 46.53-61.31Q48.64-63.36 49.86-66.18Q51.07-68.99 51.07-72.19ZM56.19-27.52L56.19-27.52Q56.19-31.87 54.53-35.58Q52.86-39.30 50.05-42.05Q47.23-44.80 43.39-46.40Q39.55-48 35.33-48L35.33-48Q31.23-48 27.52-46.40Q23.81-44.80 20.93-42.05Q18.05-39.30 16.38-35.65Q14.72-32 14.72-27.90L14.72-27.90Q14.72-23.42 16.32-19.58Q17.92-15.74 20.74-12.93Q23.55-10.11 27.39-8.51Q31.23-6.91 35.71-6.91L35.71-6.91Q39.94-6.91 43.71-8.58Q47.49-10.24 50.24-12.99Q52.99-15.74 54.59-19.52Q56.19-23.30 56.19-27.52Z"/>,<path id="g-57" d="M67.84-62.59L67.84-62.59Q67.84-58.50 66.88-54.85Q65.92-51.20 64.32-47.87Q62.72-44.54 60.67-41.28Q58.62-38.02 56.45-34.82L56.45-34.82L32.90 0L22.14 0L44.03-32.13L43.78-32.26Q39.81-30.21 34.94-30.21L34.94-30.21Q28.03-30.21 22.21-32.77Q16.38-35.33 12.10-39.81Q7.81-44.29 5.44-50.30Q3.07-56.32 3.07-63.10L3.07-63.10Q3.07-70.02 5.50-76.03Q7.94-82.05 12.22-86.59Q16.51-91.14 22.46-93.70Q28.42-96.26 35.46-96.26L35.46-96.26Q42.75-96.26 48.70-93.63Q54.66-91.01 58.88-86.53Q63.10-82.05 65.47-75.84Q67.84-69.63 67.84-62.59ZM58.37-63.49L58.37-63.49Q58.37-68.35 56.64-72.70Q54.91-77.06 51.90-80.38Q48.90-83.71 44.67-85.70Q40.45-87.68 35.46-87.68L35.46-87.68Q30.34-87.68 26.11-85.70Q21.89-83.71 18.88-80.38Q15.87-77.06 14.21-72.64Q12.54-68.22 12.54-63.23L12.54-63.23Q12.54-58.37 14.21-53.89Q15.87-49.41 18.88-46.08Q21.89-42.75 26.11-40.77Q30.34-38.78 35.46-38.78L35.46-38.78Q40.58-38.78 44.80-40.83Q49.02-42.88 52.03-46.27Q55.04-49.66 56.70-54.14Q58.37-58.62 58.37-63.49Z"/>,<path id="g-58" d="M22.53-54.02L13.06-54.02L13.06-70.14L22.53-70.14L22.53-54.02ZM22.53 0L13.06 0L13.06-16.13L22.53-16.13L22.53 0Z"/>,<path id="g-59" d="M22.53-54.02L13.06-54.02L13.06-70.14L22.53-70.14L22.53-54.02ZM22.53-16.13L11.26 8.58L1.79 8.58L13.06-16.13L22.53-16.13Z"/>,<path id="g-60" d="M70.91 1.02L5.89-28.42L5.89-36.35L70.91-65.79L70.91-57.09L16.51-32.38L70.91-7.68L70.91 1.02Z"/>,<path id="g-61" d="M71.04-40.96L6.53-40.96L6.53-49.66L71.04-49.66L71.04-40.96ZM71.04-15.10L6.53-15.10L6.53-23.81L71.04-23.81L71.04-15.10Z"/>,<path id="g-62" d="M71.68-28.42L6.66 1.02L6.66-7.68L61.06-32.38L6.66-57.09L6.66-65.79L71.68-36.35L71.68-28.42Z"/>,<path id="g-63" d="M67.33-67.84L67.33-67.84Q67.33-62.72 65.60-59.01Q63.87-55.30 61.25-52.16Q58.62-49.02 55.62-46.27Q52.61-43.52 49.92-40.38Q47.23-37.25 45.31-33.47Q43.39-29.70 43.14-24.70L43.14-24.70L33.66-24.70L33.66-25.22Q33.66-30.98 35.46-35.26Q37.25-39.55 39.94-42.94Q42.62-46.34 45.76-49.22Q48.90-52.10 51.58-54.98Q54.27-57.86 56.06-60.99Q57.86-64.13 57.86-68.22L57.86-68.22Q57.86-72.19 56.19-75.71Q54.53-79.23 51.78-81.79Q49.02-84.35 45.44-85.82Q41.86-87.30 37.89-87.30L37.89-87.30Q32.51-87.30 28.03-84.86Q23.55-82.43 20.61-77.95L20.61-77.95Q18.43-74.75 18.05-71.74Q17.66-68.74 17.66-65.02L17.66-65.02L8.19-65.02L8.19-67.46Q8.19-73.60 10.69-78.85Q13.18-84.10 17.28-87.94Q21.38-91.78 26.82-94.02Q32.26-96.26 38.27-96.26L38.27-96.26Q44.42-96.26 49.66-94.14Q54.91-92.03 58.88-88.19Q62.85-84.35 65.09-79.17Q67.33-73.98 67.33-67.84ZM43.14 0L33.66 0L33.66-16.13L43.14-16.13L43.14 0Z"/>,<path id="g-64" d="M102.78-54.27L102.78-54.27Q102.78-47.62 101.12-41.86L101.12-41.86Q100.10-38.14 98.24-34.30Q96.38-30.46 93.63-27.26Q90.88-24.06 87.36-22.02Q83.84-19.97 79.62-19.97L79.62-19.97Q75.01-19.97 72.32-22.85Q69.63-25.73 69.38-30.21L69.38-30.21L69.12-30.21Q62.85-19.97 51.46-19.97L51.46-19.97Q46.59-19.97 42.88-21.89Q39.17-23.81 36.61-27.01Q34.05-30.21 32.77-34.37Q31.49-38.53 31.49-43.01L31.49-43.01Q31.49-48.38 33.22-53.57Q34.94-58.75 38.21-62.85Q41.47-66.94 46.08-69.44Q50.69-71.94 56.45-71.94L56.45-71.94Q62.46-71.94 66.50-69.12Q70.53-66.30 72.32-60.54L72.32-60.54L72.58-60.54L74.37-70.14L82.05-70.14L76.67-39.81Q76.42-38.02 75.97-36.10Q75.52-34.18 75.52-32.38L75.52-32.38Q75.52-30.46 76.61-28.80Q77.70-27.14 79.87-27.14L79.87-27.14Q82.94-27.14 85.31-28.93Q87.68-30.72 89.41-33.28Q91.14-35.84 92.29-38.85Q93.44-41.86 94.08-44.42L94.08-44.42Q94.59-46.85 94.85-49.22Q95.10-51.58 95.10-54.14L95.10-54.14Q95.10-62.46 92.29-68.99Q89.47-75.52 84.48-80Q79.49-84.48 72.70-86.85Q65.92-89.22 57.86-89.22L57.86-89.22Q48.77-89.22 41.09-86.08Q33.41-82.94 27.84-77.31Q22.27-71.68 19.14-64Q16-56.32 16-47.23L16-47.23Q16-37.50 19.14-29.76Q22.27-22.02 27.97-16.64Q33.66-11.26 41.66-8.38Q49.66-5.50 59.26-5.50L59.26-5.50Q67.33-5.50 74.88-7.04Q82.43-8.58 89.73-11.90L89.73-11.90L91.65-5.38Q83.97-1.79 75.84-0.06Q67.71 1.66 59.26 1.66L59.26 1.66Q51.58 1.66 44.54 0.06Q37.50-1.54 31.42-4.86Q25.34-8.19 20.48-13.38Q15.62-18.56 12.42-25.86L12.42-25.86Q10.24-30.72 9.28-35.84Q8.32-40.96 8.32-46.34L8.32-46.34Q8.32-57.34 12.10-66.56Q15.87-75.78 22.59-82.37Q29.31-88.96 38.59-92.67Q47.87-96.38 58.88-96.38L58.88-96.38Q68.35-96.38 76.42-93.44Q84.48-90.50 90.30-84.99Q96.13-79.49 99.46-71.74Q102.78-64 102.78-54.27ZM69.76-50.43L69.76-50.43Q69.76-53.25 68.93-55.87Q68.10-58.50 66.43-60.48Q64.77-62.46 62.46-63.62Q60.16-64.77 57.09-64.77L57.09-64.77Q52.74-64.77 49.41-62.85Q46.08-60.93 43.78-57.86Q41.47-54.78 40.32-50.94Q39.17-47.10 39.17-43.26L39.17-43.26Q39.17-39.94 40-36.99Q40.83-34.05 42.56-31.87Q44.29-29.70 46.85-28.42Q49.41-27.14 52.99-27.14L52.99-27.14Q57.34-27.14 60.54-29.38Q63.74-31.62 65.79-35.07Q67.84-38.53 68.80-42.62Q69.76-46.72 69.76-50.43Z"/>,<path id="g-65" d="M93.31 0L82.94 0L69.25-31.87L25.22-31.87L11.39 0L1.54 0L41.98-94.72L52.61-94.72L93.31 0ZM65.54-40.45L47.36-83.97L28.80-40.45L65.54-40.45Z"/>,<path id="g-66" d="M69.63-27.14L69.63-27.14Q69.63-20.74 66.94-14.72Q64.26-8.70 58.75-5.25L58.75-5.25Q53.12-1.66 47.62-0.83Q42.11 0 35.58 0L35.58 0L9.47 0L9.47-94.72L33.28-94.72Q37.76-94.72 42.18-93.95Q46.59-93.18 50.43-91.39Q54.27-89.60 57.34-86.66Q60.42-83.71 62.34-79.23L62.34-79.23Q64.26-74.62 64.26-69.50L64.26-69.50Q64.26-62.98 61.50-58.62Q58.75-54.27 53.89-50.43L53.89-50.43Q61.18-47.49 65.41-41.28Q69.63-35.07 69.63-27.14ZM54.78-69.89L54.78-69.89Q54.78-75.78 50.82-80.26L50.82-80.26Q49.02-82.30 46.78-83.46Q44.54-84.61 41.98-85.18Q39.42-85.76 36.74-85.95Q34.05-86.14 31.62-86.14L31.62-86.14L18.94-86.14L18.94-53.89L30.85-53.89Q34.94-53.89 39.17-54.21Q43.39-54.53 47.10-56.58L47.10-56.58Q50.82-58.50 52.80-62.14Q54.78-65.79 54.78-69.89ZM60.16-27.14L60.16-27.14Q60.16-32.51 57.02-36.80Q53.89-41.09 49.02-43.14L49.02-43.14Q44.67-44.93 39.94-45.12Q35.20-45.31 30.59-45.31L30.59-45.31L18.94-45.31L18.94-8.58L32.26-8.58Q36.74-8.58 41.34-8.90Q45.95-9.22 50.18-11.01L50.18-11.01Q55.04-13.06 57.60-17.54Q60.16-22.02 60.16-27.14Z"/>,<path id="g-67" d="M98.69-24.83L98.69-24.83Q95.36-18.82 90.75-13.95Q86.14-9.09 80.45-5.63Q74.75-2.18 68.35-0.26Q61.95 1.66 55.04 1.66L55.04 1.66Q44.80 1.66 35.84-2.11Q26.88-5.89 20.10-12.48Q13.31-19.07 9.41-28.03Q5.50-36.99 5.50-47.23L5.50-47.23Q5.50-57.60 9.34-66.56Q13.18-75.52 19.90-82.11Q26.62-88.70 35.58-92.48Q44.54-96.26 54.91-96.26L54.91-96.26Q65.79-96.26 75.46-91.84Q85.12-87.42 92.29-79.36L92.29-79.36Q94.08-77.31 95.68-75.14Q97.28-72.96 98.30-70.40L98.30-70.40L87.68-70.40Q82.18-78.59 73.41-83.14Q64.64-87.68 54.78-87.68L54.78-87.68Q46.59-87.68 39.36-84.35Q32.13-81.02 26.69-75.46Q21.25-69.89 18.11-62.53Q14.98-55.17 14.98-47.10L14.98-47.10Q14.98-39.17 18.24-31.87Q21.50-24.58 26.94-19.01Q32.38-13.44 39.62-10.18Q46.85-6.91 54.91-6.91L54.91-6.91Q65.28-6.91 73.60-11.84Q81.92-16.77 88.06-24.83L88.06-24.83L98.69-24.83Z"/>,<path id="g-68" d="M89.47-47.10L89.47-47.10Q89.47-41.22 87.94-35.52Q86.40-29.82 83.65-24.77Q80.90-19.71 76.93-15.36Q72.96-11.01 67.97-7.81L67.97-7.81Q61.44-3.71 53.06-1.86Q44.67 0 37.12 0L37.12 0L9.47 0L9.47-94.72L37.12-94.72Q44.80-94.72 53.12-92.86Q61.44-91.01 67.97-86.91L67.97-86.91Q78.08-80.38 83.78-69.76Q89.47-59.14 89.47-47.10ZM80-47.49L80-47.49Q80-56.83 75.78-65.15Q71.55-73.47 63.87-78.85L63.87-78.85Q56.83-83.71 48.96-84.93Q41.09-86.14 32.64-86.14L32.64-86.14L18.94-86.14L18.94-8.58L34.69-8.58Q43.14-8.58 50.62-9.86Q58.11-11.14 65.15-16.26L65.15-16.26Q68.74-18.94 71.55-22.46Q74.37-25.98 76.22-30.08Q78.08-34.18 79.04-38.59Q80-43.01 80-47.49Z"/>,<path id="g-69" d="M60.80 0L8.96 0L8.96-94.72L60.80-94.72L60.80-86.14L18.43-86.14L18.43-52.10L59.39-52.10L59.39-43.52L18.43-43.52L18.43-8.58L60.80-8.58L60.80 0Z"/>,<path id="g-70" d="M56.83-86.14L18.43-86.14L18.43-51.84L55.42-51.84L55.42-43.26L18.43-43.26L18.43 0L8.96 0L8.96-94.72L56.83-94.72L56.83-86.14Z"/>,<path id="g-71" d="M105.98-43.52L105.98-43.52Q105.22-33.79 100.93-25.54Q96.64-17.28 89.86-11.20Q83.07-5.12 74.30-1.73Q65.54 1.66 55.94 1.66L55.94 1.66Q45.82 1.66 36.61-2.11Q27.39-5.89 20.42-12.54Q13.44-19.20 9.28-28.16Q5.12-37.12 5.12-47.36L5.12-47.36Q5.12-57.73 9.22-66.69Q13.31-75.65 20.29-82.24Q27.26-88.83 36.42-92.61Q45.57-96.38 55.81-96.38L55.81-96.38Q66.94-96.38 77.06-91.90Q87.17-87.42 94.46-78.98L94.46-78.98Q96.26-76.93 97.92-74.50Q99.58-72.06 100.61-69.50L100.61-69.50L89.60-69.50Q87.04-73.86 83.33-77.25Q79.62-80.64 75.14-83.01Q70.66-85.38 65.73-86.59Q60.80-87.81 55.94-87.81L55.94-87.81Q47.49-87.81 40-84.67Q32.51-81.54 26.88-76.03Q21.25-70.53 17.92-63.10Q14.59-55.68 14.59-47.23L14.59-47.23Q14.59-38.66 17.92-31.30Q21.25-23.94 27.01-18.50Q32.77-13.06 40.32-9.98Q47.87-6.91 56.32-6.91L56.32-6.91Q62.59-6.91 68.74-8.96Q74.88-11.01 80.13-14.72Q85.38-18.43 89.22-23.62Q93.06-28.80 94.59-34.94L94.59-34.94L41.73-34.94L41.73-43.52L105.98-43.52Z"/>,<path id="g-710" d="M54.78-77.95L43.39-77.95L32.38-87.30L21.12-77.95L9.47-77.95L28.03-93.95L36.48-93.95L54.78-77.95Z"/>,<path id="g-72" d="M77.70 0L68.22 0L68.22-44.42L19.20-44.42L19.20 0L9.73 0L9.73-94.72L19.20-94.72L19.20-52.99L68.22-52.99L68.22-94.72L77.70-94.72L77.70 0Z"/>,<path id="g-73" d="M19.20 0L9.73 0L9.73-94.72L19.20-94.72L19.20 0Z"/>,<path id="g-74" d="M51.46-30.08L51.46-30.08Q51.46-25.60 51.14-20.86Q50.82-16.13 49.02-12.03L49.02-12.03Q46.08-5.38 39.81-1.86Q33.54 1.66 26.50 1.66L26.50 1.66Q21.12 1.66 16.51-0.13Q11.90-1.92 8.51-5.06Q5.12-8.19 3.07-12.67Q1.02-17.15 0.77-22.53L0.77-22.53L10.11-22.53Q10.62-15.74 15.17-11.33Q19.71-6.91 26.62-6.91L26.62-6.91Q31.87-6.91 34.94-8.90Q38.02-10.88 39.55-14.14Q41.09-17.41 41.54-21.50Q41.98-25.60 41.98-29.70L41.98-29.70L41.98-94.72L51.46-94.72L51.46-30.08Z"/>,<path id="g-75" d="M75.65 0L63.74 0L32.13-41.09L19.84-25.98L19.84 0L10.37 0L10.37-94.72L19.84-94.72L19.84-40.32L20.10-40.32L63.49-94.72L75.65-94.72L38.14-48.51L75.65 0Z"/>,<path id="g-76" d="M59.14 0L10.50 0L10.50-94.72L19.97-94.72L19.97-8.58L59.14-8.58L59.14 0Z"/>,<path id="g-77" d="M107.90 0L98.43 0L98.43-84.35L98.18-84.35L62.72 0L54.66 0L19.46-84.35L19.20-84.35L19.20 0L9.73 0L9.73-94.72L24.32-94.72L58.75-14.08L93.31-94.72L107.90-94.72L107.90 0Z"/>,<path id="g-78" d="M84.99 0L75.52 0L19.33-83.33L19.07-83.33L19.07 0L9.60 0L9.60-94.72L22.40-94.72L75.26-16.13L75.52-16.13L75.52-94.72L84.99-94.72L84.99 0Z"/>,<path id="g-79" d="M105.73-47.36L105.73-47.36Q105.73-37.12 101.70-28.16Q97.66-19.20 90.75-12.54Q83.84-5.89 74.75-2.11Q65.66 1.66 55.55 1.66L55.55 1.66Q45.57 1.66 36.54-2.11Q27.52-5.89 20.61-12.48Q13.70-19.07 9.60-27.90Q5.50-36.74 5.50-46.85L5.50-46.85Q5.50-57.22 9.47-66.24Q13.44-75.26 20.22-81.98Q27.01-88.70 36.10-92.54Q45.18-96.38 55.55-96.38L55.55-96.38Q65.66-96.38 74.82-92.54Q83.97-88.70 90.82-82.11Q97.66-75.52 101.70-66.56Q105.73-57.60 105.73-47.36ZM96.26-47.23L96.26-47.23Q96.26-55.55 93.06-62.98Q89.86-70.40 84.29-75.90Q78.72-81.41 71.30-84.61Q63.87-87.81 55.55-87.81L55.55-87.81Q47.10-87.81 39.68-84.54Q32.26-81.28 26.82-75.71Q21.38-70.14 18.18-62.72Q14.98-55.30 14.98-46.85L14.98-46.85Q14.98-38.66 18.24-31.36Q21.50-24.06 27.07-18.62Q32.64-13.18 40-10.05Q47.36-6.91 55.55-6.91L55.55-6.91Q63.87-6.91 71.23-10.05Q78.59-13.18 84.16-18.69Q89.73-24.19 92.99-31.55Q96.26-38.91 96.26-47.23Z"/>,<path id="g-80" d="M72.19-66.43L72.19-66.43Q72.19-59.52 69.18-53.57Q66.18-47.62 60.42-43.65L60.42-43.65Q55.04-39.94 48.70-39.04Q42.37-38.14 35.97-38.14L35.97-38.14L19.07-38.14L19.07 0L9.60 0L9.60-94.72L35.97-94.72Q42.37-94.72 48.70-93.82Q55.04-92.93 60.42-89.22L60.42-89.22Q66.18-85.25 69.18-79.30Q72.19-73.34 72.19-66.43ZM62.72-66.43L62.72-66.43Q62.72-72.32 59.90-76.74Q57.09-81.15 51.71-83.71L51.71-83.71Q47.62-85.63 43.78-85.89Q39.94-86.14 35.46-86.14L35.46-86.14L19.07-86.14L19.07-46.72L35.46-46.72Q39.94-46.72 43.78-46.98Q47.62-47.23 51.71-49.15L51.71-49.15Q57.09-51.71 59.90-56.13Q62.72-60.54 62.72-66.43Z"/>,<path id="g-81" d="M107.14-46.59L107.14-46.59Q107.14-36.48 102.98-27.71Q98.82-18.94 91.52-12.03L91.52-12.03Q94.85-9.22 98.05-8Q101.25-6.78 105.60-6.91L105.60-6.91L105.60 1.66Q102.14 1.66 99.33 1.28Q96.51 0.90 94.08-0.06Q91.65-1.02 89.34-2.62Q87.04-4.22 84.48-6.53L84.48-6.53Q78.21-2.43 70.91-0.38Q63.62 1.66 56.06 1.66L56.06 1.66Q45.82 1.66 36.61-2.05Q27.39-5.76 20.42-12.29Q13.44-18.82 9.28-27.71Q5.12-36.61 5.12-46.98L5.12-46.98Q5.12-57.73 9.15-66.75Q13.18-75.78 20.10-82.37Q27.01-88.96 36.29-92.67Q45.57-96.38 56.19-96.38L56.19-96.38Q66.94-96.38 76.22-92.67Q85.50-88.96 92.35-82.30Q99.20-75.65 103.17-66.50Q107.14-57.34 107.14-46.59ZM97.66-46.85L97.66-46.85Q97.66-55.42 94.40-62.91Q91.14-70.40 85.50-75.90Q79.87-81.41 72.38-84.61Q64.90-87.81 56.32-87.81L56.32-87.81Q47.62-87.81 40-84.61Q32.38-81.41 26.75-75.84Q21.12-70.27 17.86-62.72Q14.59-55.17 14.59-46.46L14.59-46.46Q14.59-40.83 16.26-35.71L16.26-35.71Q25.98-38.91 36.22-38.91L36.22-38.91Q44.03-38.91 50.43-37.50Q56.83-36.10 62.53-33.41Q68.22-30.72 73.60-26.88Q78.98-23.04 84.61-18.18L84.61-18.18Q90.50-23.94 94.08-31.17Q97.66-38.40 97.66-46.85ZM77.18-13.06L77.18-13.06Q74.24-15.36 70.85-18.05Q67.46-20.74 64.26-22.66L64.26-22.66Q57.73-26.50 50.05-28.42Q42.37-30.34 34.82-30.34L34.82-30.34Q30.59-30.34 27.26-29.82Q23.94-29.31 20.10-27.65L20.10-27.65Q21.12-25.47 22.59-23.62Q24.06-21.76 25.60-20.10L25.60-20.10Q31.74-13.57 39.55-10.24Q47.36-6.91 56.32-6.91L56.32-6.91Q61.95-6.91 67.26-8.32Q72.58-9.73 77.18-13.06Z"/>,<path id="g-82" d="M73.22-64.13L73.22-64.13Q73.22-58.11 71.04-52.99Q68.86-47.87 65.09-44.10Q61.31-40.32 56.13-38.02Q50.94-35.71 45.06-35.33L45.06-35.33L71.81 0L59.90 0L27.78-42.88Q29.95-42.88 32.64-42.82Q35.33-42.75 38.02-42.88Q40.70-43.01 43.33-43.33Q45.95-43.65 48.13-44.29L48.13-44.29Q55.04-46.46 59.39-51.71Q63.74-56.96 63.74-64.38L63.74-64.38Q63.74-69.76 60.99-74.88Q58.24-80 53.38-82.56L53.38-82.56Q48.90-84.99 44.42-85.57Q39.94-86.14 34.94-86.14L34.94-86.14L18.43-86.14L18.43 0L8.96 0L8.96-94.72L33.02-94.72Q35.71-94.72 38.72-94.59Q41.73-94.46 44.80-94.08Q47.87-93.70 50.82-92.99Q53.76-92.29 56.32-91.14L56.32-91.14Q64.38-87.30 68.80-80.13Q73.22-72.96 73.22-64.13Z"/>,<path id="g-8211" d="M59.52-31.74L4.48-31.74L4.48-40.32L59.52-40.32L59.52-31.74Z"/>,<path id="g-8212" d="M123.52-31.74L4.48-31.74L4.48-40.32L123.52-40.32L123.52-31.74Z"/>,<path id="g-8216" d="M32.90-69.89L23.42-69.89L12.16-94.72L21.63-94.72L32.90-69.89Z"/>,<path id="g-8217" d="M32.77-94.72L21.50-69.89L12.03-69.89L23.30-94.72L32.77-94.72Z"/>,<path id="g-8218" d="M32.13-16.13L20.86 8.70L11.39 8.70L22.66-16.13L32.13-16.13Z"/>,<path id="g-8220" d="M51.97-69.89L42.50-69.89L31.36-94.72L40.70-94.72L51.97-69.89ZM33.15-69.89L23.68-69.89L12.42-94.72L21.89-94.72L33.15-69.89Z"/>,<path id="g-8221" d="M51.84-94.72L40.58-69.89L31.10-69.89L42.37-94.72L51.84-94.72ZM32.90-94.72L21.76-69.89L12.29-69.89L23.55-94.72L32.90-94.72Z"/>,<path id="g-8222" d="M51.07-16.13L39.81 8.70L30.34 8.70L41.60-16.13L51.07-16.13ZM32.13-16.13L20.86 8.70L11.39 8.70L22.66-16.13L32.13-16.13Z"/>,<path id="g-8224" d="M63.10-60.42L40.06-60.42L40.06 17.02L30.59 17.02L30.59-60.42L7.55-60.42L7.55-68.99L30.59-68.99L30.59-94.72L40.06-94.72L40.06-68.99L63.10-68.99L63.10-60.42Z"/>,<path id="g-8225" d="M63.10-8.70L40.06-8.70L40.06 17.02L30.59 17.02L30.59-8.70L7.55-8.70L7.55-17.28L30.59-17.28L30.59-60.42L7.55-60.42L7.55-68.99L30.59-68.99L30.59-94.72L40.06-94.72L40.06-68.99L63.10-68.99L63.10-60.42L40.06-60.42L40.06-17.28L63.10-17.28L63.10-8.70Z"/>,<path id="g-8226" d="M58.24-48.26L58.24-48.26Q58.24-44.16 56.70-40.58Q55.17-36.99 52.54-34.30Q49.92-31.62 46.40-30.02Q42.88-28.42 38.78-28.42L38.78-28.42Q34.69-28.42 31.10-30.02Q27.52-31.62 24.90-34.30Q22.27-36.99 20.74-40.58Q19.20-44.16 19.20-48.26L19.20-48.26Q19.20-52.35 20.74-55.94Q22.27-59.52 24.96-62.21Q27.65-64.90 31.23-66.50Q34.82-68.10 38.91-68.10L38.91-68.10Q43.01-68.10 46.53-66.50Q50.05-64.90 52.67-62.14Q55.30-59.39 56.77-55.81Q58.24-52.22 58.24-48.26Z"/>,<path id="g-8230" d="M111.36 0L101.89 0L101.89-16.13L111.36-16.13L111.36 0ZM68.74 0L59.26 0L59.26-16.13L68.74-16.13L68.74 0ZM26.11 0L16.64 0L16.64-16.13L26.11-16.13L26.11 0Z"/>,<path id="g-8240" d="M146.94-21.25L146.94-21.25Q146.94-16.51 145.09-12.35Q143.23-8.19 140.10-5.06Q136.96-1.92 132.74-0.13Q128.51 1.66 123.78 1.66L123.78 1.66Q119.04 1.66 114.82-0.13Q110.59-1.92 107.46-5.06Q104.32-8.19 102.46-12.35Q100.61-16.51 100.61-21.25L100.61-21.25Q100.61-25.98 102.46-30.14Q104.32-34.30 107.46-37.44Q110.59-40.58 114.82-42.37Q119.04-44.16 123.78-44.16L123.78-44.16Q128.51-44.16 132.74-42.37Q136.96-40.58 140.10-37.44Q143.23-34.30 145.09-30.14Q146.94-25.98 146.94-21.25ZM49.54-73.22L49.54-73.22Q49.54-68.48 47.68-64.32Q45.82-60.16 42.69-57.02Q39.55-53.89 35.33-52.10Q31.10-50.30 26.37-50.30L26.37-50.30Q21.63-50.30 17.41-52.10Q13.18-53.89 10.05-57.02Q6.91-60.16 5.06-64.32Q3.20-68.48 3.20-73.22L3.20-73.22Q3.20-77.95 5.06-82.11Q6.91-86.27 10.05-89.41Q13.18-92.54 17.41-94.34Q21.63-96.13 26.37-96.13L26.37-96.13Q31.10-96.13 35.33-94.34Q39.55-92.54 42.69-89.41Q45.82-86.27 47.68-82.11Q49.54-77.95 49.54-73.22ZM81.15-94.72L26.88 0L18.18 0L72.45-94.72L81.15-94.72ZM96.90-21.25L96.90-21.25Q96.90-16.51 95.04-12.35Q93.18-8.19 90.05-5.06Q86.91-1.92 82.69-0.13Q78.46 1.66 73.73 1.66L73.73 1.66Q68.99 1.66 64.77-0.13Q60.54-1.92 57.41-5.06Q54.27-8.19 52.42-12.35Q50.56-16.51 50.56-21.25L50.56-21.25Q50.56-25.98 52.42-30.14Q54.27-34.30 57.41-37.44Q60.54-40.58 64.77-42.37Q68.99-44.16 73.73-44.16L73.73-44.16Q78.46-44.16 82.69-42.37Q86.91-40.58 90.05-37.44Q93.18-34.30 95.04-30.14Q96.90-25.98 96.90-21.25ZM139.26-21.25L139.26-21.25Q139.26-24.45 138.05-27.33Q136.83-30.21 134.78-32.38Q132.74-34.56 129.86-35.78Q126.98-36.99 123.78-36.99L123.78-36.99Q120.45-36.99 117.63-35.78Q114.82-34.56 112.77-32.38Q110.72-30.21 109.50-27.33Q108.29-24.45 108.29-21.25L108.29-21.25Q108.29-17.92 109.50-15.10Q110.72-12.29 112.77-10.11Q114.82-7.94 117.63-6.72Q120.45-5.50 123.78-5.50L123.78-5.50Q126.98-5.50 129.86-6.72Q132.74-7.94 134.78-10.11Q136.83-12.29 138.05-15.10Q139.26-17.92 139.26-21.25ZM41.86-73.22L41.86-73.22Q41.86-76.42 40.64-79.30Q39.42-82.18 37.38-84.35Q35.33-86.53 32.45-87.74Q29.57-88.96 26.37-88.96L26.37-88.96Q23.04-88.96 20.22-87.74Q17.41-86.53 15.36-84.35Q13.31-82.18 12.10-79.30Q10.88-76.42 10.88-73.22L10.88-73.22Q10.88-69.89 12.10-67.07Q13.31-64.26 15.36-62.08Q17.41-59.90 20.22-58.69Q23.04-57.47 26.37-57.47L26.37-57.47Q29.57-57.47 32.45-58.69Q35.33-59.90 37.38-62.08Q39.42-64.26 40.64-67.07Q41.86-69.89 41.86-73.22ZM89.22-21.25L89.22-21.25Q89.22-24.45 88-27.33Q86.78-30.21 84.74-32.38Q82.69-34.56 79.81-35.78Q76.93-36.99 73.73-36.99L73.73-36.99Q70.40-36.99 67.58-35.78Q64.77-34.56 62.72-32.38Q60.67-30.21 59.46-27.33Q58.24-24.45 58.24-21.25L58.24-21.25Q58.24-17.92 59.46-15.10Q60.67-12.29 62.72-10.11Q64.77-7.94 67.58-6.72Q70.40-5.50 73.73-5.50L73.73-5.50Q76.93-5.50 79.81-6.72Q82.69-7.94 84.74-10.11Q86.78-12.29 88-15.10Q89.22-17.92 89.22-21.25Z"/>,<path id="g-8249" d="M27.14-14.59L19.58-10.37L5.12-36.10L19.58-61.57L27.14-57.60L15.10-36.10L27.14-14.59Z"/>,<path id="g-8250" d="M27.01-36.10L12.42-10.37L4.99-14.59L17.02-36.10L4.99-57.60L12.42-61.57L27.01-36.10Z"/>,<path id="g-83" d="M60.54-26.11L60.54-26.11Q60.54-20.22 58.30-15.17Q56.06-10.11 52.16-6.34Q48.26-2.56 43.07-0.45Q37.89 1.66 32 1.66L32 1.66Q25.73 1.66 20.42-0.32Q15.10-2.30 11.20-6.02Q7.30-9.73 5.12-14.91Q2.94-20.10 2.82-26.50L2.82-26.50L12.29-26.50Q12.67-17.66 17.86-12.29Q23.04-6.91 32-6.91L32-6.91Q35.97-6.91 39.42-8.38Q42.88-9.86 45.44-12.35Q48-14.85 49.54-18.30Q51.07-21.76 51.07-25.73L51.07-25.73Q51.07-30.46 49.22-33.79Q47.36-37.12 44.42-39.42Q41.47-41.73 37.63-43.26Q33.79-44.80 29.95-45.95L29.95-45.95Q24.96-47.49 20.48-49.22Q16-50.94 12.61-53.76Q9.22-56.58 7.30-60.67Q5.38-64.77 5.38-70.91L5.38-70.91Q5.38-76.54 7.49-81.22Q9.60-85.89 13.25-89.28Q16.90-92.67 21.70-94.53Q26.50-96.38 32-96.38L32-96.38Q37.50-96.38 42.24-94.46Q46.98-92.54 50.56-89.09Q54.14-85.63 56.19-80.90Q58.24-76.16 58.24-70.66L58.24-70.66L48.77-70.66Q48.77-74.11 47.49-77.25Q46.21-80.38 43.90-82.69Q41.60-84.99 38.53-86.40Q35.46-87.81 32-87.81L32-87.81Q28.42-87.81 25.28-86.59Q22.14-85.38 19.84-83.14Q17.54-80.90 16.19-77.89Q14.85-74.88 14.85-71.30L14.85-71.30Q14.85-66.56 17.02-63.62Q19.20-60.67 22.53-58.75Q25.86-56.83 29.82-55.74Q33.79-54.66 37.38-53.50L37.38-53.50Q42.50-51.97 46.72-49.54Q50.94-47.10 54.02-43.78Q57.09-40.45 58.82-36.03Q60.54-31.62 60.54-26.11Z"/>,<path id="g-8364" d="M69.63-21.63L69.63-21.63Q68.10-10.75 61.95-4.86L61.95-4.86Q55.17 1.66 42.62 1.66L42.62 1.66Q34.94 1.66 29.76-0.77Q24.58-3.20 21.12-7.55L21.12-7.55Q17.02-12.54 15.04-19.07Q13.06-25.60 12.42-34.82L12.42-34.82L1.02-34.82L4.22-42.88L12.03-42.88L12.03-47.49L12.03-51.84L1.02-51.84L4.22-59.90L12.54-59.90Q14.08-76.29 20.48-85.25L20.48-85.25Q23.68-89.73 29.25-93.06Q34.82-96.38 42.88-96.38L42.88-96.38Q49.41-96.38 54.02-94.53Q58.62-92.67 61.82-89.34L61.82-89.34Q65.15-86.02 66.88-81.79Q68.61-77.57 69.12-72.96L69.12-72.96L60.16-72.96Q59.65-76.03 58.50-78.72Q57.34-81.41 55.30-83.33L55.30-83.33Q53.12-85.38 49.92-86.59Q46.72-87.81 42.75-87.81L42.75-87.81Q36.99-87.81 33.28-85.44Q29.57-83.07 27.14-79.36L27.14-79.36Q24.96-76.03 23.74-71.42Q22.53-66.82 21.89-59.90L21.89-59.90L61.82-59.90L58.62-51.84L21.50-51.84L21.50-47.49L21.50-42.88L55.04-42.88L51.84-34.82L21.89-34.82Q22.40-27.39 23.74-22.53Q25.09-17.66 27.78-13.95L27.78-13.95Q29.95-10.88 33.66-8.90Q37.38-6.91 42.88-6.91L42.88-6.91Q47.36-6.91 50.62-8.19Q53.89-9.47 56.06-11.65L56.06-11.65Q57.98-13.57 59.01-16.13Q60.03-18.69 60.67-21.63L60.67-21.63L69.63-21.63Z"/>,<path id="g-84" d="M53.63-86.14L32-86.14L32 0L22.53 0L22.53-86.14L0.77-86.14L0.77-94.72L53.63-94.72L53.63-86.14Z"/>,<path id="g-85" d="M74.11-35.71L74.11-35.71Q74.11-30.85 73.34-25.60Q72.58-20.35 70.53-16L70.53-16Q66.43-7.30 58.88-2.82Q51.33 1.66 41.86 1.66L41.86 1.66Q32.38 1.66 24.83-2.82Q17.28-7.30 13.18-16L13.18-16Q11.14-20.35 10.37-25.60Q9.60-30.85 9.60-35.71L9.60-35.71L9.60-94.72L19.07-94.72L19.07-35.71Q19.07-31.87 19.71-26.94Q20.35-22.02 22.27-18.56L22.27-18.56Q28.67-6.91 41.86-6.91L41.86-6.91Q55.04-6.91 61.44-18.56L61.44-18.56Q63.36-22.02 64-26.94Q64.64-31.87 64.64-35.71L64.64-35.71L64.64-94.72L74.11-94.72L74.11-35.71Z"/>,<path id="g-86" d="M88.70-94.72L49.41 0L40.06 0L1.02-94.72L11.52-94.72L44.93-11.78L78.46-94.72L88.70-94.72Z"/>,<path id="g-87" d="M121.60-94.72L94.46 0L82.43 0L61.57-77.70L61.31-77.70L40.58 0L28.42 0L1.41-94.72L11.14-94.72L34.30-12.16L34.56-12.16L57.09-94.72L65.92-94.72L88.58-12.29L88.83-12.29L112-94.72L121.60-94.72Z"/>,<path id="g-88" d="M77.06 0L65.79 0L39.17-40.45L12.16 0L1.02 0L33.15-48.38L2.82-94.72L13.95-94.72L39.17-56.83L64.13-94.72L75.14-94.72L44.67-48.38L77.06 0Z"/>,<path id="g-89" d="M75.78-94.72L42.50-31.62L42.50 0L33.02 0L33.02-31.62L0.13-94.72L10.62-94.72L37.63-41.60L65.41-94.72L75.78-94.72Z"/>,<path id="g-90" d="M60.16 0L1.54 0L1.54-8.58L48.13-86.14L2.94-86.14L2.94-94.72L58.75-94.72L58.75-86.14L12.29-8.58L60.16-8.58L60.16 0Z"/>,<path id="g-91" d="M43.14 22.91L43.14 22.91Q30.46 19.46 23.74 10.05Q17.02 0.64 17.02-12.42L17.02-12.42L17.02-60.80Q17.02-70.78 21.12-78.91Q25.22-87.04 33.79-92.29L33.79-92.29Q35.97-93.70 38.34-94.72Q40.70-95.74 43.14-96.38L43.14-96.38L43.14-86.78Q34.43-83.07 30.46-76.67Q26.50-70.27 26.50-60.80L26.50-60.80L26.50-14.08Q26.50-9.09 27.26-4.99Q28.03-0.90 29.95 2.50Q31.87 5.89 35.07 8.51Q38.27 11.14 43.14 13.31L43.14 13.31L43.14 22.91Z"/>,<path id="g-92" d="M61.06 12.80L51.33 12.80L15.10-94.72L25.22-94.72L61.06 12.80Z"/>,<path id="g-93" d="M27.90-12.42L27.90-12.42Q27.90 0.64 21.18 10.05Q14.46 19.46 1.79 22.91L1.79 22.91L1.79 13.31Q6.66 11.14 9.86 8.51Q13.06 5.89 14.98 2.50Q16.90-0.90 17.66-4.99Q18.43-9.09 18.43-14.08L18.43-14.08L18.43-60.80Q18.43-70.27 14.46-76.67Q10.50-83.07 1.79-86.78L1.79-86.78L1.79-96.38Q4.22-95.74 6.59-94.72Q8.96-93.70 11.14-92.29L11.14-92.29Q19.71-87.04 23.81-78.91Q27.90-70.78 27.90-60.80L27.90-60.80L27.90-12.42Z"/>,<path id="g-95" d="M64 16L0 16L0 9.60L64 9.60L64 16Z"/>,<path id="g-97" d="M79.49 0L70.53 0L70.53-12.29L70.27-12.29Q65.66-5.38 58.43-1.86Q51.20 1.66 43.01 1.66L43.01 1.66Q35.07 1.66 28.22-1.15Q21.38-3.97 16.32-8.90Q11.26-13.82 8.32-20.54Q5.38-27.26 5.38-35.20L5.38-35.20Q5.38-43.01 8.38-49.73Q11.39-56.45 16.51-61.38Q21.63-66.30 28.48-69.06Q35.33-71.81 43.01-71.81L43.01-71.81Q51.33-71.81 58.56-68.35Q65.79-64.90 70.27-57.73L70.27-57.73L70.53-57.73L70.53-70.02L79.49-70.02L79.49 0ZM71.04-34.94L71.04-34.94Q71.04-40.83 68.86-46.02Q66.69-51.20 62.98-55.17Q59.26-59.14 54.08-61.44Q48.90-63.74 43.01-63.74L43.01-63.74Q36.74-63.74 31.49-61.57Q26.24-59.39 22.40-55.49Q18.56-51.58 16.45-46.27Q14.34-40.96 14.34-34.82L14.34-34.82Q14.34-28.67 16.51-23.49Q18.69-18.30 22.53-14.46Q26.37-10.62 31.62-8.51Q36.86-6.40 43.01-6.40L43.01-6.40Q48.90-6.40 54.08-8.64Q59.26-10.88 62.98-14.78Q66.69-18.69 68.86-23.87Q71.04-29.06 71.04-34.94Z"/>,<path id="g-98" d="M82.82-35.20L82.82-35.20Q82.82-27.26 79.87-20.54Q76.93-13.82 71.87-8.90Q66.82-3.97 59.90-1.15Q52.99 1.66 45.18 1.66L45.18 1.66Q36.99 1.66 29.76-1.92Q22.53-5.50 17.92-12.29L17.92-12.29L17.66-12.29L17.66 0L8.70 0L8.70-94.72L17.66-94.72L17.66-57.73L17.92-57.73Q22.66-64.51 29.76-68.16Q36.86-71.81 45.18-71.81L45.18-71.81Q52.86-71.81 59.71-69.06Q66.56-66.30 71.68-61.38Q76.80-56.45 79.81-49.73Q82.82-43.01 82.82-35.20ZM73.86-34.82L73.86-34.82Q73.86-40.96 71.74-46.27Q69.63-51.58 65.79-55.49Q61.95-59.39 56.70-61.57Q51.46-63.74 45.18-63.74L45.18-63.74Q39.17-63.74 34.05-61.44Q28.93-59.14 25.22-55.17Q21.50-51.20 19.33-46.02Q17.15-40.83 17.15-34.94L17.15-34.94Q17.15-29.06 19.33-23.87Q21.50-18.69 25.22-14.78Q28.93-10.88 34.05-8.64Q39.17-6.40 45.18-6.40L45.18-6.40Q51.33-6.40 56.58-8.51Q61.82-10.62 65.66-14.46Q69.50-18.30 71.68-23.49Q73.86-28.67 73.86-34.82Z"/>,<path id="g-99" d="M77.70-20.61L77.70-20.61Q72.32-9.98 63.74-4.16Q55.17 1.66 42.88 1.66L42.88 1.66Q35.20 1.66 28.35-1.15Q21.50-3.97 16.38-8.83Q11.26-13.70 8.26-20.42Q5.25-27.14 5.25-34.94L5.25-34.94Q5.25-42.62 8.26-49.34Q11.26-56.06 16.38-61.06Q21.50-66.05 28.35-68.93Q35.20-71.81 42.88-71.81L42.88-71.81Q48.64-71.81 53.95-70.27Q59.26-68.74 63.81-65.73Q68.35-62.72 71.94-58.50Q75.52-54.27 77.70-48.90L77.70-48.90L67.84-48.90Q64.13-55.81 57.60-59.78Q51.07-63.74 43.14-63.74L43.14-63.74Q37.12-63.74 31.87-61.57Q26.62-59.39 22.66-55.55Q18.69-51.71 16.45-46.46Q14.21-41.22 14.21-35.20L14.21-35.20Q14.21-29.06 16.45-23.81Q18.69-18.56 22.59-14.72Q26.50-10.88 31.74-8.64Q36.99-6.40 43.14-6.40L43.14-6.40Q50.94-6.40 57.54-9.98Q64.13-13.57 67.84-20.61L67.84-20.61L77.70-20.61Z"/></defs></svg>