<svg xmlns="http://www.w3.org/2000/svg"><defs><path id="g-100" d="M79.36 0L67.07 0L67.07-10.11L66.82-10.11Q62.34-3.97 55.74-1.09Q49.15 1.79 41.73 1.79L41.73 1.79Q33.79 1.79 27.01-1.02Q20.22-3.84 15.30-8.77Q10.37-13.70 7.62-20.48Q4.86-27.26 4.86-35.20L4.86-35.20Q4.86-43.14 7.62-50.05Q10.37-56.96 15.23-62.02Q20.10-67.07 26.88-69.95Q33.66-72.83 41.73-72.83L41.73-72.83Q48.51-72.83 55.04-70.21Q61.57-67.58 65.79-62.21L65.79-62.21L66.05-62.21L66.05-94.72L79.36-94.72L79.36 0ZM67.07-35.33L67.07-35.33Q67.07-40.70 65.28-45.31Q63.49-49.92 60.22-53.31Q56.96-56.70 52.42-58.69Q47.87-60.67 42.50-60.67L42.50-60.67Q37.25-60.67 32.77-58.62Q28.29-56.58 25.02-53.12Q21.76-49.66 19.97-45.06Q18.18-40.45 18.18-35.33L18.18-35.33Q18.18-30.34 20.03-25.79Q21.89-21.25 25.15-17.86Q28.42-14.46 32.83-12.42Q37.25-10.37 42.37-10.37L42.37-10.37Q47.49-10.37 52.03-12.35Q56.58-14.34 59.90-17.73Q63.23-21.12 65.15-25.66Q67.07-30.21 67.07-35.33Z"/>,<path id="g-101" d="M77.44-36.35L77.44-36.35Q77.44-32.90 77.06-29.70L77.06-29.70L18.30-29.70Q19.33-25.60 21.44-22.02Q23.55-18.43 26.56-15.87Q29.57-13.31 33.41-11.84Q37.25-10.37 41.60-10.37L41.60-10.37Q47.87-10.37 53.38-13.50Q58.88-16.64 61.82-22.27L61.82-22.27L75.14-22.27Q73.09-16.90 69.70-12.42Q66.30-7.94 61.89-4.80Q57.47-1.66 52.16 0.06Q46.85 1.79 41.09 1.79L41.09 1.79Q33.54 1.79 26.94-1.28Q20.35-4.35 15.49-9.47Q10.62-14.59 7.81-21.38Q4.99-28.16 4.99-35.58L4.99-35.58Q4.99-43.26 7.74-50.05Q10.50-56.83 15.36-61.89Q20.22-66.94 26.88-69.89Q33.54-72.83 41.34-72.83L41.34-72.83Q48.90-72.83 55.49-69.95Q62.08-67.07 66.94-62.08Q71.81-57.09 74.62-50.43Q77.44-43.78 77.44-36.35ZM18.30-39.94L64.13-39.94Q63.87-44.29 61.89-48.06Q59.90-51.84 56.70-54.66Q53.50-57.47 49.54-59.07Q45.57-60.67 41.22-60.67L41.22-60.67Q36.86-60.67 32.90-59.07Q28.93-57.47 25.73-54.66Q22.53-51.84 20.54-48.06Q18.56-44.29 18.30-39.94L18.30-39.94Z"/>,<path id="g-102" d="M34.69-58.75L22.27-58.75L22.27 0L8.96 0L8.96-58.75L2.69-58.75L2.69-70.91L8.96-70.91L8.96-74.37Q8.96-79.74 10.94-83.84Q12.93-87.94 17.41-90.88L17.41-90.88Q19.71-92.29 21.70-93.06Q23.68-93.82 25.73-94.21Q27.78-94.59 29.95-94.66Q32.13-94.72 34.69-94.72L34.69-94.72L34.69-82.56Q32.64-82.56 30.46-82.24Q28.29-81.92 26.43-81.02Q24.58-80.13 23.42-78.53Q22.27-76.93 22.27-74.37L22.27-74.37L22.27-70.91L34.69-70.91L34.69-58.75Z"/>,<path id="g-103" d="M80.77-70.91L80.77-9.60Q80.77-0.64 78.08 6.34Q75.39 13.31 70.40 18.11Q65.41 22.91 58.30 25.41Q51.20 27.90 42.37 27.90L42.37 27.90Q30.72 27.90 21.44 22.14Q12.16 16.38 7.42 5.50L7.42 5.50L22.27 5.50Q29.44 15.74 42.50 15.74L42.50 15.74Q54.66 15.74 61.06 9.34Q67.46 2.94 67.46-9.34L67.46-9.34L67.20-9.34Q62.98-3.46 56.38-0.83Q49.79 1.79 42.75 1.79L42.75 1.79Q35.07 1.79 28.22-1.22Q21.38-4.22 16.19-9.28Q11.01-14.34 7.94-21.18Q4.86-28.03 4.86-35.71L4.86-35.71Q4.86-39.81 5.89-43.84Q6.91-47.87 8.70-51.58L8.70-51.58Q13.57-61.82 22.59-67.33Q31.62-72.83 43.01-72.83L43.01-72.83Q49.54-72.83 56.26-70.27Q62.98-67.71 67.46-62.72L67.46-62.72L67.46-70.91L80.77-70.91ZM67.46-35.33L67.46-35.33Q67.46-43.52 63.62-49.66Q59.78-55.81 52.10-58.75L52.10-58.75Q49.92-59.65 47.55-60.16Q45.18-60.67 42.75-60.67L42.75-60.67Q37.50-60.67 33.02-58.69Q28.54-56.70 25.28-53.25Q22.02-49.79 20.10-45.18Q18.18-40.58 18.18-35.46L18.18-35.46Q18.18-30.46 20.10-25.92Q22.02-21.38 25.34-17.92Q28.67-14.46 33.09-12.42Q37.50-10.37 42.62-10.37L42.62-10.37Q50.43-10.37 56.26-14.40Q62.08-18.43 65.15-25.47L65.15-25.47Q66.18-27.78 66.82-30.27Q67.46-32.77 67.46-35.33Z"/>,<path id="g-104" d="M71.42 0L58.11 0L58.11-38.53Q58.11-43.01 57.34-47.04Q56.58-51.07 54.59-54.08Q52.61-57.09 49.15-58.88Q45.70-60.67 40.45-60.67L40.45-60.67Q35.58-60.67 32.06-58.88Q28.54-57.09 26.24-54.08Q23.94-51.07 22.85-47.10Q21.76-43.14 21.76-38.66L21.76-38.66L21.76 0L8.45 0L8.45-94.72L21.76-94.72L21.76-63.36L22.02-63.36Q25.47-68.61 30.66-70.72Q35.84-72.83 41.86-72.83L41.86-72.83Q49.54-72.83 56.19-69.76Q62.85-66.69 66.94-60.16L66.94-60.16Q69.50-56.06 70.46-51.39Q71.42-46.72 71.42-41.98L71.42-41.98L71.42 0Z"/>,<path id="g-105" d="M21.89-79.10L8.58-79.10L8.58-94.72L21.89-94.72L21.89-79.10ZM21.89 0L8.58 0L8.58-70.91L21.89-70.91L21.89 0Z"/>,<path id="g-106" d="M23.55-79.10L10.24-79.10L10.24-94.72L23.55-94.72L23.55-79.10ZM23.55-70.91L23.55-0.38Q23.55 3.07 23.42 6.08Q23.30 9.09 22.59 11.78Q21.89 14.46 20.35 16.90Q18.82 19.33 16 21.76L16 21.76Q13.06 24.32 9.15 26.11Q5.25 27.90 1.41 27.90L1.41 27.90L1.41 13.95Q4.99 13.70 6.78 12.22Q8.58 10.75 9.34 8.45Q10.11 6.14 10.18 3.39Q10.24 0.64 10.24-2.05L10.24-2.05L10.24-70.91L23.55-70.91Z"/>,<path id="g-107" d="M23.42-36.74L48.64-70.91L64.38-70.91L38.66-37.50L68.48 0L51.84 0L23.42-36.74ZM23.17-94.72L23.17 0L9.86 0L9.86-94.72L23.17-94.72Z"/>,<path id="g-108" d="M21.89 0L8.58 0L8.58-94.72L21.89-94.72L21.89 0Z"/>,<path id="g-109" d="M115.84 0L102.53 0L102.53-39.42Q102.53-43.65 101.76-47.49Q100.99-51.33 99.07-54.27Q97.15-57.22 93.89-58.94Q90.62-60.67 85.76-60.67L85.76-60.67Q80.51-60.67 77.25-59.01Q73.98-57.34 72.13-54.46Q70.27-51.58 69.57-47.74Q68.86-43.90 68.86-39.55L68.86-39.55L68.86 0L55.55 0L55.55-39.42Q55.55-43.52 55.17-46.98Q54.78-50.43 52.61-54.02L52.61-54.02Q50.30-57.60 46.91-59.14Q43.52-60.67 39.42-60.67L39.42-60.67Q34.30-60.67 30.91-59.07Q27.52-57.47 25.54-54.59Q23.55-51.71 22.72-47.87Q21.89-44.03 21.89-39.55L21.89-39.55L21.89 0L8.58 0L8.58-70.91L20.86-70.91L20.86-63.23L21.12-63.23Q23.30-65.79 25.47-67.65Q27.65-69.50 30.02-70.66Q32.38-71.81 35.20-72.32Q38.02-72.83 41.47-72.83L41.47-72.83Q44.54-72.83 47.87-72.06Q51.20-71.30 54.21-69.82Q57.22-68.35 59.65-66.11Q62.08-63.87 63.49-60.93L63.49-60.93Q67.58-67.46 73.34-70.14Q79.10-72.83 86.91-72.83L86.91-72.83Q93.95-72.83 99.39-70.72Q104.83-68.61 108.48-64.64Q112.13-60.67 113.98-55.17Q115.84-49.66 115.84-42.75L115.84-42.75L115.84 0Z"/>,<path id="g-110" d="M71.42 0L58.11 0L58.11-38.53Q58.11-43.01 57.34-47.04Q56.58-51.07 54.59-54.08Q52.61-57.09 49.15-58.88Q45.70-60.67 40.45-60.67L40.45-60.67Q35.58-60.67 32.06-58.88Q28.54-57.09 26.24-54.08Q23.94-51.07 22.85-47.10Q21.76-43.14 21.76-38.66L21.76-38.66L21.76 0L8.45 0L8.45-70.91L20.86-70.91L20.86-63.36L21.12-63.36Q24.96-68.48 30.34-70.66Q35.71-72.83 41.86-72.83L41.86-72.83Q49.54-72.83 56.19-69.76Q62.85-66.69 66.94-60.16L66.94-60.16Q69.50-56.06 70.46-51.39Q71.42-46.72 71.42-41.98L71.42-41.98L71.42 0Z"/>,<path id="g-111" d="M81.41-35.71L81.41-35.71Q81.41-28.16 78.46-21.31Q75.52-14.46 70.34-9.34Q65.15-4.22 58.18-1.22Q51.20 1.79 43.14 1.79L43.14 1.79Q35.33 1.79 28.35-1.15Q21.38-4.10 16.19-9.22Q11.01-14.34 7.94-21.18Q4.86-28.03 4.86-35.97L4.86-35.97Q4.86-43.78 7.94-50.50Q11.01-57.22 16.32-62.21Q21.63-67.20 28.54-70.02Q35.46-72.83 43.14-72.83L43.14-72.83Q50.94-72.83 57.86-69.95Q64.77-67.07 70.02-62.08Q75.26-57.09 78.34-50.30Q81.41-43.52 81.41-35.71ZM68.10-35.71L68.10-35.71Q68.10-40.83 66.11-45.44Q64.13-50.05 60.80-53.38Q57.47-56.70 52.86-58.69Q48.26-60.67 43.14-60.67L43.14-60.67Q37.89-60.67 33.34-58.69Q28.80-56.70 25.47-53.31Q22.14-49.92 20.16-45.31Q18.18-40.70 18.18-35.58L18.18-35.58Q18.18-30.34 20.16-25.79Q22.14-21.25 25.47-17.79Q28.80-14.34 33.34-12.35Q37.89-10.37 43.14-10.37L43.14-10.37Q48.38-10.37 52.93-12.35Q57.47-14.34 60.86-17.79Q64.26-21.25 66.18-25.86Q68.10-30.46 68.10-35.71Z"/>,<path id="g-112" d="M82.94-34.56L82.94-34.56Q82.94-27.01 80.19-20.42Q77.44-13.82 72.64-8.90Q67.84-3.97 61.31-1.09Q54.78 1.79 47.10 1.79L47.10 1.79Q43.52 1.79 39.94 1.09Q36.35 0.38 33.02-1.09Q29.70-2.56 26.88-4.80Q24.06-7.04 22.14-10.24L22.14-10.24L21.89-10.24L21.89 23.68L8.58 23.68L8.58-70.91L20.74-70.91L20.74-60.03L20.99-60.03Q25.47-66.43 32-69.63Q38.53-72.83 46.21-72.83L46.21-72.83Q54.40-72.83 61.18-69.89Q67.97-66.94 72.77-61.76Q77.57-56.58 80.26-49.60Q82.94-42.62 82.94-34.56ZM69.63-35.33L69.63-35.33Q69.63-40.32 67.78-44.93Q65.92-49.54 62.66-53.06Q59.39-56.58 54.91-58.62Q50.43-60.67 45.31-60.67L45.31-60.67Q40.19-60.67 35.84-58.62Q31.49-56.58 28.35-53.12Q25.22-49.66 23.42-45.12Q21.63-40.58 21.63-35.58L21.63-35.58Q21.63-30.46 23.42-25.86Q25.22-21.25 28.42-17.79Q31.62-14.34 36.03-12.35Q40.45-10.37 45.70-10.37L45.70-10.37Q50.94-10.37 55.36-12.35Q59.78-14.34 62.91-17.73Q66.05-21.12 67.84-25.66Q69.63-30.21 69.63-35.33Z"/>,<path id="g-113" d="M79.36 23.68L66.05 23.68L66.05-9.86L65.79-9.86Q61.82-4.10 55.42-1.15Q49.02 1.79 42.11 1.79L42.11 1.79Q34.18 1.79 27.39-1.09Q20.61-3.97 15.62-9.02Q10.62-14.08 7.81-20.93Q4.99-27.78 4.99-35.58L4.99-35.58Q4.99-43.39 7.81-50.18Q10.62-56.96 15.55-62.02Q20.48-67.07 27.20-69.95Q33.92-72.83 41.73-72.83L41.73-72.83Q47.87-72.83 53.70-70.78Q59.52-68.74 64.13-64.51L64.13-64.51Q64.77-63.87 65.54-63.04Q66.30-62.21 66.82-61.44L66.82-61.44L67.07-61.44L67.07-70.91L79.36-70.91L79.36 23.68ZM67.20-35.20L67.20-35.20Q67.20-40.45 65.34-45.12Q63.49-49.79 60.22-53.25Q56.96-56.70 52.48-58.69Q48-60.67 42.62-60.67L42.62-60.67Q37.25-60.67 32.83-58.69Q28.42-56.70 25.15-53.31Q21.89-49.92 20.10-45.38Q18.30-40.83 18.30-35.58L18.30-35.58Q18.30-30.34 20.16-25.73Q22.02-21.12 25.28-17.73Q28.54-14.34 33.02-12.35Q37.50-10.37 42.88-10.37L42.88-10.37Q48-10.37 52.48-12.35Q56.96-14.34 60.22-17.73Q63.49-21.12 65.34-25.60Q67.20-30.08 67.20-35.20Z"/>,<path id="g-114" d="M39.30-59.14L39.30-59.14Q37.12-59.14 34.37-58.37Q31.62-57.60 29.70-56.58L29.70-56.58Q27.39-55.42 25.86-53.38Q24.32-51.33 23.42-48.90Q22.53-46.46 22.21-43.84Q21.89-41.22 21.89-38.78L21.89-38.78L21.89 0L8.58 0L8.58-70.91L20.99-70.91L20.99-64.51L21.25-64.51Q24.58-69.12 29.25-70.85Q33.92-72.58 39.30-72.83L39.30-72.83L39.30-59.14Z"/>,<path id="g-115" d="M51.46-20.86L51.46-20.86Q51.46-15.62 49.66-11.46Q47.87-7.30 44.67-4.35Q41.47-1.41 37.12 0.19Q32.77 1.79 27.65 1.79L27.65 1.79Q23.30 1.79 18.56 0.13L18.56 0.13Q10.62-2.69 6.59-8.77Q2.56-14.85 2.56-23.30L2.56-23.30L15.87-23.30Q16.26-17.79 19.07-14.08Q21.89-10.37 27.90-10.37L27.90-10.37Q32.38-10.37 35.26-12.93Q38.14-15.49 38.14-20.10L38.14-20.10Q38.14-23.81 35.78-25.92Q33.41-28.03 29.76-29.50Q26.11-30.98 21.95-32.38Q17.79-33.79 14.14-36.16Q10.50-38.53 8.13-42.30Q5.76-46.08 5.76-52.35L5.76-52.35Q5.76-56.96 7.62-60.74Q9.47-64.51 12.54-67.20Q15.62-69.89 19.65-71.36Q23.68-72.83 28.03-72.83L28.03-72.83Q32.64-72.83 36.54-71.30Q40.45-69.76 43.39-67.07Q46.34-64.38 48-60.54Q49.66-56.70 49.79-52.10L49.79-52.10L36.48-52.10Q35.97-55.94 33.73-58.30Q31.49-60.67 27.39-60.67L27.39-60.67Q24.06-60.67 21.57-58.69Q19.07-56.70 19.07-53.12L19.07-53.12Q19.07-50.82 20.10-49.28Q21.12-47.74 22.72-46.72Q24.32-45.70 26.30-45.06Q28.29-44.42 30.08-43.90L30.08-43.90Q34.43-42.50 38.34-40.70Q42.24-38.91 45.12-36.22Q48-33.54 49.73-29.76Q51.46-25.98 51.46-20.86Z"/>,<path id="g-116" d="M35.07-58.75L23.42-58.75L23.42 0L10.11 0L10.11-58.75L0.51-58.75L0.51-70.91L10.11-70.91L10.11-94.72L23.42-94.72L23.42-70.91L35.07-70.91L35.07-58.75Z"/>,<path id="g-117" d="M71.30 0L59.14 0L59.14-7.68L58.88-7.68Q57.34-5.12 54.98-3.33Q52.61-1.54 49.79-0.38Q46.98 0.77 43.90 1.28Q40.83 1.79 38.02 1.79L38.02 1.79Q32.38 1.79 27.20 0.13Q22.02-1.54 17.79-5.25L17.79-5.25Q14.85-7.81 13.06-11.01Q11.26-14.21 10.24-17.79Q9.22-21.38 8.83-25.09Q8.45-28.80 8.45-32.51L8.45-32.51L8.45-70.91L21.76-70.91L21.76-32.51Q21.76-27.78 22.53-23.74Q23.30-19.71 25.34-16.70Q27.39-13.70 30.78-12.03Q34.18-10.37 39.42-10.37L39.42-10.37Q44.54-10.37 48.06-12.16Q51.58-13.95 53.76-17.02Q55.94-20.10 56.96-24.19Q57.98-28.29 57.98-32.90L57.98-32.90L57.98-70.91L71.30-70.91L71.30 0Z"/>,<path id="g-118" d="M67.07-70.91L39.17 0L29.82 0L1.66-70.91L15.87-70.91L34.43-20.22L34.69-20.22L52.86-70.91L67.07-70.91Z"/>,<path id="g-119" d="M100.10-70.91L73.86 0L66.43 0L51.07-47.74L50.82-47.74L35.46 0L28.16 0L1.66-70.91L15.87-70.91L31.62-24.83L31.87-24.83L46.59-70.91L55.30-70.91L70.02-24.83L70.27-24.83L85.89-70.91L100.10-70.91Z"/>,<path id="g-120" d="M66.05 0L50.43 0L32.90-25.22L15.74 0L0.26 0L24.83-36.35L1.15-70.91L17.28-70.91L32.90-47.62L48.38-70.91L64.51-70.91L41.34-36.35L66.05 0Z"/>,<path id="g-121" d="M72.19-70.91L33.02 23.68L19.20 23.68L29.57-1.41L1.28-70.91L15.62-70.91L36.48-15.87L57.86-70.91L72.19-70.91Z"/>,<path id="g-122" d="M51.71 0L0.38 0L0.38-10.37L34.43-58.75L3.71-58.75L3.71-70.91L49.02-70.91L49.02-57.98L16.90-12.16L51.71-12.16L51.71 0Z"/>,<path id="g-123" d="M39.42 25.34L31.10 25.34Q27.39 25.34 24.19 24.06Q20.99 22.78 18.62 20.48Q16.26 18.18 14.91 15.04Q13.57 11.90 13.57 8.06L13.57 8.06L13.57-18.05Q13.57-22.91 10.11-26.24Q6.66-29.57 1.79-29.57L1.79-29.57L1.79-40.58Q4.10-40.58 6.21-41.34Q8.32-42.11 9.92-43.52Q11.52-44.93 12.54-46.85Q13.57-48.77 13.57-51.20L13.57-51.20L13.57-77.44Q13.57-81.28 14.91-84.42Q16.26-87.55 18.62-89.86Q20.99-92.16 24.19-93.44Q27.39-94.72 31.10-94.72L31.10-94.72L39.42-94.72L39.42-84.61L33.79-84.61Q31.62-84.61 30.27-83.84Q28.93-83.07 28.16-81.79Q27.39-80.51 27.14-78.78Q26.88-77.06 26.88-75.26L26.88-75.26L26.88-49.41Q26.88-43.65 23.42-39.81Q19.97-35.97 14.21-35.33L14.21-35.33L14.21-34.94Q20.61-34.05 23.74-30.21Q26.88-26.37 26.88-19.84L26.88-19.84L26.88 5.89Q26.88 7.68 27.14 9.34Q27.39 11.01 28.16 12.35Q28.93 13.70 30.27 14.46Q31.62 15.23 33.79 15.23L33.79 15.23L39.42 15.23L39.42 25.34Z"/>,<path id="g-124" d="M42.75 12.80L28.29 12.80L28.29-94.72L42.75-94.72L42.75 12.80Z"/>,<path id="g-125" d="M40.83-28.80L40.83-28.80Q38.53-28.80 36.42-28.03Q34.30-27.26 32.70-25.86Q31.10-24.45 30.08-22.53Q29.06-20.61 29.06-18.18L29.06-18.18L29.06 8.06Q29.06 11.90 27.71 15.04Q26.37 18.18 24 20.48Q21.63 22.78 18.43 24.06Q15.23 25.34 11.52 25.34L11.52 25.34L3.20 25.34L3.20 15.23L8.83 15.23Q11.01 15.23 12.35 14.46Q13.70 13.70 14.46 12.42Q15.23 11.14 15.49 9.41Q15.74 7.68 15.74 5.89L15.74 5.89L15.74-19.97Q15.74-25.73 19.20-29.57Q22.66-33.41 28.42-34.05L28.42-34.05L28.42-34.43Q22.02-35.33 18.88-39.17Q15.74-43.01 15.74-49.54L15.74-49.54L15.74-75.26Q15.74-77.06 15.49-78.72Q15.23-80.38 14.46-81.73Q13.70-83.07 12.35-83.84Q11.01-84.61 8.83-84.61L8.83-84.61L3.20-84.61L3.20-94.72L11.52-94.72Q15.23-94.72 18.43-93.44Q21.63-92.16 24-89.86Q26.37-87.55 27.71-84.42Q29.06-81.28 29.06-77.44L29.06-77.44L29.06-51.33Q29.06-46.46 32.51-43.14Q35.97-39.81 40.83-39.81L40.83-39.81L40.83-28.80Z"/>,<path id="g-126" d="M75.14-38.78L75.14-38.78Q71.17-33.15 66.62-30.08Q62.08-27.01 55.30-27.01L55.30-27.01Q51.84-27.01 48.06-27.97Q44.29-28.93 40.58-31.10L40.58-31.10Q37.76-32.77 34.75-33.98Q31.74-35.20 28.42-35.20L28.42-35.20Q26.37-35.20 24.64-34.37Q22.91-33.54 21.50-32.26Q20.10-30.98 18.94-29.44Q17.79-27.90 17.02-26.62L17.02-26.62L8.19-36.74Q9.98-39.17 11.97-41.34Q13.95-43.52 16.32-45.12Q18.69-46.72 21.50-47.62Q24.32-48.51 27.90-48.51L27.90-48.51Q32-48.51 35.65-47.42Q39.30-46.34 42.50-44.54L42.50-44.54Q45.82-42.62 48.83-41.47Q51.84-40.32 54.91-40.32L54.91-40.32Q56.83-40.32 58.50-41.09Q60.16-41.86 61.57-43.14Q62.98-44.42 64.13-45.89Q65.28-47.36 66.30-48.90L66.30-48.90L75.14-38.78Z"/>,<path id="g-13" d=""/>,<path id="g-160" d=""/>,<path id="g-161" d="M24.32-55.42L11.01-55.42L11.01-71.04L24.32-71.04L24.32-55.42ZM24.32 23.68L11.01 23.68L11.01-47.36L24.32-47.36L24.32 23.68Z"/>,<path id="g-162" d="M66.18-62.08L50.94-62.08Q49.02-66.18 44.93-67.90Q40.83-69.63 36.61-69.63L36.61-69.63Q32.77-69.63 29.38-68.29Q25.98-66.94 23.49-64.51Q20.99-62.08 19.58-58.82Q18.18-55.55 18.18-51.58L18.18-51.58Q18.18-47.74 19.65-44.48Q21.12-41.22 23.62-38.85Q26.11-36.48 29.44-35.14Q32.77-33.79 36.61-33.79L36.61-33.79Q41.09-33.79 44.67-35.46Q48.26-37.12 50.82-40.83L50.82-40.83L65.79-40.83Q62.98-32.90 56.77-28.03Q50.56-23.17 42.50-21.38L42.50-21.38L42.50-8.83L30.34-8.83L30.34-21.38Q24.58-22.66 19.90-25.41Q15.23-28.16 11.84-32.13Q8.45-36.10 6.66-41.15Q4.86-46.21 4.86-52.22L4.86-52.22Q4.86-58.11 6.72-63.17Q8.58-68.22 11.90-72.13Q15.23-76.03 19.90-78.72Q24.58-81.41 30.34-82.43L30.34-82.43L30.34-94.72L42.50-94.72L42.50-82.43Q51.33-81.02 57.28-75.71Q63.23-70.40 66.18-62.08L66.18-62.08Z"/>,<path id="g-163" d="M69.89-27.78L69.89-27.78Q69.89-21.25 67.78-16.06Q65.66-10.88 61.82-7.30Q57.98-3.71 52.67-1.86Q47.36 0 40.83 0L40.83 0L5.38 0L5.38-12.16L22.27-12.16Q23.81-15.10 24.38-17.66Q24.96-20.22 24.96-23.55L24.96-23.55Q24.96-29.31 22.59-33.98Q20.22-38.66 15.49-41.86L15.49-41.86L1.15-41.86L1.15-54.02L6.27-54.02Q4.48-56.96 3.90-59.58Q3.33-62.21 3.33-65.54L3.33-65.54Q3.33-72.45 5.63-78.14Q7.94-83.84 12.10-87.94Q16.26-92.03 22.02-94.27Q27.78-96.51 34.69-96.51L34.69-96.51Q40.45-96.51 45.63-94.66Q50.82-92.80 54.91-89.41Q59.01-86.02 61.82-81.28Q64.64-76.54 65.79-70.91L65.79-70.91L51.33-70.91Q49.41-77.18 45.31-80.77Q41.22-84.35 34.30-84.35L34.30-84.35Q30.21-84.35 26.94-82.88Q23.68-81.41 21.38-78.85Q19.07-76.29 17.86-72.83Q16.64-69.38 16.64-65.54L16.64-65.54Q16.64-61.82 17.73-59.20Q18.82-56.58 21.38-54.02L21.38-54.02L49.41-54.02L49.41-41.86L31.49-41.86Q35.46-38.40 36.86-33.34Q38.27-28.29 38.27-23.30L38.27-23.30Q38.27-20.35 37.82-17.66Q37.38-14.98 36.61-12.16L36.61-12.16L40.83-12.16Q48.13-12.16 52.35-16.26Q56.58-20.35 56.58-27.65L56.58-27.65Q56.58-29.82 56.13-31.42Q55.68-33.02 54.78-34.82L54.78-34.82L69.12-34.82Q69.89-31.36 69.89-27.78Z"/>,<path id="g-164" d="M73.09-15.74L66.18-8.70L56.06-18.94Q51.97-16 47.36-14.46Q42.75-12.93 37.76-12.93L37.76-12.93Q32.90-12.93 28.22-14.46Q23.55-16 19.46-18.94L19.46-18.94L9.22-8.83L2.30-15.62L12.80-26.11Q9.86-29.95 8.32-34.37Q6.78-38.78 6.78-43.65L6.78-43.65Q6.78-53.76 12.93-61.70L12.93-61.70L2.18-72.19L9.22-79.23L19.84-68.61Q27.90-74.50 37.76-74.50L37.76-74.50Q42.50-74.50 47.04-73.09Q51.58-71.68 55.42-68.74L55.42-68.74L66.05-79.10L72.96-72.19L62.59-61.82Q65.54-57.73 67.07-53.18Q68.61-48.64 68.61-43.65L68.61-43.65Q68.61-38.78 67.07-34.37Q65.54-29.95 62.72-26.11L62.72-26.11L73.09-15.74ZM55.94-43.78L55.94-43.78Q55.94-47.49 54.53-50.82Q53.12-54.14 50.62-56.64Q48.13-59.14 44.86-60.61Q41.60-62.08 37.76-62.08L37.76-62.08Q33.92-62.08 30.59-60.61Q27.26-59.14 24.77-56.64Q22.27-54.14 20.86-50.82Q19.46-47.49 19.46-43.65L19.46-43.65Q19.46-39.94 20.93-36.67Q22.40-33.41 24.90-30.91Q27.39-28.42 30.72-26.94Q34.05-25.47 37.76-25.47L37.76-25.47Q41.47-25.47 44.80-26.94Q48.13-28.42 50.62-30.91Q53.12-33.41 54.53-36.74Q55.94-40.06 55.94-43.78Z"/>,<path id="g-165" d="M71.04-94.72L52.61-62.21L68.48-62.21L68.48-51.20L47.10-51.20L42.11-42.11L42.11-36.61L68.48-36.61L68.48-25.60L42.11-25.60L42.11 0L28.80 0L28.80-25.60L2.56-25.60L2.56-36.61L28.80-36.61L28.80-42.11L23.81-51.20L2.56-51.20L2.56-62.21L18.30-62.21L0-94.72L14.46-94.72L35.46-56.58L56.58-94.72L71.04-94.72Z"/>,<path id="g-167" d="M68.35-33.66L68.35-33.66Q68.35-26.88 65.28-22.21Q62.21-17.54 56.83-13.95L56.83-13.95Q64.38-7.42 64.38 2.56L64.38 2.56Q64.38 8.45 62.21 13.25Q60.03 18.05 56.26 21.38Q52.48 24.70 47.42 26.56Q42.37 28.42 36.74 28.42L36.74 28.42Q30.59 28.42 25.54 26.37Q20.48 24.32 16.83 20.67Q13.18 17.02 11.01 11.90Q8.83 6.78 8.58 0.77L8.58 0.77L21.89 0.77Q22.40 7.68 26.24 11.71Q30.08 15.74 37.12 15.74L37.12 15.74Q43.01 15.74 47.04 12.42Q51.07 9.09 51.07 2.94L51.07 2.94Q51.07 0.38 50.05-1.60Q49.02-3.58 47.36-5.12Q45.70-6.66 43.65-7.87Q41.60-9.09 39.55-10.11L39.55-10.11L19.97-20.22Q16.64-21.89 13.89-23.81Q11.14-25.73 9.22-28.16Q7.30-30.59 6.27-33.73Q5.25-36.86 5.25-40.96L5.25-40.96Q5.25-47.49 8.38-52.48Q11.52-57.47 17.15-60.80L17.15-60.80Q14.85-64 13.50-67.07Q12.16-70.14 12.16-74.24L12.16-74.24Q12.16-76.67 12.80-79.04Q13.44-81.41 14.46-83.58L14.46-83.58Q17.66-90.11 23.55-93.31Q29.44-96.51 36.74-96.51L36.74-96.51Q48-96.51 54.72-89.98Q61.44-83.46 62.72-72.32L62.72-72.32L49.41-72.32Q48.51-77.44 45.63-80.64Q42.75-83.84 37.25-83.84L37.25-83.84Q32.38-83.84 28.93-81.22Q25.47-78.59 25.47-73.34L25.47-73.34Q25.47-71.30 26.30-69.76Q27.14-68.22 28.42-67.07Q29.70-65.92 31.30-64.96Q32.90-64 34.43-63.23L34.43-63.23L51.84-54.14Q55.04-52.48 58.05-50.56Q61.06-48.64 63.36-46.27Q65.66-43.90 67.01-40.83Q68.35-37.76 68.35-33.66ZM55.04-32L55.04-32Q55.04-36.35 52.48-38.53Q49.92-40.70 46.46-42.50L46.46-42.50L25.09-53.38Q22.27-51.58 20.42-48.58Q18.56-45.57 18.56-42.11L18.56-42.11Q18.56-38.78 20.35-36.10Q22.14-33.41 25.09-32L25.09-32L48-20.22Q50.94-22.78 52.99-25.34Q55.04-27.90 55.04-32Z"/>,<path id="g-171" d="M43.14-13.06L25.60-30.21L25.60-43.39L43.14-60.80L43.14-46.34L33.54-36.86L43.14-27.39L43.14-13.06ZM21.76-13.06L4.22-30.21L4.22-43.39L21.76-60.80L21.76-46.34L12.16-36.86L21.76-27.39L21.76-13.06Z"/>,<path id="g-172" d="M70.66-13.82L57.34-13.82L57.34-39.68L6.14-39.68L6.14-52.99L70.66-52.99L70.66-13.82Z"/>,<path id="g-173" d="M35.84-30.34L0-30.34L0-43.65L35.84-43.65L35.84-30.34Z"/>,<path id="g-177" d="M70.66-42.50L45.06-42.50L45.06-21.76L31.74-21.76L31.74-42.50L6.14-42.50L6.14-55.81L31.74-55.81L31.74-76.54L45.06-76.54L45.06-55.81L70.66-55.81L70.66-42.50ZM70.66 0L6.14 0L6.14-13.31L70.66-13.31L70.66 0Z"/>,<path id="g-178" d="M40.70-54.02L3.58-54.02L3.58-61.95L25.34-83.97Q27.39-86.02 28.86-88.26Q30.34-90.50 30.34-93.44L30.34-93.44Q30.34-97.02 28.10-99.71Q25.86-102.40 22.14-102.40L22.14-102.40Q18.18-102.40 15.81-99.71Q13.44-97.02 13.44-93.18L13.44-93.18L13.44-90.88L3.20-90.88L3.20-93.44Q3.20-97.28 4.67-100.67Q6.14-104.06 8.64-106.62Q11.14-109.18 14.53-110.66Q17.92-112.13 21.76-112.13L21.76-112.13Q25.60-112.13 29.06-110.66Q32.51-109.18 35.07-106.69Q37.63-104.19 39.10-100.80Q40.58-97.41 40.58-93.44L40.58-93.44Q40.58-88.45 38.46-84.86Q36.35-81.28 33.02-77.95L33.02-77.95L18.94-63.74L40.70-63.74L40.70-54.02Z"/>,<path id="g-179" d="M40.45-71.17L40.45-71.17Q40.45-67.20 38.85-63.81Q37.25-60.42 34.56-57.98Q31.87-55.55 28.35-54.14Q24.83-52.74 20.99-52.74L20.99-52.74Q17.02-52.74 13.57-54.14Q10.11-55.55 7.55-58.05Q4.99-60.54 3.52-64Q2.05-67.46 2.05-71.42L2.05-71.42L12.29-71.42Q12.54-67.33 14.98-64.90Q17.41-62.46 21.50-62.46L21.50-62.46Q25.34-62.46 27.78-64.90Q30.21-67.33 30.21-71.17L30.21-71.17Q30.21-75.26 27.58-77.63Q24.96-80 20.99-80L20.99-80L17.66-80L17.66-89.73L20.86-89.73Q23.94-89.73 25.79-91.52Q27.65-93.31 27.65-96.38L27.65-96.38Q27.65-99.20 25.98-100.80Q24.32-102.40 21.50-102.40L21.50-102.40Q18.56-102.40 17.09-100.61Q15.62-98.82 15.49-96L15.49-96L5.25-96Q5.25-99.46 6.53-102.40Q7.81-105.34 9.98-107.52Q12.16-109.70 15.10-110.91Q18.05-112.13 21.50-112.13L21.50-112.13Q24.96-112.13 27.97-110.85Q30.98-109.57 33.15-107.33Q35.33-105.09 36.61-102.08Q37.89-99.07 37.89-95.62L37.89-95.62Q37.89-91.90 36.61-89.60Q35.33-87.30 32.77-84.99L32.77-84.99Q36.86-82.56 38.66-79.23Q40.45-75.90 40.45-71.17Z"/>,<path id="g-181" d="M70.40 0L57.09 0L57.09-7.68L56.83-7.68Q53.76-2.56 49.47-0.38Q45.18 1.79 39.17 1.79L39.17 1.79Q34.82 1.79 30.40 0.13Q25.98-1.54 23.04-4.86L23.04-4.86L22.78-4.86L22.78 23.68L9.47 23.68L9.47-70.91L22.78-70.91L22.78-36.35Q22.78-34.43 22.91-32Q23.04-29.57 23.36-27.07Q23.68-24.58 24.26-22.21Q24.83-19.84 25.73-18.18L25.73-18.18Q27.78-14.46 31.36-12.42Q34.94-10.37 39.17-10.37L39.17-10.37Q44.80-10.37 48.32-12.93Q51.84-15.49 53.76-19.52Q55.68-23.55 56.38-28.35Q57.09-33.15 57.09-37.76L57.09-37.76L57.09-70.91L70.40-70.91L70.40 0Z"/>,<path id="g-182" d="M68.48 24.45L55.17 24.45L55.17-79.36L41.60-79.36L41.60 24.45L28.29 24.45L28.29-43.90Q22.91-43.90 17.86-45.12Q12.80-46.34 8.90-49.02Q4.99-51.71 2.62-56Q0.26-60.29 0.26-66.30L0.26-66.30Q0.26-73.34 2.82-77.89Q5.38-82.43 9.60-85.06Q13.82-87.68 19.39-88.64Q24.96-89.60 30.98-89.60L30.98-89.60L68.48-89.60L68.48 24.45Z"/>,<path id="g-183" d="M23.55-25.60L11.90-25.60L11.90-39.42L23.55-39.42L23.55-25.60Z"/>,<path id="g-185" d="M22.40-54.02L12.16-54.02L12.16-101.12L4.22-101.12L4.22-110.85L22.40-110.85L22.40-54.02Z"/>,<path id="g-187" d="M43.14-30.21L25.60-13.06L25.60-27.39L35.20-36.86L25.60-46.34L25.60-60.80L43.14-43.39L43.14-30.21ZM21.76-30.21L4.22-13.06L4.22-27.39L13.82-36.86L4.22-46.34L4.22-60.80L21.76-43.39L21.76-30.21Z"/>,<path id="g-188" d="M20.22-37.89L9.98-37.89L9.98-84.99L2.05-84.99L2.05-94.72L20.22-94.72L20.22-37.89ZM87.55-8.83L81.41-8.83L81.41 0L72.45 0L72.45-8.83L46.08-8.83L46.08-17.66L72.70-56.83L81.41-56.83L81.41-17.54L87.55-17.54L87.55-8.83ZM72.45-17.54L72.45-41.86L72.19-41.86L56.70-17.54L72.45-17.54ZM68.22-94.72L25.60 0L16.26 0L58.88-94.72L68.22-94.72Z"/>,<path id="g-189" d="M20.22-37.89L9.98-37.89L9.98-84.99L2.05-84.99L2.05-94.72L20.22-94.72L20.22-37.89ZM65.15-94.72L22.53 0L13.18 0L55.81-94.72L65.15-94.72ZM89.34 0L52.22 0L52.22-7.94L73.98-29.95Q76.03-32 77.50-34.24Q78.98-36.48 78.98-39.42L78.98-39.42Q78.98-43.01 76.74-45.70Q74.50-48.38 70.78-48.38L70.78-48.38Q66.82-48.38 64.45-45.70Q62.08-43.01 62.08-39.17L62.08-39.17L62.08-36.86L51.84-36.86L51.84-39.42Q51.84-43.26 53.31-46.66Q54.78-50.05 57.28-52.61Q59.78-55.17 63.17-56.64Q66.56-58.11 70.40-58.11L70.40-58.11Q74.24-58.11 77.70-56.64Q81.15-55.17 83.71-52.67Q86.27-50.18 87.74-46.78Q89.22-43.39 89.22-39.42L89.22-39.42Q89.22-34.43 87.10-30.85Q84.99-27.26 81.66-23.94L81.66-23.94L67.58-9.73L89.34-9.73L89.34 0Z"/>,<path id="g-190" d="M40.45-55.04L40.45-55.04Q40.45-51.07 38.85-47.68Q37.25-44.29 34.56-41.86Q31.87-39.42 28.35-38.02Q24.83-36.61 20.99-36.61L20.99-36.61Q17.02-36.61 13.57-38.02Q10.11-39.42 7.55-41.92Q4.99-44.42 3.52-47.87Q2.05-51.33 2.05-55.30L2.05-55.30L12.29-55.30Q12.54-51.20 14.98-48.77Q17.41-46.34 21.50-46.34L21.50-46.34Q25.34-46.34 27.78-48.77Q30.21-51.20 30.21-55.04L30.21-55.04Q30.21-59.14 27.58-61.50Q24.96-63.87 20.99-63.87L20.99-63.87L17.66-63.87L17.66-73.60L20.86-73.60Q23.94-73.60 25.79-75.39Q27.65-77.18 27.65-80.26L27.65-80.26Q27.65-83.07 25.98-84.67Q24.32-86.27 21.50-86.27L21.50-86.27Q18.56-86.27 17.09-84.48Q15.62-82.69 15.49-79.87L15.49-79.87L5.25-79.87Q5.25-83.33 6.53-86.27Q7.81-89.22 9.98-91.39Q12.16-93.57 15.10-94.78Q18.05-96 21.50-96L21.50-96Q24.96-96 27.97-94.72Q30.98-93.44 33.15-91.20Q35.33-88.96 36.61-85.95Q37.89-82.94 37.89-79.49L37.89-79.49Q37.89-75.78 36.61-73.47Q35.33-71.17 32.77-68.86L32.77-68.86Q36.86-66.43 38.66-63.10Q40.45-59.78 40.45-55.04ZM78.59-94.72L35.97 0L26.62 0L69.25-94.72L78.59-94.72ZM97.92-8.83L91.78-8.83L91.78 0L82.82 0L82.82-8.83L56.45-8.83L56.45-17.66L83.07-56.83L91.78-56.83L91.78-17.54L97.92-17.54L97.92-8.83ZM82.82-17.54L82.82-41.86L82.56-41.86L67.07-17.54L82.82-17.54Z"/>,<path id="g-191" d="M40.83-55.42L27.52-55.42L27.52-71.04L40.83-71.04L40.83-55.42ZM48.90-3.33L62.21-3.33Q61.82 5.89 57.34 12.93Q52.86 19.97 44.16 23.42L44.16 23.42Q38.66 25.47 33.41 25.47L33.41 25.47Q27.52 25.47 22.40 23.17Q17.28 20.86 13.44 16.96Q9.60 13.06 7.36 7.81Q5.12 2.56 5.12-3.20L5.12-3.20Q5.12-7.30 5.82-10.30Q6.53-13.31 8-15.87Q9.47-18.43 11.58-20.74Q13.70-23.04 16.51-25.60L16.51-25.60Q19.33-28.16 21.18-30.40Q23.04-32.64 24.32-35.07Q25.60-37.50 26.30-40.26Q27.01-43.01 27.52-46.72L27.52-46.72L40.83-46.72Q40.58-37.63 37.12-31.10Q33.66-24.58 27.52-18.30L27.52-18.30Q25.98-16.64 24.32-15.10Q22.66-13.57 21.38-11.84Q20.10-10.11 19.26-8.13Q18.43-6.14 18.43-3.71L18.43-3.71Q18.43-0.51 19.58 2.30Q20.74 5.12 22.72 7.30Q24.70 9.47 27.46 10.75Q30.21 12.03 33.54 12.03L33.54 12.03Q37.38 12.03 40.70 10.18Q44.03 8.32 46.21 5.12L46.21 5.12Q47.62 2.94 48.13 1.09Q48.64-0.77 48.90-3.33L48.90-3.33Z"/>,<path id="g-215" d="M68.99-11.01L59.78-1.79L38.40-23.30L17.02-1.79L7.81-11.01L29.18-32.38L7.81-53.76L17.02-62.98L38.40-41.60L59.78-62.98L68.99-53.76L47.49-32.38L68.99-11.01Z"/>,<path id="g-247" d="M45.06-50.94L31.74-50.94L31.74-64.77L45.06-64.77L45.06-50.94ZM70.66-25.73L6.14-25.73L6.14-39.04L70.66-39.04L70.66-25.73ZM45.06 0L31.74 0L31.74-13.82L45.06-13.82L45.06 0Z"/>,<path id="g-32" d=""/>,<path id="g-33" d="M24.45-23.30L11.14-23.30L11.14-94.72L24.45-94.72L24.45-23.30ZM24.45 0L11.14 0L11.14-15.62L24.45-15.62L24.45 0Z"/>,<path id="g-34" d="M39.17-94.72L36.61-56.83L27.52-56.83L25.09-94.72L39.17-94.72ZM16.64-94.72L14.08-56.83L4.99-56.83L2.56-94.72L16.64-94.72Z"/>,<path id="g-35" d="M67.07-63.49L66.82-52.74L55.04-52.74L52.86-36.86L63.23-36.86L62.98-26.11L51.33-26.11L47.62 0L36.35 0L39.94-26.11L26.88-26.11L23.17 0L11.90 0L15.49-26.11L3.84-26.11L4.10-36.86L17.02-36.86L19.20-52.74L7.68-52.74L7.94-63.49L20.74-63.49L24.32-89.60L35.71-89.60L32.13-63.49L45.18-63.49L48.77-89.60L60.16-89.60L56.58-63.49L67.07-63.49ZM43.65-52.74L30.59-52.74L28.42-36.86L41.47-36.86L43.65-52.74Z"/>,<path id="g-36" d="M62.34-29.70L62.34-29.70Q62.34-24.83 61.06-20.48Q59.78-16.13 57.28-12.67Q54.78-9.22 50.94-6.85Q47.10-4.48 42.11-3.71L42.11-3.71L42.11 10.50L29.95 10.50L29.95-3.71Q20.10-6.27 14.72-12.74Q9.34-19.20 8.70-29.44L8.70-29.44L22.02-29.44Q22.66-23.17 26.18-19.14Q29.70-15.10 36.22-15.10L36.22-15.10Q42.62-15.10 45.82-19.33Q49.02-23.55 49.02-29.57L49.02-29.57Q49.02-33.28 47.62-35.78Q46.21-38.27 43.90-39.94Q41.60-41.60 38.66-42.62Q35.71-43.65 32.64-44.42L32.64-44.42Q28.03-45.70 24.32-47.49Q20.61-49.28 17.92-51.97Q15.23-54.66 13.82-58.50Q12.42-62.34 12.42-67.58L12.42-67.58Q12.42-76.03 17.02-82.43Q21.63-88.83 29.95-91.01L29.95-91.01L29.95-105.34L42.11-105.34L42.11-91.01Q46.59-90.50 50.05-88.58Q53.50-86.66 55.94-83.78Q58.37-80.90 59.65-77.06Q60.93-73.22 61.06-68.86L61.06-68.86L47.74-68.86Q47.36-73.98 44.54-76.80Q41.73-79.62 36.48-79.62L36.48-79.62Q31.36-79.62 28.54-75.97Q25.73-72.32 25.73-67.58L25.73-67.58Q25.73-64.13 27.07-62.02Q28.42-59.90 30.59-58.56Q32.77-57.22 35.52-56.51Q38.27-55.81 40.96-55.04L40.96-55.04Q50.82-52.48 56.58-46.53Q62.34-40.58 62.34-29.70Z"/>,<path id="g-37" d="M52.99-73.22L52.99-73.22Q52.99-68.48 51.14-64.32Q49.28-60.16 46.14-57.02Q43.01-53.89 38.78-52.10Q34.56-50.30 29.82-50.30L29.82-50.30Q25.09-50.30 20.86-52.10Q16.64-53.89 13.50-57.02Q10.37-60.16 8.51-64.32Q6.66-68.48 6.66-73.22L6.66-73.22Q6.66-77.95 8.51-82.11Q10.37-86.27 13.50-89.41Q16.64-92.54 20.86-94.34Q25.09-96.13 29.82-96.13L29.82-96.13Q34.56-96.13 38.78-94.34Q43.01-92.54 46.14-89.41Q49.28-86.27 51.14-82.11Q52.99-77.95 52.99-73.22ZM84.48-94.72L30.21 0L21.63 0L75.90-94.72L84.48-94.72ZM100.35-21.25L100.35-21.25Q100.35-16.51 98.50-12.35Q96.64-8.19 93.50-5.06Q90.37-1.92 86.14-0.13Q81.92 1.66 77.18 1.66L77.18 1.66Q72.45 1.66 68.22-0.13Q64-1.92 60.86-5.06Q57.73-8.19 55.87-12.35Q54.02-16.51 54.02-21.25L54.02-21.25Q54.02-25.98 55.87-30.14Q57.73-34.30 60.86-37.44Q64-40.58 68.22-42.37Q72.45-44.16 77.18-44.16L77.18-44.16Q81.92-44.16 86.14-42.37Q90.37-40.58 93.50-37.44Q96.64-34.30 98.50-30.14Q100.35-25.98 100.35-21.25ZM41.47-73.22L41.47-73.22Q41.47-75.65 40.58-77.82Q39.68-80 38.08-81.60Q36.48-83.20 34.37-84.16Q32.26-85.12 29.82-85.12L29.82-85.12Q27.39-85.12 25.28-84.16Q23.17-83.20 21.57-81.60Q19.97-80 19.07-77.82Q18.18-75.65 18.18-73.22L18.18-73.22Q18.18-70.78 19.07-68.61Q19.97-66.43 21.57-64.83Q23.17-63.23 25.28-62.27Q27.39-61.31 29.82-61.31L29.82-61.31Q32.26-61.31 34.37-62.27Q36.48-63.23 38.08-64.83Q39.68-66.43 40.58-68.61Q41.47-70.78 41.47-73.22ZM88.83-21.25L88.83-21.25Q88.83-23.68 87.94-25.86Q87.04-28.03 85.44-29.63Q83.84-31.23 81.73-32.19Q79.62-33.15 77.18-33.15L77.18-33.15Q74.75-33.15 72.64-32.19Q70.53-31.23 68.93-29.63Q67.33-28.03 66.43-25.86Q65.54-23.68 65.54-21.25L65.54-21.25Q65.54-18.82 66.43-16.64Q67.33-14.46 68.93-12.86Q70.53-11.26 72.64-10.30Q74.75-9.34 77.18-9.34L77.18-9.34Q79.62-9.34 81.73-10.30Q83.84-11.26 85.44-12.86Q87.04-14.46 87.94-16.64Q88.83-18.82 88.83-21.25Z"/>,<path id="g-38" d="M86.53-7.55L77.31 1.79L60.80-14.85Q55.94-7.42 49.22-2.82Q42.50 1.79 33.28 1.79L33.28 1.79Q27.26 1.79 22.02-0.38Q16.77-2.56 12.80-6.34Q8.83-10.11 6.59-15.30Q4.35-20.48 4.35-26.50L4.35-26.50Q4.35-35.71 9.22-42.75Q14.08-49.79 22.53-53.50L22.53-53.50Q18.43-57.73 15.94-61.95Q13.44-66.18 13.44-72.32L13.44-72.32Q13.44-77.44 15.23-81.86Q17.02-86.27 20.22-89.54Q23.42-92.80 27.84-94.66Q32.26-96.51 37.38-96.51L37.38-96.51Q42.37-96.51 46.72-94.59Q51.07-92.67 54.21-89.41Q57.34-86.14 59.14-81.79Q60.93-77.44 60.93-72.45L60.93-72.45Q60.93-64.26 56.58-58.69Q52.22-53.12 45.06-49.66L45.06-49.66L57.60-37.38L67.97-58.24L82.94-58.24L67.46-27.01L86.53-7.55ZM47.10-72.83L47.10-72.83Q47.10-77.18 44.42-80.51Q41.73-83.84 37.25-83.84L37.25-83.84Q34.82-83.84 32.96-82.88Q31.10-81.92 29.82-80.32Q28.54-78.72 27.90-76.61Q27.26-74.50 27.26-72.32L27.26-72.32Q27.26-68.10 29.82-64.83Q32.38-61.57 35.33-58.88L35.33-58.88Q37.63-60.03 39.74-61.31Q41.86-62.59 43.46-64.19Q45.06-65.79 46.08-67.90Q47.10-70.02 47.10-72.83ZM51.58-24.45L31.62-44.16Q25.47-41.98 21.82-37.63Q18.18-33.28 18.18-26.50L18.18-26.50Q18.18-19.84 22.34-15.36Q26.50-10.88 33.28-10.88L33.28-10.88Q36.61-10.88 39.36-11.97Q42.11-13.06 44.35-14.91Q46.59-16.77 48.38-19.26Q50.18-21.76 51.58-24.45L51.58-24.45Z"/>,<path id="g-39" d="M20.99-94.72L18.43-56.83L9.47-56.83L6.91-94.72L20.99-94.72Z"/>,<path id="g-40" d="M45.70 32.90L45.70 32.90Q41.73 30.85 38.14 28.22Q34.56 25.60 31.23 22.66L31.23 22.66Q19.58 11.78 13.31-2.30Q7.04-16.38 7.04-32.38L7.04-32.38Q7.04-41.98 9.73-51.58Q12.42-61.18 17.41-69.70Q22.40-78.21 29.38-85.18Q36.35-92.16 44.93-96.64L44.93-96.64L44.93-80.13Q39.17-75.14 34.69-70.02Q30.21-64.90 27.14-59.26Q24.06-53.63 22.46-47.04Q20.86-40.45 20.86-32.51L20.86-32.51Q20.86-24.45 22.46-17.66Q24.06-10.88 27.20-4.93Q30.34 1.02 35.01 6.21Q39.68 11.39 45.70 16.26L45.70 16.26L45.70 32.90Z"/>,<path id="g-41" d="M45.06-31.36L45.06-31.36Q45.06-21.76 42.37-12.16Q39.68-2.56 34.69 5.95Q29.70 14.46 22.72 21.44Q15.74 28.42 7.17 32.90L7.17 32.90L7.17 16.38Q12.93 11.26 17.41 6.21Q21.89 1.15 24.96-4.48Q28.03-10.11 29.63-16.64Q31.23-23.17 31.23-31.23L31.23-31.23Q31.23-39.30 29.63-46.08Q28.03-52.86 24.90-58.75Q21.76-64.64 17.09-69.89Q12.42-75.14 6.40-80L6.40-80L6.40-96.64Q15.23-92.03 22.40-84.99Q29.57-77.95 34.62-69.31Q39.68-60.67 42.37-50.94Q45.06-41.22 45.06-31.36Z"/>,<path id="g-42" d="M61.18-73.73L43.52-68.22L54.66-53.50L47.36-48.26L36.74-63.36L26.11-48.26L18.82-53.50L29.95-68.22L12.29-73.73L15.10-82.18L32.51-76.29L32.38-94.72L41.34-94.72L40.96-76.29L58.37-82.18L61.18-73.73Z"/>,<path id="g-43" d="M70.66-25.73L45.06-25.73L45.06 0L31.74 0L31.74-25.73L6.14-25.73L6.14-39.04L31.74-39.04L31.74-64.77L45.06-64.77L45.06-39.04L70.66-39.04L70.66-25.73Z"/>,<path id="g-44" d="M24.45-1.41L24.45-1.41Q24.45 5.63 21.44 10.24Q18.43 14.85 11.14 16.26L11.14 16.26L11.14 8.32Q14.34 7.17 15.10 5.25Q15.87 3.33 15.87 0L15.87 0L11.14 0L11.14-15.62L24.45-15.62L24.45-1.41Z"/>,<path id="g-45" d="M35.84-30.34L0-30.34L0-43.65L35.84-43.65L35.84-30.34Z"/>,<path id="g-46" d="M24.45 0L11.14 0L11.14-15.62L24.45-15.62L24.45 0Z"/>,<path id="g-47" d="M56.70-94.72L19.84 12.80L5.25 12.80L42.11-94.72L56.70-94.72Z"/>,<path id="g-48" d="M66.18-65.41L66.18-30.46Q66.18-27.26 65.92-24.45Q65.66-21.63 64.90-19.07Q64.13-16.51 62.78-14.08Q61.44-11.65 59.26-9.09L59.26-9.09Q54.78-3.71 48.51-0.96Q42.24 1.79 35.33 1.79L35.33 1.79Q28.42 1.79 22.08-1.22Q15.74-4.22 11.39-9.73L11.39-9.73Q7.30-14.85 6.08-19.97Q4.86-25.09 4.86-31.49L4.86-31.49L4.86-64.51Q4.86-74.62 9.47-82.43Q14.08-90.24 23.68-94.21L23.68-94.21Q29.70-96.64 35.84-96.64L35.84-96.64Q42.37-96.64 47.94-94.21Q53.50-91.78 57.54-87.55Q61.57-83.33 63.87-77.63Q66.18-71.94 66.18-65.41L66.18-65.41ZM52.86-30.21L52.86-65.41Q52.86-69.38 51.78-72.90Q50.69-76.42 48.51-78.98Q46.34-81.54 43.14-83.01Q39.94-84.48 35.71-84.48L35.71-84.48Q31.49-84.48 28.22-83.01Q24.96-81.54 22.72-78.98Q20.48-76.42 19.33-72.96Q18.18-69.50 18.18-65.41L18.18-65.41L18.18-30.46Q18.18-26.24 19.26-22.59Q20.35-18.94 22.59-16.19Q24.83-13.44 28.10-11.90Q31.36-10.37 35.84-10.37L35.84-10.37Q39.55-10.37 42.88-11.97Q46.21-13.57 48.64-16.38L48.64-16.38Q51.58-19.71 52.22-22.85Q52.86-25.98 52.86-30.21L52.86-30.21Z"/>,<path id="g-49" d="M46.21 0L32.90 0L32.90-82.56L18.94-82.56L18.94-94.72L46.21-94.72L46.21 0Z"/>,<path id="g-50" d="M64.51 0L5.25 0L5.25-11.14L42.50-49.02Q46.21-52.74 48.64-56.83Q51.07-60.93 51.07-66.30L51.07-66.30Q51.07-69.76 49.92-73.02Q48.77-76.29 46.66-78.78Q44.54-81.28 41.60-82.82Q38.66-84.35 34.94-84.35L34.94-84.35Q30.72-84.35 27.58-82.69Q24.45-81.02 22.34-78.34Q20.22-75.65 19.14-72.06Q18.05-68.48 18.05-64.64L18.05-64.64L18.05-62.21L4.74-62.21L4.74-62.72Q4.61-73.22 9.02-81.73Q13.44-90.24 23.55-94.34L23.55-94.34Q28.93-96.51 34.43-96.51L34.43-96.51Q40.83-96.51 46.34-94.08Q51.84-91.65 55.87-87.55Q59.90-83.46 62.14-77.82Q64.38-72.19 64.38-65.92L64.38-65.92Q64.38-61.57 63.42-57.92Q62.46-54.27 60.67-51.14Q58.88-48 56.45-45.06Q54.02-42.11 51.20-39.17L51.20-39.17L24.83-12.16L64.51-12.16L64.51 0Z"/>,<path id="g-51" d="M64.13-28.29L64.13-28.29Q64.13-21.50 61.82-16Q59.52-10.50 55.42-6.53Q51.33-2.56 45.70-0.38Q40.06 1.79 33.41 1.79L33.41 1.79Q27.14 1.79 21.63-0.51Q16.13-2.82 11.97-6.78Q7.81-10.75 5.31-16.19Q2.82-21.63 2.82-27.90L2.82-27.90L16.13-27.90Q16.51-20.10 21.25-15.23Q25.98-10.37 33.79-10.37L33.79-10.37Q37.38-10.37 40.45-11.78Q43.52-13.18 45.82-15.55Q48.13-17.92 49.47-21.12Q50.82-24.32 50.82-27.78L50.82-27.78Q50.82-31.49 49.41-34.62Q48-37.76 45.63-40Q43.26-42.24 40-43.52Q36.74-44.80 33.15-44.80L33.15-44.80L28.29-44.80L28.29-58.11L32.90-58.11Q39.04-58.11 42.88-61.63Q46.72-65.15 46.72-71.30L46.72-71.30Q46.72-73.98 45.76-76.35Q44.80-78.72 43.14-80.51Q41.47-82.30 39.10-83.33Q36.74-84.35 34.05-84.35L34.05-84.35Q28.03-84.35 25.02-80.51Q22.02-76.67 21.38-71.04L21.38-71.04L8.06-71.04Q8.58-79.49 12.67-85.63Q16.77-91.78 24.83-94.72L24.83-94.72Q27.14-95.49 29.57-96Q32-96.51 34.43-96.51L34.43-96.51Q40.06-96.51 44.80-94.53Q49.54-92.54 52.93-89.02Q56.32-85.50 58.18-80.70Q60.03-75.90 60.03-70.27L60.03-70.27Q60.03-67.07 59.52-64.58Q59.01-62.08 57.92-59.97Q56.83-57.86 55.23-55.87Q53.63-53.89 51.33-51.84L51.33-51.84Q57.47-47.87 60.80-41.73Q64.13-35.58 64.13-28.29Z"/>,<path id="g-52" d="M68.10-14.85L58.11-14.85L58.11 0L44.80 0L44.80-14.85L1.54-14.85L1.54-27.78L44.80-94.72L58.11-94.72L58.11-27.01L68.10-27.01L68.10-14.85ZM44.80-27.01L44.80-72.58L44.54-72.58L16.90-27.01L44.80-27.01Z"/>,<path id="g-53" d="M67.84-32.13L67.84-32.13Q67.84-25.22 65.47-19.07Q63.10-12.93 58.75-8.26Q54.40-3.58 48.45-0.90Q42.50 1.79 35.46 1.79L35.46 1.79Q28.67 1.79 23.04-0.51Q17.41-2.82 13.25-6.85Q9.09-10.88 6.46-16.51Q3.84-22.14 3.20-28.67L3.20-28.67L16.51-28.67Q17.28-24.96 18.82-21.63Q20.35-18.30 22.72-15.81Q25.09-13.31 28.29-11.84Q31.49-10.37 35.58-10.37L35.58-10.37Q39.68-10.37 43.20-12.16Q46.72-13.95 49.22-16.83Q51.71-19.71 53.12-23.42Q54.53-27.14 54.53-31.10L54.53-31.10Q54.53-35.07 53.31-39.04Q52.10-43.01 49.79-46.21Q47.49-49.41 44.03-51.33Q40.58-53.25 36.10-53.25L36.10-53.25Q30.34-53.25 26.18-50.75Q22.02-48.26 19.07-43.39L19.07-43.39L7.55-46.08L15.49-94.72L58.75-94.72L58.75-82.56L26.50-82.56L22.91-61.57Q25.86-63.74 29.12-64.58Q32.38-65.41 36.10-65.41L36.10-65.41Q43.14-65.41 49.02-62.85Q54.91-60.29 59.07-55.74Q63.23-51.20 65.54-45.12Q67.84-39.04 67.84-32.13Z"/>,<path id="g-54" d="M68.74-32.26L68.74-32.26Q68.74-25.34 66.30-19.14Q63.87-12.93 59.52-8.26Q55.17-3.58 49.15-0.90Q43.14 1.79 36.10 1.79L36.10 1.79Q26.11 1.79 18.30-3.26Q10.50-8.32 6.40-17.28L6.40-17.28Q4.99-20.35 4.10-23.74Q3.20-27.14 3.20-30.46L3.20-30.46Q3.20-36.74 5.12-42.30Q7.04-47.87 10.37-53.12L10.37-53.12L36.99-94.72L52.74-94.72L32.64-63.62Q34.05-63.87 35.46-64.06Q36.86-64.26 38.27-64.26L38.27-64.26Q44.93-64.26 50.56-61.70Q56.19-59.14 60.22-54.78Q64.26-50.43 66.50-44.61Q68.74-38.78 68.74-32.26ZM55.42-30.85L55.42-30.85Q55.42-34.94 54.08-38.78Q52.74-42.62 50.24-45.57Q47.74-48.51 44.22-50.30Q40.70-52.10 36.35-52.10L36.35-52.10Q32.13-52.10 28.54-50.43Q24.96-48.77 22.27-46.02Q19.58-43.26 18.05-39.55Q16.51-35.84 16.51-31.74L16.51-31.74Q16.51-27.52 17.92-23.68Q19.33-19.84 21.89-16.83Q24.45-13.82 28.03-12.10Q31.62-10.37 36.10-10.37L36.10-10.37Q40.19-10.37 43.71-12.03Q47.23-13.70 49.86-16.58Q52.48-19.46 53.95-23.10Q55.42-26.75 55.42-30.85Z"/>,<path id="g-55" d="M64-82.56L29.31 0L14.46 0L50.18-82.56L9.09-82.56L9.09-94.72L64-94.72L64-82.56Z"/>,<path id="g-56" d="M65.41-28.29L65.41-28.29Q65.41-22.14 63.04-16.64Q60.67-11.14 56.64-7.04Q52.61-2.94 47.10-0.58Q41.60 1.79 35.46 1.79L35.46 1.79Q29.31 1.79 23.81-0.51Q18.30-2.82 14.27-6.85Q10.24-10.88 7.87-16.26Q5.50-21.63 5.50-27.90L5.50-27.90Q5.50-35.84 8.58-41.73Q11.65-47.62 17.92-52.22L17.92-52.22Q13.82-56.32 11.84-60.35Q9.86-64.38 9.86-70.40L9.86-70.40Q9.86-75.78 11.90-80.51Q13.95-85.25 17.41-88.83Q20.86-92.42 25.60-94.46Q30.34-96.51 35.71-96.51L35.71-96.51Q41.09-96.51 45.70-94.40Q50.30-92.29 53.76-88.77Q57.22-85.25 59.20-80.51Q61.18-75.78 61.18-70.53L61.18-70.53Q61.18-64.38 59.20-60.29Q57.22-56.19 52.74-52.22L52.74-52.22Q58.88-48.13 62.14-41.92Q65.41-35.71 65.41-28.29ZM47.87-71.81L47.87-71.81Q47.87-74.37 46.91-76.61Q45.95-78.85 44.29-80.58Q42.62-82.30 40.38-83.33Q38.14-84.35 35.58-84.35L35.58-84.35Q32.90-84.35 30.59-83.26Q28.29-82.18 26.69-80.38Q25.09-78.59 24.13-76.22Q23.17-73.86 23.17-71.30L23.17-71.30Q23.17-66.05 26.62-62.21Q30.08-58.37 35.46-58.37L35.46-58.37Q41.34-58.37 44.61-62.27Q47.87-66.18 47.87-71.81ZM52.10-27.14L52.10-27.14Q52.10-30.59 50.82-33.79Q49.54-36.99 47.36-39.42Q45.18-41.86 42.11-43.33Q39.04-44.80 35.46-44.80L35.46-44.80Q31.87-44.80 28.86-43.33Q25.86-41.86 23.62-39.49Q21.38-37.12 20.10-33.92Q18.82-30.72 18.82-27.26L18.82-27.26Q18.82-23.81 20.10-20.74Q21.38-17.66 23.62-15.36Q25.86-13.06 28.86-11.71Q31.87-10.37 35.33-10.37L35.33-10.37Q38.78-10.37 41.79-11.71Q44.80-13.06 47.10-15.36Q49.41-17.66 50.75-20.67Q52.10-23.68 52.10-27.14Z"/>,<path id="g-57" d="M67.71-64.38L67.71-64.38Q67.71-58.24 65.73-52.48Q63.74-46.72 60.42-41.60L60.42-41.60L34.05 0L18.30 0L38.40-31.10Q36.99-30.85 35.65-30.72Q34.30-30.59 32.90-30.59L32.90-30.59Q26.24-30.59 20.61-33.15Q14.98-35.71 10.94-40.06Q6.91-44.42 4.61-50.24Q2.30-56.06 2.30-62.59L2.30-62.59Q2.30-69.50 4.74-75.65Q7.17-81.79 11.52-86.40Q15.87-91.01 21.82-93.76Q27.78-96.51 34.82-96.51L34.82-96.51Q44.93-96.51 52.67-91.52Q60.42-86.53 64.64-77.31L64.64-77.31Q66.05-74.37 66.88-71.04Q67.71-67.71 67.71-64.38ZM54.40-62.98L54.40-62.98Q54.40-67.20 52.99-71.04Q51.58-74.88 49.09-77.82Q46.59-80.77 42.94-82.56Q39.30-84.35 34.94-84.35L34.94-84.35Q30.72-84.35 27.20-82.69Q23.68-81.02 21.12-78.14Q18.56-75.26 17.09-71.55Q15.62-67.84 15.62-63.87L15.62-63.87Q15.62-59.78 17.02-56Q18.43-52.22 20.99-49.28Q23.55-46.34 27.07-44.54Q30.59-42.75 34.82-42.75L34.82-42.75Q38.91-42.75 42.50-44.42Q46.08-46.08 48.70-48.90Q51.33-51.71 52.86-55.36Q54.40-59.01 54.40-62.98Z"/>,<path id="g-58" d="M24.45-55.42L11.14-55.42L11.14-71.04L24.45-71.04L24.45-55.42ZM24.45 0L11.14 0L11.14-15.62L24.45-15.62L24.45 0Z"/>,<path id="g-59" d="M24.45-55.42L11.14-55.42L11.14-71.04L24.45-71.04L24.45-55.42ZM24.45-15.62L24.45-1.41Q24.45 5.63 21.44 10.24Q18.43 14.85 11.14 16.26L11.14 16.26L11.14 8.32Q14.34 7.17 15.10 5.25Q15.87 3.33 15.87 0L15.87 0L11.14 0L11.14-15.62L24.45-15.62Z"/>,<path id="g-60" d="M70.91 1.02L5.89-26.88L5.89-37.89L70.91-65.79L70.91-52.74L23.17-32.38L70.91-12.03L70.91 1.02Z"/>,<path id="g-61" d="M70.66-39.68L6.14-39.68L6.14-52.99L70.66-52.99L70.66-39.68ZM70.66-11.78L6.14-11.78L6.14-25.09L70.66-25.09L70.66-11.78Z"/>,<path id="g-62" d="M70.91-26.88L5.89 1.02L5.89-12.03L53.63-32.38L5.89-52.74L5.89-65.79L70.91-37.89L70.91-26.88Z"/>,<path id="g-63" d="M61.18-67.84L61.18-67.84Q61.18-63.74 60.42-60.74Q59.65-57.73 58.24-55.17Q56.83-52.61 54.72-50.30Q52.61-48 49.79-45.44L49.79-45.44Q46.98-42.88 45.12-40.64Q43.26-38.40 41.98-35.97Q40.70-33.54 40-30.78Q39.30-28.03 38.78-24.32L38.78-24.32L25.47-24.32Q25.73-33.41 29.18-39.94Q32.64-46.46 38.78-52.74L38.78-52.74Q40.32-54.40 41.98-55.94Q43.65-57.47 44.93-59.20Q46.21-60.93 47.04-62.91Q47.87-64.90 47.87-67.33L47.87-67.33Q47.87-70.53 46.72-73.34Q45.57-76.16 43.58-78.34Q41.60-80.51 38.78-81.79Q35.97-83.07 32.77-83.07L32.77-83.07Q28.93-83.07 25.60-81.22Q22.27-79.36 20.10-76.16L20.10-76.16Q18.69-73.98 18.18-72.13Q17.66-70.27 17.41-67.71L17.41-67.71L4.10-67.71Q4.48-76.93 8.96-83.97Q13.44-91.01 22.14-94.46L22.14-94.46Q27.65-96.51 32.90-96.51L32.90-96.51Q38.78-96.51 43.90-94.21Q49.02-91.90 52.86-88Q56.70-84.10 58.94-78.85Q61.18-73.60 61.18-67.84ZM38.78 0L25.47 0L25.47-15.62L38.78-15.62L38.78 0Z"/>,<path id="g-64" d="M95.87-54.27L95.87-54.27Q95.87-49.02 94.40-43.01Q92.93-36.99 89.92-31.87Q86.91-26.75 82.30-23.36Q77.70-19.97 71.42-19.97L71.42-19.97Q67.71-19.97 64.51-21.89Q61.31-23.81 60.54-27.65L60.54-27.65L60.29-27.65Q57.22-23.42 52.74-21.70Q48.26-19.97 43.26-19.97L43.26-19.97Q38.40-19.97 34.69-21.89Q30.98-23.81 28.42-27.01Q25.86-30.21 24.58-34.37Q23.30-38.53 23.30-43.01L23.30-43.01Q23.30-48.38 25.02-53.57Q26.75-58.75 30.02-62.85Q33.28-66.94 37.89-69.44Q42.50-71.94 48.26-71.94L48.26-71.94Q53.76-71.94 57.66-69.95Q61.57-67.97 64.13-63.10L64.13-63.10L64.38-63.10L65.66-70.14L75.14-70.14L69.76-40.58Q69.50-38.78 69.12-36.80Q68.74-34.82 68.74-33.02L68.74-33.02Q68.74-31.62 69.63-30.66Q70.53-29.70 71.94-29.70L71.94-29.70Q76.29-29.70 78.98-32.45Q81.66-35.20 83.14-39.17Q84.61-43.14 85.12-47.49Q85.63-51.84 85.63-55.04L85.63-55.04Q85.63-62.72 82.94-68.61Q80.26-74.50 75.52-78.53Q70.78-82.56 64.51-84.61Q58.24-86.66 50.94-86.66L50.94-86.66Q42.37-86.66 35.14-83.71Q27.90-80.77 22.72-75.52Q17.54-70.27 14.59-63.04Q11.65-55.81 11.65-47.23L11.65-47.23Q11.65-37.89 14.53-30.59Q17.41-23.30 22.78-18.30Q28.16-13.31 35.65-10.69Q43.14-8.06 52.35-8.06L52.35-8.06Q55.94-8.06 60.03-8.45Q64.13-8.83 68.16-9.73Q72.19-10.62 76.03-12.10Q79.87-13.57 82.82-15.74L82.82-15.74L87.81-7.94Q79.23-3.20 70.72-0.77Q62.21 1.66 52.35 1.66L52.35 1.66Q44.67 1.66 37.63 0.06Q30.59-1.54 24.51-4.86Q18.43-8.19 13.57-13.38Q8.70-18.56 5.50-25.86L5.50-25.86Q3.33-30.72 2.37-35.84Q1.41-40.96 1.41-46.34L1.41-46.34Q1.41-57.34 5.18-66.56Q8.96-75.78 15.68-82.37Q22.40-88.96 31.68-92.67Q40.96-96.38 51.97-96.38L51.97-96.38Q61.44-96.38 69.50-93.44Q77.57-90.50 83.39-84.99Q89.22-79.49 92.54-71.74Q95.87-64 95.87-54.27ZM61.57-50.43L61.57-50.43Q61.57-56.58 58.18-59.39Q54.78-62.21 48.90-62.21L48.90-62.21Q45.18-62.21 42.30-60.48Q39.42-58.75 37.50-56.06Q35.58-53.38 34.56-49.98Q33.54-46.59 33.54-43.26L33.54-43.26Q33.54-40.70 34.18-38.27Q34.82-35.84 36.22-33.92Q37.63-32 39.68-30.85Q41.73-29.70 44.67-29.70L44.67-29.70Q49.02-29.70 52.22-31.49Q55.42-33.28 57.54-36.16Q59.65-39.04 60.61-42.75Q61.57-46.46 61.57-50.43Z"/>,<path id="g-65" d="M86.02 0L71.30 0L60.80-27.90L26.75-27.90L16.26 0L1.66 0L37.63-94.72L50.05-94.72L86.02 0ZM56.06-40.58L44.03-76.80L43.78-76.80L31.62-40.58L56.06-40.58Z"/>,<path id="g-66" d="M69.38-27.52L69.38-27.52Q69.38-21.50 67.07-16.13L67.07-16.13Q65.15-11.65 62.08-8.58Q59.01-5.50 55.17-3.58Q51.33-1.66 46.91-0.83Q42.50 0 37.89 0L37.89 0L9.60 0L9.60-94.72L34.18-94.72Q38.66-94.72 42.88-93.89Q47.10-93.06 50.75-91.20Q54.40-89.34 57.22-86.27Q60.03-83.20 61.82-78.85L61.82-78.85Q63.74-73.86 63.74-68.48L63.74-68.48Q63.74-62.59 61.70-58.43Q59.65-54.27 55.30-50.56L55.30-50.56Q62.08-46.72 65.73-41.15Q69.38-35.58 69.38-27.52ZM49.92-68.61L49.92-68.61Q49.92-72.45 48.64-75.01Q47.36-77.57 45.18-79.10Q43.01-80.64 40.13-81.34Q37.25-82.05 33.92-82.05L33.92-82.05L23.42-82.05L23.42-55.30L34.69-55.30Q41.47-55.30 45.70-58.37Q49.92-61.44 49.92-68.61ZM55.55-27.52L55.55-27.52Q55.55-30.08 54.66-32.51Q53.76-34.94 52.22-36.86L52.22-36.86Q49.28-40.83 45.31-41.73Q41.34-42.62 36.74-42.62L36.74-42.62L23.42-42.62L23.42-12.67L38.40-12.67Q41.73-12.67 44.86-13.63Q48-14.59 50.37-16.45Q52.74-18.30 54.14-21.06Q55.55-23.81 55.55-27.52Z"/>,<path id="g-67" d="M97.15-70.53L80.51-70.53Q75.14-76.67 68.74-80.26Q62.34-83.84 53.89-83.84L53.89-83.84Q46.34-83.84 39.94-80.96Q33.54-78.08 28.80-73.15Q24.06-68.22 21.38-61.63Q18.69-55.04 18.69-47.62L18.69-47.62Q18.69-40.45 21.38-33.79Q24.06-27.14 28.74-22.02Q33.41-16.90 39.81-13.89Q46.21-10.88 53.63-10.88L53.63-10.88Q61.18-10.88 67.90-14.27Q74.62-17.66 79.49-23.42L79.49-23.42L96.51-23.42Q89.73-11.52 78.46-4.86Q67.20 1.79 53.50 1.79L53.50 1.79Q43.39 1.79 34.50-2.18Q25.60-6.14 19.01-12.93Q12.42-19.71 8.64-28.74Q4.86-37.76 4.86-47.74L4.86-47.74Q4.86-57.86 8.70-66.75Q12.54-75.65 19.14-82.30Q25.73-88.96 34.62-92.74Q43.52-96.51 53.63-96.51L53.63-96.51Q61.31-96.51 68.86-94.14Q76.42-91.78 82.56-87.30L82.56-87.30Q87.55-83.71 90.88-79.81Q94.21-75.90 97.15-70.53L97.15-70.53Z"/>,<path id="g-68" d="M87.42-47.10L87.42-47.10Q87.42-43.01 86.66-38.40Q85.89-33.79 84.42-29.25Q82.94-24.70 80.70-20.67Q78.46-16.64 75.52-13.70L75.52-13.70Q67.71-6.02 58.50-3.01Q49.28 0 38.53 0L38.53 0L8.32 0L8.32-94.72L39.04-94.72Q50.56-94.72 60.67-90.82Q70.78-86.91 77.70-77.31L77.70-77.31Q82.30-70.78 84.86-62.98Q87.42-55.17 87.42-47.10ZM73.60-47.10L73.60-47.10Q73.60-50.82 72.90-54.46Q72.19-58.11 70.78-61.57L70.78-61.57Q66.56-71.94 58.24-76.99Q49.92-82.05 38.91-82.05L38.91-82.05L22.14-82.05L22.14-12.67L38.66-12.67Q46.72-12.67 53.18-14.98Q59.65-17.28 64.19-21.70Q68.74-26.11 71.17-32.51Q73.60-38.91 73.60-47.10Z"/>,<path id="g-69" d="M59.39 0L8.32 0L8.32-94.72L59.39-94.72L59.39-82.05L22.14-82.05L22.14-54.14L59.39-54.14L59.39-41.47L22.14-41.47L22.14-12.67L59.39-12.67L59.39 0Z"/>,<path id="g-70" d="M56.19-40.96L22.14-40.96L22.14 0L8.32 0L8.32-94.72L56.19-94.72L56.19-82.05L22.14-82.05L22.14-53.63L56.19-53.63L56.19-40.96Z"/>,<path id="g-71" d="M102.27-47.10L102.27-47.10Q102.14-39.81 100.22-33.15Q98.30-26.50 94.72-20.74Q91.14-14.98 85.89-10.43Q80.64-5.89 73.98-2.82L73.98-2.82Q69.12-0.64 63.94 0.58Q58.75 1.79 53.38 1.79L53.38 1.79Q43.14 1.79 34.30-2.05Q25.47-5.89 18.94-12.54Q12.42-19.20 8.64-28.10Q4.86-36.99 4.86-47.10L4.86-47.10Q4.86-57.22 8.58-66.24Q12.29-75.26 18.82-81.98Q25.34-88.70 34.18-92.61Q43.01-96.51 53.25-96.51L53.25-96.51Q59.90-96.51 66.18-94.72Q72.45-92.93 77.95-89.60Q83.46-86.27 88-81.54Q92.54-76.80 95.74-70.91L95.74-70.91L79.62-70.91Q74.24-76.93 68.10-80.38Q61.95-83.84 53.76-83.84L53.76-83.84Q46.21-83.84 39.81-80.83Q33.41-77.82 28.74-72.77Q24.06-67.71 21.38-61.06Q18.69-54.40 18.69-47.10L18.69-47.10Q18.69-39.94 21.44-33.34Q24.19-26.75 28.93-21.76Q33.66-16.77 40.13-13.82Q46.59-10.88 53.89-10.88L53.89-10.88Q59.52-10.88 64.58-12.61Q69.63-14.34 73.86-17.41Q78.08-20.48 81.28-24.83Q84.48-29.18 86.53-34.43L86.53-34.43L42.37-34.43L42.37-47.10L102.27-47.10Z"/>,<path id="g-710" d="M59.65-80.77L44.42-80.77L35.58-89.60L26.37-80.77L11.14-80.77L28.93-98.05L41.73-98.05L59.65-80.77Z"/>,<path id="g-711" d="M8.96-97.79L22.91-97.79L35.46-88.32L48.13-97.79L62.08-97.79L40.06-79.36L30.72-79.36L8.96-97.79Z"/>,<path id="g-713" d="M58.37-94.08L58.37-83.46L12.54-83.46L12.54-94.08L58.37-94.08Z"/>,<path id="g-72" d="M76.29 0L62.46 0L62.46-41.22L23.42-41.22L23.42 0L9.60 0L9.60-94.72L23.42-94.72L23.42-53.89L62.46-53.89L62.46-94.72L76.29-94.72L76.29 0Z"/>,<path id="g-73" d="M23.42 0L9.60 0L9.60-94.72L23.42-94.72L23.42 0Z"/>,<path id="g-74" d="M52.22-26.75L52.22-26.75Q52.22-23.42 51.71-19.90Q51.20-16.38 49.92-13.31L49.92-13.31Q46.85-5.89 40.45-2.05Q34.05 1.79 26.11 1.79L26.11 1.79Q21.50 1.79 17.15 0.32Q12.80-1.15 9.28-3.84Q5.76-6.53 3.33-10.37Q0.90-14.21 0-18.94L0-18.94L14.21-18.94Q15.87-14.59 18.82-12.74Q21.76-10.88 26.24-10.88L26.24-10.88Q29.57-10.88 31.87-12.10Q34.18-13.31 35.65-15.42Q37.12-17.54 37.76-20.29Q38.40-23.04 38.40-25.98L38.40-25.98L38.40-94.72L52.22-94.72L52.22-26.75Z"/>,<path id="g-75" d="M25.34-94.72L25.34 0L11.52 0L11.52-94.72L25.34-94.72ZM25.60-47.74L61.57-94.72L78.59-94.72L41.60-47.74L78.59 0L61.57 0L25.60-47.74Z"/>,<path id="g-76" d="M56.83 0L10.11 0L10.11-94.72L23.94-94.72L23.94-12.67L56.83-12.67L56.83 0Z"/>,<path id="g-77" d="M110.08 0L96.26 0L96.26-80L95.87-80L64 0L55.68 0L23.68-80L23.42-80L23.42 0L9.60 0L9.60-94.72L31.36-94.72L59.78-22.14L88.32-94.72L110.08-94.72L110.08 0Z"/>,<path id="g-78" d="M84.86 0L70.53 0L23.68-73.22L23.42-73.22L23.42 0L9.60 0L9.60-94.72L24.70-94.72L70.78-22.66L71.04-22.66L71.04-94.72L84.86-94.72L84.86 0Z"/>,<path id="g-79" d="M103.42-47.10L103.42-47.10Q103.42-36.99 99.52-28.10Q95.62-19.20 88.90-12.54Q82.18-5.89 73.22-2.05Q64.26 1.79 54.14 1.79L54.14 1.79Q43.90 1.79 34.94-2.05Q25.98-5.89 19.33-12.61Q12.67-19.33 8.77-28.22Q4.86-37.12 4.86-47.36L4.86-47.36Q4.86-57.60 8.70-66.56Q12.54-75.52 19.26-82.18Q25.98-88.83 34.94-92.67Q43.90-96.51 54.14-96.51L54.14-96.51Q64.51-96.51 73.54-92.67Q82.56-88.83 89.15-82.11Q95.74-75.39 99.58-66.43Q103.42-57.47 103.42-47.10ZM89.60-46.98L89.60-46.98Q89.60-54.53 86.98-61.25Q84.35-67.97 79.62-72.96Q74.88-77.95 68.35-80.90Q61.82-83.84 54.14-83.84L54.14-83.84Q43.01-83.84 34.69-78.21Q26.37-72.58 22.02-62.46L22.02-62.46Q20.48-58.88 19.58-55.10Q18.69-51.33 18.69-47.36L18.69-47.36Q18.69-43.39 19.58-39.55Q20.48-35.71 22.02-32L22.02-32Q26.50-22.02 34.82-16.45Q43.14-10.88 54.14-10.88L54.14-10.88Q65.92-10.88 74.50-17.15Q83.07-23.42 87.17-34.30L87.17-34.30Q89.60-40.58 89.60-46.98Z"/>,<path id="g-80" d="M69.12-66.05L69.12-66.05Q69.12-58.50 66.50-53.06Q63.87-47.62 59.39-44.16Q54.91-40.70 48.83-39.04Q42.75-37.38 35.71-37.38L35.71-37.38L22.14-37.38L22.14 0L8.32 0L8.32-94.72L35.71-94.72Q42.75-94.72 48.83-93.06Q54.91-91.39 59.39-87.94Q63.87-84.48 66.50-79.04Q69.12-73.60 69.12-66.05ZM55.30-66.05L55.30-66.05Q55.30-70.40 53.70-73.47Q52.10-76.54 49.41-78.46Q46.72-80.38 43.20-81.22Q39.68-82.05 35.71-82.05L35.71-82.05L22.14-82.05L22.14-50.05L35.71-50.05Q39.68-50.05 43.20-50.88Q46.72-51.71 49.41-53.63Q52.10-55.55 53.70-58.62Q55.30-61.70 55.30-66.05Z"/>,<path id="g-81" d="M104.45-11.01L104.45 1.79Q97.28 1.66 91.90-0.06Q86.53-1.79 80.64-5.50L80.64-5.50Q74.37-2.05 67.52-0.13Q60.67 1.79 53.50 1.79L53.50 1.79Q43.26 1.79 34.37-2.11Q25.47-6.02 18.94-12.74Q12.42-19.46 8.64-28.48Q4.86-37.50 4.86-47.62L4.86-47.62Q4.86-57.86 8.64-66.82Q12.42-75.78 18.94-82.37Q25.47-88.96 34.37-92.74Q43.26-96.51 53.63-96.51L53.63-96.51Q63.87-96.51 72.77-92.67Q81.66-88.83 88.26-82.11Q94.85-75.39 98.62-66.43Q102.40-57.47 102.40-47.36L102.40-47.36Q102.40-37.76 99.39-29.89Q96.38-22.02 90.75-14.34L90.75-14.34Q94.21-12.29 97.28-11.58Q100.35-10.88 104.45-11.01L104.45-11.01ZM88.58-47.36L88.58-47.36Q88.58-54.53 85.95-61.12Q83.33-67.71 78.66-72.77Q73.98-77.82 67.65-80.83Q61.31-83.84 53.89-83.84L53.89-83.84Q46.21-83.84 39.81-80.83Q33.41-77.82 28.67-72.70Q23.94-67.58 21.31-60.86Q18.69-54.14 18.69-46.72L18.69-46.72Q18.69-44.29 19.01-42.05Q19.33-39.81 19.97-37.50L19.97-37.50Q24.32-39.30 28.86-39.87Q33.41-40.45 38.02-40.45L38.02-40.45Q43.90-40.45 49.47-39.04Q55.04-37.63 60.22-35.20Q65.41-32.77 70.21-29.50Q75.01-26.24 79.49-22.66L79.49-22.66Q83.97-28.29 86.27-34.11Q88.58-39.94 88.58-47.36ZM68.35-15.10L68.35-15.10Q64.77-17.79 61.12-20.10Q57.47-22.40 53.57-24.13Q49.66-25.86 45.50-26.82Q41.34-27.78 36.74-27.78L36.74-27.78Q33.54-27.78 31.04-27.39Q28.54-27.01 25.73-25.60L25.73-25.60Q30.59-18.69 38.08-14.78Q45.57-10.88 54.02-10.88L54.02-10.88Q58.11-10.88 61.57-11.78Q65.02-12.67 68.35-15.10Z"/>,<path id="g-82" d="M71.55-64.38L71.55-64.38Q71.55-54.78 67.20-47.62Q62.85-40.45 53.63-37.12L53.63-37.12Q51.46-36.35 49.09-35.84Q46.72-35.33 44.42-35.33L44.42-35.33L70.91 0L53.63 0L22.40-43.90L22.14-43.90L22.14 0L8.32 0L8.32-94.72L37.63-94.72Q44.42-94.72 51.14-93.18Q57.86-91.65 62.85-86.78L62.85-86.78Q67.33-82.43 69.44-76.48Q71.55-70.53 71.55-64.38ZM57.73-64.38L57.73-64.38Q57.73-68.86 56-72.19Q54.27-75.52 51.39-77.70Q48.51-79.87 44.67-80.96Q40.83-82.05 36.74-82.05L36.74-82.05L22.14-82.05L22.14-45.82L31.62-45.82Q36.22-45.82 40.90-46.59Q45.57-47.36 49.28-49.41Q52.99-51.46 55.36-55.10Q57.73-58.75 57.73-64.38Z"/>,<path id="g-8211" d="M59.52-30.34L4.48-30.34L4.48-43.65L59.52-43.65L59.52-30.34Z"/>,<path id="g-8212" d="M123.52-30.34L4.48-30.34L4.48-43.65L123.52-43.65L123.52-30.34Z"/>,<path id="g-8216" d="M24.32-62.72L11.01-62.72L11.01-76.93Q11.01-83.97 14.02-88.58Q17.02-93.18 24.32-94.72L24.32-94.72L24.32-86.66Q21.12-85.63 20.35-83.52Q19.58-81.41 19.58-78.34L19.58-78.34L24.32-78.34L24.32-62.72Z"/>,<path id="g-8217" d="M24.45-80.51L24.45-80.51Q24.45-73.47 21.44-68.86Q18.43-64.26 11.14-62.72L11.14-62.72L11.14-70.78Q14.34-71.81 15.10-73.92Q15.87-76.03 15.87-79.10L15.87-79.10L11.14-79.10L11.14-94.72L24.45-94.72L24.45-80.51Z"/>,<path id="g-8218" d="M24.45-1.41L24.45-1.41Q24.45 5.63 21.44 10.24Q18.43 14.85 11.14 16.38L11.14 16.38L11.14 8.32Q14.34 7.30 15.10 5.18Q15.87 3.07 15.87 0L15.87 0L11.14 0L11.14-15.62L24.45-15.62L24.45-1.41Z"/>,<path id="g-8220" d="M43.90-62.72L30.59-62.72L30.59-76.93Q30.59-83.97 33.60-88.58Q36.61-93.18 43.90-94.72L43.90-94.72L43.90-86.66Q40.70-85.63 39.94-83.52Q39.17-81.41 39.17-78.34L39.17-78.34L43.90-78.34L43.90-62.72ZM23.94-62.72L10.62-62.72L10.62-76.93Q10.62-83.97 13.63-88.58Q16.64-93.18 23.94-94.72L23.94-94.72L23.94-86.66Q20.74-85.63 19.97-83.52Q19.20-81.41 19.20-78.34L19.20-78.34L23.94-78.34L23.94-62.72Z"/>,<path id="g-8221" d="M43.78-94.72L43.78-80.51Q43.78-73.47 40.77-68.86Q37.76-64.26 30.46-62.72L30.46-62.72L30.46-70.78Q33.66-71.81 34.43-73.92Q35.20-76.03 35.20-79.10L35.20-79.10L30.46-79.10L30.46-94.72L43.78-94.72ZM23.81-94.72L23.81-80.51Q23.81-73.47 20.80-68.86Q17.79-64.26 10.50-62.72L10.50-62.72L10.50-70.78Q13.70-71.81 14.46-73.92Q15.23-76.03 15.23-79.10L15.23-79.10L10.50-79.10L10.50-94.72L23.81-94.72Z"/>,<path id="g-8222" d="M43.78-15.62L43.78-1.41Q43.78 5.63 40.77 10.24Q37.76 14.85 30.46 16.38L30.46 16.38L30.46 8.32Q33.66 7.30 34.43 5.18Q35.20 3.07 35.20 0L35.20 0L30.46 0L30.46-15.62L43.78-15.62ZM23.81-15.62L23.81-1.41Q23.81 5.63 20.80 10.24Q17.79 14.85 10.50 16.38L10.50 16.38L10.50 8.32Q13.70 7.30 14.46 5.18Q15.23 3.07 15.23 0L15.23 0L10.50 0L10.50-15.62L23.81-15.62Z"/>,<path id="g-8224" d="M65.15-57.86L43.39-57.86L43.39 28.42L30.08 28.42L30.08-57.86L8.32-57.86L8.32-70.02L30.08-70.02L30.08-94.72L43.39-94.72L43.39-70.02L65.15-70.02L65.15-57.86Z"/>,<path id="g-8225" d="M65.15-3.84L43.39-3.84L43.39 28.42L30.08 28.42L30.08-3.84L8.32-3.84L8.32-16L30.08-16L30.08-61.82L8.32-61.82L8.32-73.98L30.08-73.98L30.08-94.72L43.39-94.72L43.39-73.98L65.15-73.98L65.15-61.82L43.39-61.82L43.39-16L65.15-16L65.15-3.84Z"/>,<path id="g-8226" d="M58.24-48.26L58.24-48.26Q58.24-44.16 56.70-40.58Q55.17-36.99 52.54-34.30Q49.92-31.62 46.40-30.02Q42.88-28.42 38.78-28.42L38.78-28.42Q34.69-28.42 31.10-30.02Q27.52-31.62 24.90-34.30Q22.27-36.99 20.74-40.58Q19.20-44.16 19.20-48.26L19.20-48.26Q19.20-52.35 20.74-55.94Q22.27-59.52 24.96-62.21Q27.65-64.90 31.23-66.50Q34.82-68.10 38.91-68.10L38.91-68.10Q43.01-68.10 46.53-66.50Q50.05-64.90 52.67-62.14Q55.30-59.39 56.77-55.81Q58.24-52.22 58.24-48.26Z"/>,<path id="g-8230" d="M113.28 0L99.97 0L99.97-15.62L113.28-15.62L113.28 0ZM70.66 0L57.34 0L57.34-15.62L70.66-15.62L70.66 0ZM28.03 0L14.72 0L14.72-15.62L28.03-15.62L28.03 0Z"/>,<path id="g-8240" d="M150.40-21.25L150.40-21.25Q150.40-16.51 148.54-12.35Q146.69-8.19 143.55-5.06Q140.42-1.92 136.19-0.13Q131.97 1.66 127.23 1.66L127.23 1.66Q122.50 1.66 118.27-0.13Q114.05-1.92 110.91-5.06Q107.78-8.19 105.92-12.35Q104.06-16.51 104.06-21.25L104.06-21.25Q104.06-25.98 105.92-30.14Q107.78-34.30 110.91-37.44Q114.05-40.58 118.27-42.37Q122.50-44.16 127.23-44.16L127.23-44.16Q131.97-44.16 136.19-42.37Q140.42-40.58 143.55-37.44Q146.69-34.30 148.54-30.14Q150.40-25.98 150.40-21.25ZM52.99-73.22L52.99-73.22Q52.99-68.48 51.14-64.32Q49.28-60.16 46.14-57.02Q43.01-53.89 38.78-52.10Q34.56-50.30 29.82-50.30L29.82-50.30Q25.09-50.30 20.86-52.10Q16.64-53.89 13.50-57.02Q10.37-60.16 8.51-64.32Q6.66-68.48 6.66-73.22L6.66-73.22Q6.66-77.95 8.51-82.11Q10.37-86.27 13.50-89.41Q16.64-92.54 20.86-94.34Q25.09-96.13 29.82-96.13L29.82-96.13Q34.56-96.13 38.78-94.34Q43.01-92.54 46.14-89.41Q49.28-86.27 51.14-82.11Q52.99-77.95 52.99-73.22ZM84.48-94.72L30.21 0L21.63 0L75.90-94.72L84.48-94.72ZM100.35-21.25L100.35-21.25Q100.35-16.51 98.50-12.35Q96.64-8.19 93.50-5.06Q90.37-1.92 86.14-0.13Q81.92 1.66 77.18 1.66L77.18 1.66Q72.45 1.66 68.22-0.13Q64-1.92 60.86-5.06Q57.73-8.19 55.87-12.35Q54.02-16.51 54.02-21.25L54.02-21.25Q54.02-25.98 55.87-30.14Q57.73-34.30 60.86-37.44Q64-40.58 68.22-42.37Q72.45-44.16 77.18-44.16L77.18-44.16Q81.92-44.16 86.14-42.37Q90.37-40.58 93.50-37.44Q96.64-34.30 98.50-30.14Q100.35-25.98 100.35-21.25ZM138.88-21.25L138.88-21.25Q138.88-23.68 137.98-25.86Q137.09-28.03 135.49-29.63Q133.89-31.23 131.78-32.19Q129.66-33.15 127.23-33.15L127.23-33.15Q124.80-33.15 122.69-32.19Q120.58-31.23 118.98-29.63Q117.38-28.03 116.48-25.86Q115.58-23.68 115.58-21.25L115.58-21.25Q115.58-18.82 116.48-16.64Q117.38-14.46 118.98-12.86Q120.58-11.26 122.69-10.30Q124.80-9.34 127.23-9.34L127.23-9.34Q129.66-9.34 131.78-10.30Q133.89-11.26 135.49-12.86Q137.09-14.46 137.98-16.64Q138.88-18.82 138.88-21.25ZM41.47-73.22L41.47-73.22Q41.47-75.65 40.58-77.82Q39.68-80 38.08-81.60Q36.48-83.20 34.37-84.16Q32.26-85.12 29.82-85.12L29.82-85.12Q27.39-85.12 25.28-84.16Q23.17-83.20 21.57-81.60Q19.97-80 19.07-77.82Q18.18-75.65 18.18-73.22L18.18-73.22Q18.18-70.78 19.07-68.61Q19.97-66.43 21.57-64.83Q23.17-63.23 25.28-62.27Q27.39-61.31 29.82-61.31L29.82-61.31Q32.26-61.31 34.37-62.27Q36.48-63.23 38.08-64.83Q39.68-66.43 40.58-68.61Q41.47-70.78 41.47-73.22ZM88.83-21.25L88.83-21.25Q88.83-23.68 87.94-25.86Q87.04-28.03 85.44-29.63Q83.84-31.23 81.73-32.19Q79.62-33.15 77.18-33.15L77.18-33.15Q74.75-33.15 72.64-32.19Q70.53-31.23 68.93-29.63Q67.33-28.03 66.43-25.86Q65.54-23.68 65.54-21.25L65.54-21.25Q65.54-18.82 66.43-16.64Q67.33-14.46 68.93-12.86Q70.53-11.26 72.64-10.30Q74.75-9.34 77.18-9.34L77.18-9.34Q79.62-9.34 81.73-10.30Q83.84-11.26 85.44-12.86Q87.04-14.46 87.94-16.64Q88.83-18.82 88.83-21.25Z"/>,<path id="g-8249" d="M21.89-13.06L4.35-30.21L4.35-43.39L21.89-60.80L21.89-46.34L12.29-36.86L21.89-27.39L21.89-13.06Z"/>,<path id="g-8250" d="M21.89-30.21L4.35-13.06L4.35-27.39L13.95-36.86L4.35-46.34L4.35-60.80L21.89-43.39L21.89-30.21Z"/>,<path id="g-8260" d="M37.89-94.72L-4.74 0L-14.08 0L28.54-94.72L37.89-94.72Z"/>,<path id="g-83" d="M60.54-26.88L60.54-26.88Q60.54-20.48 58.37-15.23Q56.19-9.98 52.35-6.21Q48.51-2.43 43.14-0.32Q37.76 1.79 31.49 1.79L31.49 1.79Q24.96 1.79 19.58-0.45Q14.21-2.69 10.37-6.66Q6.53-10.62 4.42-16.13Q2.30-21.63 2.30-28.03L2.30-28.03L16.13-28.03Q16.13-24.58 17.15-21.44Q18.18-18.30 20.10-16Q22.02-13.70 24.90-12.29Q27.78-10.88 31.49-10.88L31.49-10.88Q38.66-10.88 42.69-15.42Q46.72-19.97 46.72-26.88L46.72-26.88Q46.72-30.72 45.44-33.15Q44.16-35.58 42.05-37.25Q39.94-38.91 37.18-40.06Q34.43-41.22 31.49-42.37L31.49-42.37Q25.98-44.42 21.12-46.53Q16.26-48.64 12.67-51.71Q9.09-54.78 7.04-59.33Q4.99-63.87 4.99-70.78L4.99-70.78Q4.99-76.29 7.10-81.02Q9.22-85.76 12.80-89.22Q16.38-92.67 21.25-94.59Q26.11-96.51 31.49-96.51L31.49-96.51Q37.38-96.51 42.37-94.66Q47.36-92.80 50.94-89.34Q54.53-85.89 56.58-81.02Q58.62-76.16 58.62-70.14L58.62-70.14L44.80-70.14Q44.80-76.29 41.22-80.06Q37.63-83.84 31.49-83.84L31.49-83.84Q28.93-83.84 26.62-82.82Q24.32-81.79 22.59-80Q20.86-78.21 19.84-75.84Q18.82-73.47 18.82-70.91L18.82-70.91Q18.82-65.92 21.89-63.17Q24.96-60.42 29.63-58.56Q34.30-56.70 39.68-54.85Q45.06-52.99 49.73-49.79Q54.40-46.59 57.47-41.22Q60.54-35.84 60.54-26.88Z"/>,<path id="g-8364" d="M69.63-25.22L69.63-25.22Q68.61-12.16 61.57-5.18Q54.53 1.79 41.34 1.79L41.34 1.79Q33.41 1.79 28.10-1.28Q22.78-4.35 19.33-9.47Q15.87-14.59 14.14-20.99Q12.42-27.39 11.65-34.18L11.65-34.18L0.13-34.18L1.92-43.90L11.01-43.90Q11.01-46.08 11.07-48.06Q11.14-50.05 11.14-52.22L11.14-52.22L0.13-52.22L1.92-61.95L11.78-61.95Q12.54-68.74 14.46-75.01Q16.38-81.28 19.84-86.14Q23.30-91.01 28.67-93.89Q34.05-96.77 41.86-96.77L41.86-96.77Q47.62-96.77 52.42-94.85Q57.22-92.93 60.74-89.47Q64.26-86.02 66.43-81.28Q68.61-76.54 69.25-71.04L69.25-71.04L56.83-71.04Q55.68-76.80 51.90-80.70Q48.13-84.61 41.98-84.61L41.98-84.61Q37.38-84.61 34.37-82.50Q31.36-80.38 29.50-77.06Q27.65-73.73 26.75-69.70Q25.86-65.66 25.47-61.95L25.47-61.95L56.19-61.95L54.40-52.22L24.70-52.22L24.70-47.49L24.70-43.90L52.99-43.90L51.20-34.18L25.47-34.18Q25.86-30.46 26.82-26.30Q27.78-22.14 29.63-18.56Q31.49-14.98 34.56-12.67Q37.63-10.37 42.24-10.37L42.24-10.37Q49.41-10.37 52.67-14.40Q55.94-18.43 56.96-25.22L56.96-25.22L69.63-25.22Z"/>,<path id="g-84" d="M51.07-82.05L32.90-82.05L32.90 0L19.07 0L19.07-82.05L0.90-82.05L0.90-94.72L51.07-94.72L51.07-82.05Z"/>,<path id="g-8467" d="M48.38-13.44L52.35-6.14Q50.94-4.86 49.15-3.46Q47.36-2.05 45.18-0.83Q43.01 0.38 40.45 1.15Q37.89 1.92 35.07 1.92L35.07 1.92Q31.10 1.92 28.29 0.70Q25.47-0.51 23.30-2.69L23.30-2.69Q20.74-5.25 19.46-9.60Q18.18-13.95 18.18-18.82L18.18-18.82L18.18-30.21L11.14-22.78L6.66-28.93L18.18-40.96L18.18-68.86Q18.18-81.02 22.98-87.10Q27.78-93.18 35.71-93.18L35.71-93.18Q39.55-93.18 42.18-91.78Q44.80-90.37 46.40-88.26Q48-86.14 48.70-83.52Q49.41-80.90 49.41-78.59L49.41-78.59Q49.41-69.25 45.25-61.25Q41.09-53.25 34.69-45.31L34.69-45.31L30.46-40.32L30.46-19.71Q30.46-13.06 32.70-10.43Q34.94-7.81 38.27-7.81L38.27-7.81Q41.34-7.81 43.90-9.60Q46.46-11.39 48.38-13.44L48.38-13.44ZM41.22-77.06L41.22-77.06Q41.22-79.62 40.19-81.60Q39.17-83.58 36.74-83.58L36.74-83.58Q33.79-83.58 32.13-80.58Q30.46-77.57 30.46-70.53L30.46-70.53L30.46-51.71Q31.10-52.35 31.68-53.18Q32.26-54.02 32.77-54.78L32.77-54.78Q36.61-60.16 38.91-66.05Q41.22-71.94 41.22-77.06Z"/>,<path id="g-85" d="M72.83-30.59L72.83-30.59Q72.83-23.68 70.72-17.34Q68.61-11.01 63.23-6.27L63.23-6.27Q58.75-2.18 52.99-0.19Q47.23 1.79 41.09 1.79L41.09 1.79Q34.94 1.79 29.18-0.19Q23.42-2.18 18.94-6.27L18.94-6.27Q13.57-11.01 11.46-17.34Q9.34-23.68 9.34-30.59L9.34-30.59L9.34-94.72L23.17-94.72L23.17-30.98Q23.17-26.75 24.32-23.10Q25.47-19.46 27.71-16.70Q29.95-13.95 33.28-12.42Q36.61-10.88 41.09-10.88L41.09-10.88Q45.44-10.88 48.83-12.42Q52.22-13.95 54.46-16.70Q56.70-19.46 57.86-23.10Q59.01-26.75 59.01-30.98L59.01-30.98L59.01-94.72L72.83-94.72L72.83-30.59Z"/>,<path id="g-86" d="M86.02-94.72L48 0L39.68 0L1.54-94.72L16.38-94.72L43.90-23.68L71.42-94.72L86.02-94.72Z"/>,<path id="g-87" d="M113.92-94.72L87.42 0L75.26 0L58.11-66.18L57.86-66.18L40.70 0L28.54 0L2.05-94.72L16.38-94.72L34.43-23.42L34.69-23.42L52.99-94.72L63.10-94.72L81.15-23.94L81.41-23.94L99.84-94.72L113.92-94.72Z"/>,<path id="g-8706" d="M69.25-60.80L69.25-60.80Q69.25-54.91 68.42-48.70Q67.58-42.50 66.05-36.35L66.05-36.35Q64.13-29.06 60.93-22.27Q57.73-15.49 53.25-10.24Q48.77-4.99 42.94-1.79Q37.12 1.41 30.08 1.41L30.08 1.41Q24.58 1.41 20.10-0.38Q15.62-2.18 12.42-5.50Q9.22-8.83 7.42-13.38Q5.63-17.92 5.63-23.55L5.63-23.55Q5.63-33.15 8.58-40.51Q11.52-47.87 16.26-52.99Q20.99-58.11 26.94-60.74Q32.90-63.36 38.91-63.36L38.91-63.36Q45.18-63.36 49.41-60.80Q53.63-58.24 55.42-54.91L55.42-54.91L55.68-54.91Q55.94-56.83 56.06-58.75Q56.19-60.67 56.19-62.98L56.19-62.98Q56.19-72.96 51.71-78.08Q47.23-83.20 39.30-83.20L39.30-83.20Q36.22-83.20 32.96-82.24Q29.70-81.28 27.14-79.74L27.14-79.74L24.06-88.83Q26.75-90.62 31.36-91.97Q35.97-93.31 41.22-93.31L41.22-93.31Q53.89-93.31 61.57-84.93Q69.25-76.54 69.25-60.80ZM54.02-44.03L54.02-44.03Q52.61-48.26 49.41-51.07Q46.21-53.89 40.83-53.89L40.83-53.89Q36.61-53.89 32.64-51.52Q28.67-49.15 25.60-44.93Q22.53-40.70 20.74-35.01Q18.94-29.31 18.94-22.78L18.94-22.78Q18.94-16.51 22.02-12.74Q25.09-8.96 30.34-8.96L30.34-8.96Q34.56-8.96 38.34-11.65Q42.11-14.34 45.18-19.07Q48.26-23.81 50.50-30.21Q52.74-36.61 54.02-44.03Z"/>,<path id="g-8710" d="M77.18 0L1.66 0L1.66-6.02L30.59-89.60L48.51-89.60L77.18-6.02L77.18 0ZM61.18-11.14L41.22-70.27Q40.32-72.83 39.94-74.75Q39.55-76.67 39.30-77.95L39.30-77.95L38.78-77.95Q38.53-76.67 38.08-74.69Q37.63-72.70 36.86-70.53L36.86-70.53L16.90-11.14L61.18-11.14Z"/>,<path id="g-8719" d="M82.18 29.44L68.61 29.44L68.61-77.95L23.81-77.95L23.81 29.44L10.24 29.44L10.24-89.60L82.18-89.60L82.18 29.44Z"/>,<path id="g-8721" d="M74.75 29.44L2.94 29.44L2.94 22.66L42.11-30.59L5.50-82.05L5.50-89.60L71.94-89.60L71.94-78.59L22.27-78.59L56.19-30.98L20.10 18.43L74.75 18.43L74.75 29.44Z"/>,<path id="g-8722" d="M70.66-25.73L6.14-25.73L6.14-39.04L70.66-39.04L70.66-25.73Z"/>,<path id="g-8725" d="M37.89-94.72L-4.74 0L-14.08 0L28.54-94.72L37.89-94.72Z"/>,<path id="g-8729" d="M23.55-25.60L11.90-25.60L11.90-39.42L23.55-39.42L23.55-25.60Z"/>,<path id="g-8730" d="M68.74-93.31L45.18 1.54L32.38 1.54L15.62-39.81L8.70-35.46L4.35-42.37L23.68-54.66L38.66-17.41L57.47-93.31L68.74-93.31Z"/>,<path id="g-8734" d="M94.46-37.76L94.46-37.76Q94.46-33.02 92.86-28.93Q91.26-24.83 88.38-21.76Q85.50-18.69 81.47-16.90Q77.44-15.10 72.45-15.10L72.45-15.10Q65.54-15.10 59.65-18.62Q53.76-22.14 49.66-27.78L49.66-27.78Q45.57-22.40 39.94-18.75Q34.30-15.10 27.39-15.10L27.39-15.10Q22.78-15.10 18.69-16.64Q14.59-18.18 11.58-21.06Q8.58-23.94 6.78-28.10Q4.99-32.26 4.99-37.38L4.99-37.38Q4.99-42.50 6.78-46.66Q8.58-50.82 11.58-53.70Q14.59-56.58 18.62-58.11Q22.66-59.65 27.14-59.65L27.14-59.65Q30.72-59.65 33.98-58.56Q37.25-57.47 40.13-55.74Q43.01-54.02 45.50-51.78Q48-49.54 49.92-47.23L49.92-47.23Q51.46-49.54 53.63-51.71Q55.81-53.89 58.56-55.68Q61.31-57.47 64.70-58.56Q68.10-59.65 72.06-59.65L72.06-59.65Q76.93-59.65 81.02-58.05Q85.12-56.45 88.13-53.57Q91.14-50.69 92.80-46.66Q94.46-42.62 94.46-37.76ZM82.05-37.63L82.05-37.63Q82.05-42.11 79.49-45.31Q76.93-48.51 71.42-48.51L71.42-48.51Q66.43-48.51 62.78-45.57Q59.14-42.62 55.94-37.50L55.94-37.50Q58.88-32.64 62.91-29.44Q66.94-26.24 71.42-26.24L71.42-26.24Q76.93-26.24 79.49-29.70Q82.05-33.15 82.05-37.63ZM28.16-26.24L28.16-26.24Q32.77-26.24 36.67-29.57Q40.58-32.90 43.52-37.50L43.52-37.50Q40.45-42.37 36.48-45.44Q32.51-48.51 28.03-48.51L28.03-48.51Q22.66-48.51 20.03-45.18Q17.41-41.86 17.41-37.25L17.41-37.25Q17.41-32.51 20.42-29.38Q23.42-26.24 28.16-26.24Z"/>,<path id="g-8747" d="M55.42-94.08L52.61-84.48Q51.58-84.86 50.11-85.18Q48.64-85.50 46.98-85.50L46.98-85.50Q37.38-85.50 37.38-73.60L37.38-73.60L37.38 6.02Q37.38 16.64 32.13 23.04Q26.88 29.44 16.13 29.44L16.13 29.44Q13.57 29.44 10.56 28.99Q7.55 28.54 6.14 27.90L6.14 27.90L8.58 18.05Q11.01 19.07 14.21 19.07L14.21 19.07Q23.94 19.07 23.94 7.30L23.94 7.30L23.94-72.32Q23.94-77.57 25.28-81.92Q26.62-86.27 29.25-89.34Q31.87-92.42 35.90-94.14Q39.94-95.87 45.31-95.87L45.31-95.87Q48.26-95.87 51.14-95.30Q54.02-94.72 55.42-94.08L55.42-94.08Z"/>,<path id="g-8776" d="M62.98-64.26L71.81-54.14Q67.84-48.51 63.30-45.44Q58.75-42.37 51.97-42.37L51.97-42.37Q48.51-42.37 44.74-43.26Q40.96-44.16 37.25-46.34L37.25-46.34Q34.43-48 31.42-49.28Q28.42-50.56 25.09-50.56L25.09-50.56Q23.04-50.56 21.31-49.66Q19.58-48.77 18.18-47.49Q16.77-46.21 15.62-44.67Q14.46-43.14 13.70-41.86L13.70-41.86L4.86-51.97Q6.66-54.40 8.64-56.58Q10.62-58.75 12.99-60.42Q15.36-62.08 18.18-62.98Q20.99-63.87 24.58-63.87L24.58-63.87Q28.67-63.87 32.32-62.78Q35.97-61.70 39.17-59.90L39.17-59.90Q42.50-57.98 45.50-56.83Q48.51-55.68 51.58-55.68L51.58-55.68Q53.50-55.68 55.17-56.45Q56.83-57.22 58.24-58.50Q59.65-59.78 60.80-61.25Q61.95-62.72 62.98-64.26L62.98-64.26ZM62.98-34.30L71.81-24.32Q67.84-18.56 63.30-15.49Q58.75-12.42 51.97-12.42L51.97-12.42Q48.51-12.42 44.74-13.38Q40.96-14.34 37.25-16.51L37.25-16.51Q34.43-18.18 31.42-19.39Q28.42-20.61 25.09-20.61L25.09-20.61Q23.04-20.61 21.31-19.78Q19.58-18.94 18.18-17.66Q16.77-16.38 15.62-14.85Q14.46-13.31 13.70-12.03L13.70-12.03L4.86-22.14Q6.66-24.58 8.64-26.75Q10.62-28.93 12.99-30.53Q15.36-32.13 18.18-33.02Q20.99-33.92 24.58-33.92L24.58-33.92Q28.67-33.92 32.32-32.83Q35.97-31.74 39.17-29.95L39.17-29.95Q42.50-28.16 45.50-26.94Q48.51-25.73 51.58-25.73L51.58-25.73Q53.50-25.73 55.17-26.50Q56.83-27.26 58.24-28.54Q59.65-29.82 60.80-31.36Q61.95-32.90 62.98-34.30L62.98-34.30Z"/>,<path id="g-88" d="M81.41-94.72L49.79-47.49L81.15 0L64.90 0L41.34-36.10L17.54 0L1.41 0L32.77-47.49L1.41-94.72L17.92-94.72L41.34-58.88L65.02-94.72L81.41-94.72Z"/>,<path id="g-8800" d="M70.66-11.78L35.33-11.78L28.16 3.07L13.57 3.07L20.74-11.78L6.14-11.78L6.14-25.09L27.26-25.09L34.30-39.68L6.14-39.68L6.14-52.99L40.83-52.99L49.15-70.02L63.74-70.02L55.42-52.99L70.66-52.99L70.66-39.68L48.90-39.68L41.86-25.09L70.66-25.09L70.66-11.78Z"/>,<path id="g-8804" d="M70.66-18.30L6.14-41.98L6.14-54.27L70.66-77.82L70.66-63.87L23.68-48.13L23.68-47.87L70.66-32.13L70.66-18.30ZM70.66 0L6.14 0L6.14-13.31L70.66-13.31L70.66 0Z"/>,<path id="g-8805" d="M70.66 0L6.14 0L6.14-13.31L70.66-13.31L70.66 0ZM70.66-41.98L6.14-18.30L6.14-32.13L53.12-47.87L53.12-48.13L6.14-63.87L6.14-77.82L70.66-54.27L70.66-41.98Z"/>,<path id="g-89" d="M74.11-94.72L44.93-34.18L44.93 0L31.10 0L31.10-34.18L1.66-94.72L17.15-94.72L38.02-50.30L58.75-94.72L74.11-94.72Z"/>,<path id="g-90" d="M58.75 0L0.51 0L0.51-12.67L41.60-82.05L2.69-82.05L2.69-94.72L57.09-94.72L57.09-82.05L16.26-12.67L58.75-12.67L58.75 0Z"/>,<path id="g-91" d="M42.11 32.90L42.11 32.90Q36.86 30.85 32.13 27.39Q27.39 23.94 23.81 19.39Q20.22 14.85 18.11 9.47Q16 4.10 16-1.79L16-1.79L16-59.78Q16-72.96 23.04-82.50Q30.08-92.03 42.11-96.64L42.11-96.64L42.11-81.15Q35.33-76.93 32.51-71.55Q29.70-66.18 29.70-58.37L29.70-58.37L29.70-6.53Q29.70 1.54 32.26 7.17Q34.82 12.80 42.11 17.15L42.11 17.15L42.11 32.90Z"/>,<path id="g-92" d="M58.62 12.80L44.03 12.80L7.17-94.72L21.76-94.72L58.62 12.80Z"/>,<path id="g-93" d="M36.10-1.79L36.10-1.79Q36.10 4.10 33.98 9.47Q31.87 14.85 28.29 19.39Q24.70 23.94 19.97 27.39Q15.23 30.85 9.98 32.90L9.98 32.90L9.98 17.15Q17.28 12.80 19.84 7.17Q22.40 1.54 22.40-6.53L22.40-6.53L22.40-58.37Q22.40-66.18 19.58-71.55Q16.77-76.93 9.98-81.15L9.98-81.15L9.98-96.64Q22.02-92.03 29.06-82.50Q36.10-72.96 36.10-59.78L36.10-59.78L36.10-1.79Z"/>,<path id="g-95" d="M64 16L0 16L0 9.60L64 9.60L64 16Z"/>,<path id="g-956" d="M70.40 0L57.09 0L57.09-7.68L56.83-7.68Q53.76-2.56 49.47-0.38Q45.18 1.79 39.17 1.79L39.17 1.79Q34.82 1.79 30.40 0.13Q25.98-1.54 23.04-4.86L23.04-4.86L22.78-4.86L22.78 23.68L9.47 23.68L9.47-70.91L22.78-70.91L22.78-36.35Q22.78-34.43 22.91-32Q23.04-29.57 23.36-27.07Q23.68-24.58 24.26-22.21Q24.83-19.84 25.73-18.18L25.73-18.18Q27.78-14.46 31.36-12.42Q34.94-10.37 39.17-10.37L39.17-10.37Q44.80-10.37 48.32-12.93Q51.84-15.49 53.76-19.52Q55.68-23.55 56.38-28.35Q57.09-33.15 57.09-37.76L57.09-37.76L57.09-70.91L70.40-70.91L70.40 0Z"/>,<path id="g-97" d="M80.13 0L66.82 0L66.82-11.01L66.56-11.01Q62.85-4.48 56.32-1.34Q49.79 1.79 42.50 1.79L42.50 1.79Q34.56 1.79 27.65-0.96Q20.74-3.71 15.68-8.64Q10.62-13.57 7.74-20.35Q4.86-27.14 4.86-35.20L4.86-35.20Q4.86-43.26 7.74-50.18Q10.62-57.09 15.62-62.08Q20.61-67.07 27.52-69.95Q34.43-72.83 42.50-72.83L42.50-72.83Q49.66-72.83 56.13-69.95Q62.59-67.07 66.56-60.93L66.56-60.93L66.82-60.93L66.82-70.91L80.13-70.91L80.13 0ZM67.07-35.33L67.07-35.33Q67.07-40.70 65.28-45.31Q63.49-49.92 60.22-53.31Q56.96-56.70 52.42-58.69Q47.87-60.67 42.50-60.67L42.50-60.67Q37.25-60.67 32.77-58.62Q28.29-56.58 25.02-53.12Q21.76-49.66 19.97-45.06Q18.18-40.45 18.18-35.33L18.18-35.33Q18.18-30.34 20.03-25.79Q21.89-21.25 25.15-17.86Q28.42-14.46 32.83-12.42Q37.25-10.37 42.37-10.37L42.37-10.37Q47.49-10.37 52.03-12.35Q56.58-14.34 59.90-17.73Q63.23-21.12 65.15-25.66Q67.07-30.21 67.07-35.33Z"/>,<path id="g-98" d="M83.20-35.46L83.20-35.46Q83.20-27.78 80.38-20.99Q77.57-14.21 72.70-9.15Q67.84-4.10 61.18-1.15Q54.53 1.79 46.72 1.79L46.72 1.79Q39.42 1.79 32.90-1.34Q26.37-4.48 22.02-10.24L22.02-10.24L21.76-10.24L21.76 0L8.58 0L8.58-94.72L21.89-94.72L21.89-61.06L22.14-61.06Q26.50-67.07 32.83-69.95Q39.17-72.83 46.46-72.83L46.46-72.83Q54.14-72.83 60.86-69.82Q67.58-66.82 72.51-61.70Q77.44-56.58 80.32-49.79Q83.20-43.01 83.20-35.46ZM69.89-35.46L69.89-35.46Q69.89-40.45 68.03-45.06Q66.18-49.66 62.98-53.12Q59.78-56.58 55.30-58.62Q50.82-60.67 45.70-60.67L45.70-60.67Q40.58-60.67 36.16-58.69Q31.74-56.70 28.48-53.25Q25.22-49.79 23.36-45.25Q21.50-40.70 21.50-35.71L21.50-35.71Q21.50-30.46 23.30-25.86Q25.09-21.25 28.29-17.79Q31.49-14.34 35.97-12.35Q40.45-10.37 45.70-10.37L45.70-10.37Q50.82-10.37 55.23-12.42Q59.65-14.46 62.91-17.92Q66.18-21.38 68.03-25.92Q69.89-30.46 69.89-35.46Z"/>,<path id="g-99" d="M76.16-23.42L76.16-23.42Q74.24-17.66 70.78-13.06Q67.33-8.45 62.78-5.12Q58.24-1.79 52.80 0Q47.36 1.79 41.22 1.79L41.22 1.79Q33.28 1.79 26.62-1.15Q19.97-4.10 15.10-9.15Q10.24-14.21 7.55-20.99Q4.86-27.78 4.86-35.58L4.86-35.58Q4.86-43.39 7.62-50.18Q10.37-56.96 15.23-62.02Q20.10-67.07 26.75-69.95Q33.41-72.83 41.34-72.83L41.34-72.83Q47.10-72.83 52.67-70.98Q58.24-69.12 62.98-65.79Q67.71-62.46 71.17-57.79Q74.62-53.12 76.16-47.36L76.16-47.36L61.44-47.36Q58.50-53.63 53.57-57.15Q48.64-60.67 41.47-60.67L41.47-60.67Q35.97-60.67 31.68-58.69Q27.39-56.70 24.38-53.31Q21.38-49.92 19.78-45.38Q18.18-40.83 18.18-35.58L18.18-35.58Q18.18-30.59 19.78-25.98Q21.38-21.38 24.38-17.92Q27.39-14.46 31.62-12.42Q35.84-10.37 41.22-10.37L41.22-10.37Q48.13-10.37 53.31-13.82Q58.50-17.28 61.31-23.42L61.31-23.42L76.16-23.42Z"/></defs></svg>